<svg width="1146" height="636" viewBox="0 0 1146 636" fill="none" xmlns="http://www.w3.org/2000/svg">
<path fill-rule="evenodd" clip-rule="evenodd" d="M137.206 94.4106L92 67.7039L92.3972 67L138 93.9413V148.059L92.3972 175L92 174.296L137.206 147.589V94.4106Z" fill="#1612E3"/>
<path fill-rule="evenodd" clip-rule="evenodd" d="M46.5002 253.079L0.405 226.465L0 227.167L46.5002 254.014L93.0004 227.167L92.5954 226.465L46.5002 253.079Z" fill="#1612E3"/>
<path fill-rule="evenodd" clip-rule="evenodd" d="M137.202 253.039L91.8005 226.705L92.1995 226L138 252.5V307H137.202V253.039ZM46.7978 253.235V307H46V253.235H46.7978Z" fill="#1612E3"/>
<path fill-rule="evenodd" clip-rule="evenodd" d="M92.1371 385.342V332.116H91.3271V385.81L138.03 412.774L184.53 385.927L184.125 385.225L138.03 411.838L92.1371 385.342Z" fill="#1612E3"/>
<path fill-rule="evenodd" clip-rule="evenodd" d="M92.0626 385.117L45.7649 411.847L45.3599 411.145L91.6576 384.415L92.0626 385.117ZM137.753 464.722V411.812L138.563 411.922V465.19L92.0626 492.037L91.6576 491.335L137.753 464.722Z" fill="#1612E3"/>
<path fill-rule="evenodd" clip-rule="evenodd" d="M413.153 94.2101L367.057 67.597L367.462 66.8955L413.963 93.7424V147.67L367.26 174.634L320.557 147.67V93.9762H321.367V147.202L367.26 173.699L413.153 147.202V94.2101Z" fill="#1612E3"/>
<path fill-rule="evenodd" clip-rule="evenodd" d="M275.197 173.59L321.292 146.977L320.887 146.275L274.387 173.122V227.05L321.09 254.014L367.793 227.05V173.356H366.983V226.582L321.09 253.079L275.197 226.582V173.59Z" fill="#1612E3"/>
<path fill-rule="evenodd" clip-rule="evenodd" d="M412.342 252.97L367 227V226L413.152 252.502V306.43L366.45 333.394L319.747 306.43V252.736H320.557V305.962L366.45 332.459L412.342 305.962V252.97Z" fill="#1612E3"/>
<path fill-rule="evenodd" clip-rule="evenodd" d="M458.513 332.35L412.418 305.737L412.823 305.035L459.323 331.882V385.81L412.621 412.774L366.129 385.81L365.711 332.5H366.598L366.826 385.342L412.621 411.838L458.513 385.342V332.35Z" fill="#1612E3"/>
<path fill-rule="evenodd" clip-rule="evenodd" d="M320.557 411.73L366.652 385.117L366.247 384.415L319.747 411.262V464.956H320.557V411.73ZM412.342 464.956V412.156L413.152 411.844V464.956H412.342Z" fill="#1612E3"/>
<path fill-rule="evenodd" clip-rule="evenodd" d="M458.054 225.69L504.683 252.502L504.586 306.236L458.903 332.806L458.5 332L503.873 305.962V252.97L457.936 226.444L412.456 252.97L412.074 252.152L458.054 225.69Z" fill="#1612E3"/>
<path fill-rule="evenodd" clip-rule="evenodd" d="M550.043 332.35L503.948 305.737L504.353 305.035L550.853 331.882V385.81L504.15 412.774L457.65 385.927L458.055 385.225L504.15 411.838L550.043 385.342V332.35Z" fill="#1612E3"/>
<path fill-rule="evenodd" clip-rule="evenodd" d="M503.873 464.722V411.496H504.683V465.19L458.182 492.037L457.777 491.335L503.873 464.722Z" fill="#1612E3"/>
<path fill-rule="evenodd" clip-rule="evenodd" d="M596.213 94.2101L550.118 67.597L550.523 66.8955L597.023 93.7424V147.67L550.523 174.517L550.118 173.815L596.213 147.202V94.2101Z" fill="#1612E3"/>
<path fill-rule="evenodd" clip-rule="evenodd" d="M458.257 173.141V226.816H457.447V173.356L458.257 173.141ZM550.043 226.816V173.356H550.853V226.816H550.043Z" fill="#1612E3"/>
<path fill-rule="evenodd" clip-rule="evenodd" d="M549.51 225.32L596.01 252.385L595.605 253.087L549.51 226.474L504 253L503.5 252.281L549.51 225.32ZM549.5 332L595.605 305.845L596.01 306.547L550.5 332.5L549.5 332Z" fill="#1612E3"/>
<path fill-rule="evenodd" clip-rule="evenodd" d="M640.595 332.693L594.298 305.963L594.703 305.262L641 331.992L640.595 332.693ZM594.5 412.065L550.5 385.5L549.5 386L594.5 413L641 386.153L640.595 385.452L594.5 412.065Z" fill="#1612E3"/>
<path fill-rule="evenodd" clip-rule="evenodd" d="M595.403 464.956V411.496H596.213V464.956H595.403ZM503.415 464.605L549.712 491.335L549.307 492.037L503.01 465.307L503.415 464.605Z" fill="#1612E3"/>
<path fill-rule="evenodd" clip-rule="evenodd" d="M641.85 173.5L596.5 147.301L595.5 147.653L642 174.5L688.35 147.787L687.945 147.085L641.85 173.5Z" fill="#1612E3"/>
<path fill-rule="evenodd" clip-rule="evenodd" d="M641.573 226.582V173.356H642.383V227.05L595.883 253.897L595.478 253.195L641.573 226.582Z" fill="#1612E3"/>
<path fill-rule="evenodd" clip-rule="evenodd" d="M686.933 252.97L641.595 226.794L642 226.093L687.743 252.502V306.43L640.5 333V332L686.933 305.962V252.97ZM595.147 252.736V306.196H594.337V252.736H595.147Z" fill="#1612E3"/>
<path fill-rule="evenodd" clip-rule="evenodd" d="M733.103 332.35L687 306.5V305.5L733.913 331.882V385.81L687.21 412.774L640.507 385.81V332.116H641.317V385.342L687.21 411.838L733.103 385.342V332.35Z" fill="#1612E3"/>
<path fill-rule="evenodd" clip-rule="evenodd" d="M640.837 491.335L687.135 464.605L687.54 465.307L641.242 492.037L640.837 491.335Z" fill="#1612E3"/>
<path fill-rule="evenodd" clip-rule="evenodd" d="M779.393 147.226V94H780.203V147.694L733.5 174.5L687.42 147.598L688 147L733.595 173.613L779.393 147.226Z" fill="#1612E3"/>
<path fill-rule="evenodd" clip-rule="evenodd" d="M733.102 226.582V173.684H733.912V227.05L687.412 253.897L687.007 253.195L733.102 226.582Z" fill="#1612E3"/>
<path fill-rule="evenodd" clip-rule="evenodd" d="M778.665 253.087L732.367 226.357L732.772 225.655L779.07 252.385L778.665 253.087ZM732.367 332.575L778.665 305.845L779.07 306.547L732.772 333.277L732.367 332.575Z" fill="#1612E3"/>
<path fill-rule="evenodd" clip-rule="evenodd" d="M824.631 332.35L778.536 305.737L778.941 305.035L825.441 331.882V385.81L778.738 412.774L732.238 385.927L732.643 385.225L778.738 411.838L824.631 385.342V332.35ZM549.585 544.39L595.883 571.12L595.478 571.822L549.18 545.092L549.585 544.39Z" fill="#1612E3"/>
<path fill-rule="evenodd" clip-rule="evenodd" d="M686.677 464.722V411.496H685.867V465.19L732.57 492.154L779.273 465.19V411.496H778.463V464.722L732.57 491.218L686.677 464.722Z" fill="#1612E3"/>
<path fill-rule="evenodd" clip-rule="evenodd" d="M870.803 94.2101L824.707 67.597L825.112 66.8955L871.613 93.7424V147.67L824.91 174.634L778.41 147.787L778.815 147.085L824.91 173.699L870.803 147.202V94.2101Z" fill="#1612E3"/>
<path fill-rule="evenodd" clip-rule="evenodd" d="M824.633 226.582V173.356H825.443V227.05L778.943 253.897L778.538 253.195L824.633 226.582Z" fill="#1612E3"/>
<path fill-rule="evenodd" clip-rule="evenodd" d="M869.992 252.97L823.897 226.357L824.302 225.655L870.802 252.502V306.43L824.302 333.277L823.897 332.575L869.992 305.962V252.97ZM778.207 252.736V306.196H777.397V252.736H778.207Z" fill="#1612E3"/>
<path fill-rule="evenodd" clip-rule="evenodd" d="M916.163 332.35L870.067 305.737L870.472 305.035L916.973 331.882V385.81L870.27 412.774L823.77 385.927L824.175 385.225L870.27 411.838L916.163 385.342V332.35Z" fill="#1612E3"/>
<path fill-rule="evenodd" clip-rule="evenodd" d="M869.993 464.956V411.496H870.803V464.956H869.993ZM778.005 464.605L824.303 491.335L823.898 492.037L777.6 465.307L778.005 464.605Z" fill="#1612E3"/>
<path fill-rule="evenodd" clip-rule="evenodd" d="M916.642 67.597L870.345 94.327L869.94 93.6255L916.237 66.8955L916.642 67.597Z" fill="#1612E3"/>
<path fill-rule="evenodd" clip-rule="evenodd" d="M916.163 226.582V173.356H916.973V227.05L870.472 253.897L870.067 253.195L916.163 226.582Z" fill="#1612E3"/>
<path fill-rule="evenodd" clip-rule="evenodd" d="M961.522 252.97L915.427 226.357L915.832 225.655L962.332 252.502V306.196H961.522V252.97Z" fill="#1612E3"/>
<path fill-rule="evenodd" clip-rule="evenodd" d="M1007.69 385.342V332.116H1008.5V385.81L961.8 412.774L915.299 385.927L915.704 385.225L961.8 411.838L1007.69 385.342Z" fill="#1612E3"/>
<path fill-rule="evenodd" clip-rule="evenodd" d="M1053.86 94.2101L1007.77 67.597L1008.17 66.8955L1054.67 93.7424V147.67L1007.97 174.634L961.47 147.787L961.875 147.085L1007.97 173.699L1053.86 147.202V94.2101Z" fill="#1612E3"/>
<path fill-rule="evenodd" clip-rule="evenodd" d="M1007.5 225.5L1053.86 252.502V306.196H1053.05V252.97L1007.16 226.349L962 252.875L961 252.347L1007.5 225.5Z" fill="#1612E3"/>
<path fill-rule="evenodd" clip-rule="evenodd" d="M1007.23 385.225L1053.53 411.955L1053.13 412.657L1006.83 385.927L1007.23 385.225Z" fill="#1612E3"/>
<path fill-rule="evenodd" clip-rule="evenodd" d="M1053.05 464.956V411.496H1053.86V464.956H1053.05Z" fill="#1612E3"/>
<path fill-rule="evenodd" clip-rule="evenodd" d="M1099.5 173.699L1053.4 147.085L1053 147.787L1099.5 174.634L1146 147.787L1145.59 147.085L1099.5 173.699Z" fill="#1612E3"/>
<path fill-rule="evenodd" clip-rule="evenodd" d="M1008.25 174V227.46H1007.44V174H1008.25ZM1100.03 227.46V174H1100.84V227.46H1100.03Z" fill="#1612E3"/>
<path fill-rule="evenodd" clip-rule="evenodd" d="M1098.78 225.655L1145.39 252.502V306.196H1144.58V252.97L1099 226.5L1053.81 252.526L1052.28 252.502L1098.78 225.655Z" fill="#1612E3"/>
<path fill-rule="evenodd" clip-rule="evenodd" d="M184.403 67.597L138.105 94.327L137.7 93.6255L183.998 66.8955L184.403 67.597ZM184.2 173.699L138.105 147.085L137.7 147.787L184.2 174.634L230.701 147.787L230.296 147.085L184.2 173.699Z" fill="#1612E3"/>
<path fill-rule="evenodd" clip-rule="evenodd" d="M183.39 225.539L229.891 252.385L229.486 253.087L183.39 226.474L137.295 253.087L136.89 252.385L183.39 225.539Z" fill="#1612E3"/>
<path fill-rule="evenodd" clip-rule="evenodd" d="M275.453 385.342V332.116H276.263V385.81L229.56 412.774L183.06 385.927L183.465 385.225L229.56 411.838L275.453 385.342Z" fill="#1612E3"/>
<path fill-rule="evenodd" clip-rule="evenodd" d="M320.877 94.5765L275.501 67.7305L275.906 66.9274L321.377 93.975L320.877 94.5765Z" fill="#1612E3"/>
<path fill-rule="evenodd" clip-rule="evenodd" d="M183.667 173.356V226.816H182.857V173.356H183.667Z" fill="#1612E3"/>
<path fill-rule="evenodd" clip-rule="evenodd" d="M275.123 226.357L228.825 253.087L228.42 252.385L274.718 225.655L275.123 226.357ZM274.718 332.575L321.015 305.845L321.42 306.547L275.123 333.277L274.718 332.575Z" fill="#1612E3"/>
<path fill-rule="evenodd" clip-rule="evenodd" d="M274.995 385.225L321.293 411.955L320.888 412.657L274.59 385.927L274.995 385.225Z" fill="#1612E3"/>
<path fill-rule="evenodd" clip-rule="evenodd" d="M274.718 491.335L321.016 464.605L321.421 465.307L275.123 492.037L274.718 491.335Z" fill="#1612E3"/>
<path fill-rule="evenodd" clip-rule="evenodd" d="M825.008 492.041V545.582H823.998V492.041H825.008Z" fill="#1612E3"/>
<path d="M78.4653 211.204H108.772V241.51H78.4653V211.204Z" fill="#E2E2DF"/>
<path d="M352.231 157.663H382.538V187.969H352.231V157.663Z" fill="#E2E2DF"/>
<path d="M900.773 377.888H931.08V407.184H900.773V377.888Z" fill="#E2E2DF"/>
<path d="M808.845 377.888H839.151V407.184H808.845V377.888Z" fill="#E2E2DF"/>
<path d="M764.396 448.602H793.691V478.909H764.396V448.602Z" fill="#E2E2DF"/>
<path d="M672.467 448.602H702.773V478.909H672.467V448.602Z" fill="#E2E2DF"/>
<path d="M581.548 396.072H610.844V426.378H581.548V396.072Z" fill="#E2E2DF"/>
<path d="M487.599 451.633H517.905V480.929H487.599V451.633Z" fill="#E2E2DF"/>
<path d="M443.15 373.847H473.457V404.153H443.15V373.847Z" fill="#E2E2DF"/>
<path d="M350.211 374.857H380.517V405.164H350.211V374.857Z" fill="#E2E2DF"/>
<path d="M307.782 450.623H337.078V479.919H307.782V450.623Z" fill="#E2E2DF"/>
<path d="M213.833 396.072H244.14V426.378H213.833V396.072Z" fill="#E2E2DF"/>
<path d="M1038.16 136.449H1067.46V166.755H1038.16V136.449Z" fill="#E2E2DF"/>
<path d="M991.692 209.184H1022V238.479H991.692V209.184Z" fill="#E2E2DF"/>
<path d="M856.324 240.5H886.631V270.806H856.324V240.5Z" fill="#E2E2DF"/>
<path d="M810.865 161.704H841.171V191H810.865V161.704Z" fill="#E2E2DF"/>
<path d="M352.231 157.663H382.538V187.969H352.231V157.663Z" fill="#E2E2DF"/>
<path d="M717.926 213.224H748.232V242.52H717.926V213.224Z" fill="#E2E2DF"/>
<path d="M625.997 158.673H656.303V188.979H625.997V158.673Z" fill="#E2E2DF"/>
<path d="M579.528 238.479H609.834V267.775H579.528V238.479Z" fill="#E2E2DF"/>
<path d="M490.63 291.01H519.926V320.306H490.63V291.01Z" fill="#E2E2DF"/>
<path d="M444.16 213.224H474.466V242.52H444.16V213.224Z" fill="#E2E2DF"/>
<path d="M214.844 238.479H245.15V267.775H214.844V238.479Z" fill="#E2E2DF"/>
<path d="M169.384 161.704H199.69V191H169.384V161.704Z" fill="#E2E2DF"/>
<path d="M93.9527 229.042H89.3001V238.479H86.5474V217.265H89.3001V226.582H93.9914L101.164 217.265H104.15L96.1239 227.55L104.731 238.479H101.474L93.9527 229.042Z" fill="black"/>
<path d="M183.314 163.724C185.988 163.724 188.039 164.412 189.467 165.786C190.895 167.134 191.609 169.143 191.609 171.813V184.74H188.96V181.489C188.337 182.573 187.416 183.419 186.196 184.027C185.001 184.635 183.573 184.939 181.912 184.939C179.627 184.939 177.81 184.383 176.46 183.273C175.11 182.163 174.435 180.696 174.435 178.872C174.435 177.101 175.058 175.673 176.304 174.589C177.576 173.505 179.588 172.963 182.34 172.963H188.844V171.694C188.844 169.897 188.35 168.535 187.364 167.61C186.377 166.659 184.936 166.183 183.041 166.183C181.743 166.183 180.497 166.407 179.303 166.857C178.109 167.28 177.083 167.875 176.226 168.641L174.98 166.54C176.019 165.641 177.265 164.953 178.719 164.478C180.173 163.975 181.704 163.724 183.314 163.724ZM182.34 182.718C183.898 182.718 185.235 182.361 186.351 181.647C187.468 180.907 188.298 179.85 188.844 178.475V175.065H182.418C178.913 175.065 177.161 176.307 177.161 178.792C177.161 180.008 177.615 180.973 178.524 181.687C179.433 182.374 180.705 182.718 182.34 182.718Z" fill="black"/>
<path d="M230.33 253.287H225.678V262.724H222.925V241.51H225.678V250.827H230.369L237.542 241.51H240.527L232.501 251.795L241.109 262.724H237.852L230.33 253.287Z" fill="black"/>
<path d="M373.342 182.918L366.88 174.468L360.379 182.918H357.283L365.332 172.547L357.67 162.714H360.765L366.88 170.627L372.994 162.714H376.012L368.35 172.547L376.477 182.918H373.342Z" fill="black"/>
<path d="M449.211 218.275H451.873V234.331L465.033 218.275H467.395V238.479H464.733V222.424L451.611 238.479H449.211V218.275Z" fill="black"/>
<path d="M515.885 295.051V315.255H513.316V299.276L504.9 312.797H503.635L495.218 299.238V315.255H492.65V295.051H495.495L504.307 309.609L513.277 295.051H515.885Z" fill="black"/>
<path d="M585.589 242.52H588.399V259.379L602.29 242.52H604.783V263.735H601.973V246.876L588.122 263.735H585.589V242.52Z" fill="black"/>
<path d="M650.242 164.734V184.939H647.38V176.527C644.934 177.551 642.528 178.063 640.163 178.063C637.609 178.063 635.62 177.512 634.195 176.411C632.771 175.285 632.059 173.607 632.059 171.38V164.734H634.921V171.226C634.921 172.737 635.432 173.889 636.453 174.683C637.475 175.451 638.886 175.835 640.687 175.835C642.676 175.835 644.907 175.336 647.38 174.337V164.734H650.242Z" fill="black"/>
<path d="M743.142 231.21H725.779C725.937 233.274 726.765 234.949 728.265 236.233C729.764 237.491 731.659 238.121 733.947 238.121C735.236 238.121 736.42 237.907 737.499 237.479C738.577 237.026 739.511 236.371 740.301 235.515L741.879 237.252C740.958 238.31 739.801 239.115 738.406 239.669C737.038 240.223 735.526 240.5 733.868 240.5C731.737 240.5 729.843 240.072 728.186 239.216C726.555 238.335 725.279 237.126 724.358 235.591C723.437 234.055 722.977 232.318 722.977 230.379C722.977 228.44 723.411 226.703 724.279 225.167C725.174 223.632 726.384 222.436 727.91 221.58C729.462 220.724 731.198 220.296 733.119 220.296C735.039 220.296 736.762 220.724 738.288 221.58C739.814 222.436 741.011 223.632 741.879 225.167C742.747 226.678 743.181 228.415 743.181 230.379L743.142 231.21ZM733.119 222.599C731.119 222.599 729.436 223.216 728.068 224.45C726.726 225.658 725.963 227.245 725.779 229.208H740.498C740.314 227.245 739.538 225.658 738.17 224.45C736.828 223.216 735.144 222.599 733.119 222.599Z" fill="black"/>
<path d="M828.267 182.918C826.285 182.918 824.506 182.49 822.93 181.634C821.38 180.778 820.16 179.582 819.271 178.047C818.381 176.486 817.937 174.736 817.937 172.797C817.937 170.859 818.381 169.121 819.271 167.586C820.16 166.05 821.38 164.854 822.93 163.998C824.506 163.142 826.285 162.714 828.267 162.714C829.995 162.714 831.533 163.054 832.88 163.734C834.252 164.388 835.332 165.358 836.12 166.642L834.1 168.001C833.439 167.019 832.6 166.289 831.584 165.811C830.567 165.307 829.462 165.055 828.267 165.055C826.819 165.055 825.51 165.383 824.341 166.037C823.197 166.667 822.295 167.573 821.634 168.756C820.999 169.94 820.681 171.287 820.681 172.797C820.681 174.333 820.999 175.693 821.634 176.876C822.295 178.034 823.197 178.94 824.341 179.595C825.51 180.224 826.819 180.539 828.267 180.539C829.462 180.539 830.567 180.3 831.584 179.821C832.6 179.343 833.439 178.613 834.1 177.631L836.12 178.991C835.332 180.275 834.252 181.257 832.88 181.936C831.508 182.591 829.97 182.918 828.267 182.918Z" fill="black"/>
<path d="M870.801 254.746H866.149V263.735H863.396V243.531H866.149V252.403H870.84L878.013 243.531H880.998L872.972 253.325L881.58 263.735H878.323L870.801 254.746Z" fill="black"/>
<path d="M1006.36 235.449C1004.35 235.449 1002.54 235.021 1000.93 234.165C999.315 233.284 998.046 232.075 997.121 230.539C996.196 229.004 995.733 227.267 995.733 225.328C995.733 223.389 996.196 221.652 997.121 220.116C998.046 218.581 999.315 217.385 1000.93 216.529C1002.54 215.673 1004.35 215.245 1006.36 215.245C1008.37 215.245 1010.18 215.673 1011.79 216.529C1013.4 217.385 1014.66 218.581 1015.56 220.116C1016.48 221.652 1016.95 223.389 1016.95 225.328C1016.95 227.267 1016.48 229.004 1015.56 230.539C1014.66 232.075 1013.4 233.284 1011.79 234.165C1010.18 235.021 1008.37 235.449 1006.36 235.449ZM1006.36 233.07C1007.84 233.07 1009.16 232.755 1010.33 232.126C1011.51 231.471 1012.44 230.552 1013.1 229.369C1013.76 228.185 1014.09 226.839 1014.09 225.328C1014.09 223.817 1013.76 222.47 1013.1 221.287C1012.44 220.104 1011.51 219.197 1010.33 218.568C1009.16 217.913 1007.84 217.586 1006.36 217.586C1004.88 217.586 1003.54 217.913 1002.35 218.568C1001.19 219.197 1000.27 220.104 999.579 221.287C998.918 222.47 998.588 223.817 998.588 225.328C998.588 226.839 998.918 228.185 999.579 229.369C1000.27 230.552 1001.19 231.471 1002.35 232.126C1003.54 232.755 1004.88 233.07 1006.36 233.07Z" fill="black"/>
<path d="M1063.38 151.949H1046.01C1046.17 154.117 1047 155.875 1048.5 157.223C1050 158.545 1051.89 159.206 1054.18 159.206C1055.47 159.206 1056.66 158.981 1057.73 158.532C1058.81 158.056 1059.75 157.368 1060.54 156.47L1062.11 158.294C1061.19 159.404 1060.04 160.25 1058.64 160.831C1057.27 161.413 1055.76 161.704 1054.1 161.704C1051.97 161.704 1050.08 161.254 1048.42 160.356C1046.79 159.43 1045.51 158.162 1044.59 156.549C1043.67 154.936 1043.21 153.112 1043.21 151.077C1043.21 149.041 1043.65 147.217 1044.51 145.605C1045.41 143.992 1046.62 142.737 1048.15 141.838C1049.7 140.939 1051.43 140.49 1053.35 140.49C1055.27 140.49 1057 140.939 1058.52 141.838C1060.05 142.737 1061.25 143.992 1062.11 145.605C1062.98 147.191 1063.42 149.015 1063.42 151.077L1063.38 151.949ZM1053.35 142.908C1051.35 142.908 1049.67 143.556 1048.3 144.851C1046.96 146.12 1046.2 147.786 1046.01 149.848H1060.73C1060.55 147.786 1059.77 146.12 1058.4 144.851C1057.06 143.556 1055.38 142.908 1053.35 142.908Z" fill="black"/>
<path d="M229.789 420.317C227.697 420.317 225.819 419.889 224.156 419.033C222.519 418.177 221.232 416.981 220.293 415.445C219.354 413.884 218.884 412.134 218.884 410.196C218.884 408.257 219.354 406.52 220.293 404.984C221.232 403.448 222.519 402.252 224.156 401.396C225.819 400.54 227.697 400.112 229.789 400.112C231.613 400.112 233.236 400.452 234.658 401.132C236.106 401.787 237.247 402.756 238.078 404.04L235.946 405.4C235.248 404.418 234.363 403.688 233.29 403.209C232.217 402.706 231.05 402.454 229.789 402.454C228.26 402.454 226.878 402.781 225.644 403.436C224.437 404.065 223.485 404.972 222.787 406.155C222.117 407.338 221.781 408.685 221.781 410.196C221.781 411.731 222.117 413.091 222.787 414.274C223.485 415.432 224.437 416.339 225.644 416.993C226.878 417.623 228.26 417.937 229.789 417.937C231.05 417.937 232.217 417.698 233.29 417.22C234.363 416.742 235.248 416.011 235.946 415.03L238.078 416.389C237.247 417.673 236.106 418.655 234.658 419.335C233.209 419.989 231.586 420.317 229.789 420.317Z" fill="black"/>
<path d="M321.944 476.888C320.031 476.888 318.306 476.439 316.77 475.54C315.235 474.615 314.026 473.346 313.145 471.733C312.264 470.121 311.823 468.297 311.823 466.261C311.823 464.226 312.264 462.402 313.145 460.789C314.026 459.177 315.235 457.921 316.77 457.022C318.306 456.123 320.031 455.674 321.944 455.674C323.858 455.674 325.582 456.123 327.118 457.022C328.654 457.921 329.85 459.177 330.706 460.789C331.587 462.402 332.027 464.226 332.027 466.261C332.027 468.297 331.587 470.121 330.706 471.733C329.85 473.346 328.654 474.615 327.118 475.54C325.582 476.439 323.858 476.888 321.944 476.888ZM321.944 474.39C323.354 474.39 324.613 474.06 325.721 473.399C326.854 472.711 327.735 471.746 328.364 470.504C328.994 469.262 329.308 467.847 329.308 466.261C329.308 464.675 328.994 463.261 328.364 462.018C327.735 460.776 326.854 459.824 325.721 459.163C324.613 458.476 323.354 458.132 321.944 458.132C320.534 458.132 319.263 458.476 318.13 459.163C317.022 459.824 316.141 460.776 315.486 462.018C314.857 463.261 314.542 464.675 314.542 466.261C314.542 467.847 314.857 469.262 315.486 470.504C316.141 471.746 317.022 472.711 318.13 473.399C319.263 474.06 320.534 474.39 321.944 474.39Z" fill="black"/>
<path d="M374.416 389.812H357.053C357.211 391.877 358.04 393.551 359.539 394.835C361.039 396.094 362.933 396.723 365.222 396.723C366.511 396.723 367.695 396.509 368.773 396.081C369.852 395.628 370.786 394.973 371.575 394.117L373.153 395.854C372.233 396.912 371.075 397.718 369.681 398.271C368.313 398.825 366.8 399.102 365.143 399.102C363.012 399.102 361.118 398.674 359.46 397.818C357.829 396.937 356.553 395.729 355.633 394.193C354.712 392.657 354.251 390.92 354.251 388.981C354.251 387.043 354.686 385.306 355.554 383.77C356.448 382.234 357.658 381.038 359.184 380.182C360.736 379.326 362.473 378.898 364.393 378.898C366.313 378.898 368.037 379.326 369.562 380.182C371.088 381.038 372.285 382.234 373.153 383.77C374.022 385.28 374.456 387.018 374.456 388.981L374.416 389.812ZM364.393 381.202C362.394 381.202 360.71 381.819 359.342 383.052C358 384.261 357.237 385.847 357.053 387.811H371.772C371.588 385.847 370.812 384.261 369.444 383.052C368.102 381.819 366.419 381.202 364.393 381.202Z" fill="black"/>
<path d="M468.405 396.844V404.153H465.832V399.241H447.744V404.153H445.17V396.844H446.323C447.68 396.766 448.601 395.761 449.088 393.827C449.574 391.893 449.907 389.186 450.086 385.705L450.355 378.898H465.256V396.844H468.405ZM452.582 385.86C452.454 388.748 452.211 391.133 451.853 393.015C451.494 394.871 450.854 396.147 449.933 396.844H462.529V381.335H452.813L452.582 385.86Z" fill="black"/>
<path d="M493.66 455.674H496.47V471.73L510.361 455.674H512.854V475.878H510.044V459.822L496.193 475.878H493.66V455.674Z" fill="black"/>
<path d="M587.61 402.133H590.339V411.083H603.064V402.133H605.794V422.337H603.064V413.426H590.339V422.337H587.61V402.133Z" fill="black"/>
<path d="M695.664 466.123H679.169C679.319 468.291 680.107 470.049 681.531 471.397C682.956 472.719 684.755 473.38 686.93 473.38C688.154 473.38 689.279 473.155 690.303 472.706C691.328 472.23 692.215 471.543 692.965 470.644L694.465 472.468C693.59 473.578 692.49 474.424 691.166 475.006C689.866 475.587 688.429 475.878 686.855 475.878C684.83 475.878 683.031 475.429 681.456 474.53C679.907 473.604 678.695 472.336 677.82 470.723C676.945 469.11 676.508 467.286 676.508 465.251C676.508 463.215 676.92 461.391 677.745 459.779C678.595 458.166 679.744 456.911 681.194 456.012C682.668 455.113 684.318 454.664 686.142 454.664C687.967 454.664 689.604 455.113 691.053 456.012C692.503 456.911 693.64 458.166 694.465 459.779C695.289 461.365 695.702 463.189 695.702 465.251L695.664 466.123ZM686.142 457.082C684.243 457.082 682.643 457.73 681.344 459.025C680.069 460.294 679.344 461.96 679.169 464.022H693.153C692.978 461.96 692.24 460.294 690.941 459.025C689.666 457.73 688.067 457.082 686.142 457.082Z" fill="black"/>
<path d="M769.447 454.664H772.176V464.061H784.901V454.664H787.63V475.878H784.901V466.521H772.176V475.878H769.447V454.664Z" fill="black"/>
<path d="M814.906 381.929H817.716V397.984L831.607 381.929H834.1V402.133H831.29V386.077L817.439 402.133H814.906V381.929Z" fill="black"/>
<path d="M925.989 393.388H908.626C908.784 395.556 909.613 397.314 911.113 398.662C912.612 399.984 914.506 400.645 916.795 400.645C918.084 400.645 919.268 400.42 920.346 399.971C921.425 399.495 922.359 398.808 923.148 397.909L924.727 399.733C923.806 400.843 922.648 401.689 921.254 402.271C919.886 402.852 918.373 403.143 916.716 403.143C914.585 403.143 912.691 402.694 911.034 401.795C909.403 400.87 908.127 399.601 907.206 397.988C906.285 396.376 905.825 394.552 905.825 392.516C905.825 390.481 906.259 388.657 907.127 387.044C908.021 385.431 909.232 384.176 910.757 383.277C912.309 382.378 914.046 381.929 915.966 381.929C917.887 381.929 919.61 382.378 921.136 383.277C922.661 384.176 923.858 385.431 924.727 387.044C925.595 388.63 926.029 390.454 926.029 392.516L925.989 393.388ZM915.966 384.348C913.967 384.348 912.283 384.995 910.915 386.291C909.574 387.559 908.811 389.225 908.626 391.287H923.345C923.161 389.225 922.385 387.559 921.017 386.291C919.676 384.995 917.992 384.348 915.966 384.348Z" fill="black"/>
<path fill-rule="evenodd" clip-rule="evenodd" d="M368.01 15V67.5307H367V15H368.01Z" fill="#1612E3"/>
<path fill-rule="evenodd" clip-rule="evenodd" d="M504 570L549.82 544.572L550.232 545.27L504 571V570Z" fill="#1612E3"/>
<path fill-rule="evenodd" clip-rule="evenodd" d="M550.232 492.041V545.582H549.222V492.041H550.232Z" fill="#1612E3"/>
<path d="M557.303 66.7444C557.303 71.2078 553.911 74.8261 549.726 74.8261C545.542 74.8261 542.15 71.2078 542.15 66.7444C542.15 62.2811 545.542 58.6628 549.726 58.6628C553.911 58.6628 557.303 62.2811 557.303 66.7444Z" fill="#E2E2DF"/>
<path fill-rule="evenodd" clip-rule="evenodd" d="M549.726 73.9754C553.47 73.9754 556.505 70.738 556.505 66.7444C556.505 62.7509 553.47 59.5135 549.726 59.5135C545.983 59.5135 542.947 62.7509 542.947 66.7444C542.947 70.738 545.983 73.9754 549.726 73.9754ZM549.726 74.8261C553.911 74.8261 557.303 71.2078 557.303 66.7444C557.303 62.2811 553.911 58.6628 549.726 58.6628C545.542 58.6628 542.15 62.2811 542.15 66.7444C542.15 71.2078 545.542 74.8261 549.726 74.8261Z" fill="#1612E3"/>
<path d="M557.303 226.357C557.303 230.82 553.911 234.439 549.726 234.439C545.542 234.439 542.15 230.82 542.15 226.357C542.15 221.894 545.542 218.275 549.726 218.275C553.911 218.275 557.303 221.894 557.303 226.357Z" fill="#E2E2DF"/>
<path fill-rule="evenodd" clip-rule="evenodd" d="M549.726 233.588C553.47 233.588 556.505 230.351 556.505 226.357C556.505 222.363 553.47 219.126 549.726 219.126C545.983 219.126 542.947 222.363 542.947 226.357C542.947 230.351 545.983 233.588 549.726 233.588ZM549.726 234.439C553.911 234.439 557.303 230.82 557.303 226.357C557.303 221.894 553.911 218.275 549.726 218.275C545.542 218.275 542.15 221.894 542.15 226.357C542.15 230.82 545.542 234.439 549.726 234.439Z" fill="#1612E3"/>
<path d="M282.527 332.429C282.527 336.892 279.135 340.51 274.951 340.51C270.766 340.51 267.374 336.892 267.374 332.429C267.374 327.965 270.766 324.347 274.951 324.347C279.135 324.347 282.527 327.965 282.527 332.429Z" fill="#E2E2DF"/>
<path fill-rule="evenodd" clip-rule="evenodd" d="M274.951 339.66C278.695 339.66 281.73 336.422 281.73 332.429C281.73 328.435 278.695 325.198 274.951 325.198C271.207 325.198 268.172 328.435 268.172 332.429C268.172 336.422 271.207 339.66 274.951 339.66ZM274.951 340.51C279.135 340.51 282.527 336.892 282.527 332.429C282.527 327.965 279.135 324.347 274.951 324.347C270.766 324.347 267.374 327.965 267.374 332.429C267.374 336.892 270.766 340.51 274.951 340.51Z" fill="#1612E3"/>
<path d="M99.6799 384.454C99.6799 388.639 96.2878 392.031 92.1034 392.031C87.919 392.031 84.5269 388.639 84.5269 384.454C84.5269 380.27 87.919 376.878 92.1034 376.878C96.2878 376.878 99.6799 380.27 99.6799 384.454Z" fill="#E2E2DF"/>
<path fill-rule="evenodd" clip-rule="evenodd" d="M92.1034 391.233C95.8473 391.233 98.8824 388.198 98.8824 384.454C98.8824 380.71 95.8473 377.675 92.1034 377.675C88.3595 377.675 85.3244 380.71 85.3244 384.454C85.3244 388.198 88.3595 391.233 92.1034 391.233ZM92.1034 392.031C96.2878 392.031 99.6799 388.639 99.6799 384.454C99.6799 380.27 96.2878 376.878 92.1034 376.878C87.919 376.878 84.5269 380.27 84.5269 384.454C84.5269 388.639 87.919 392.031 92.1034 392.031Z" fill="#1612E3"/>
<path d="M238.078 147.056C238.078 151.24 234.46 154.632 229.996 154.632C225.533 154.632 221.915 151.24 221.915 147.056C221.915 142.871 225.533 139.479 229.996 139.479C234.46 139.479 238.078 142.871 238.078 147.056Z" fill="#E2E2DF"/>
<path fill-rule="evenodd" clip-rule="evenodd" d="M229.996 153.835C233.99 153.835 237.227 150.8 237.227 147.056C237.227 143.312 233.99 140.277 229.996 140.277C226.003 140.277 222.765 143.312 222.765 147.056C222.765 150.8 226.003 153.835 229.996 153.835ZM229.996 154.632C234.46 154.632 238.078 151.24 238.078 147.056C238.078 142.871 234.46 139.479 229.996 139.479C225.533 139.479 221.915 142.871 221.915 147.056C221.915 151.24 225.533 154.632 229.996 154.632Z" fill="#1612E3"/>
<path d="M98.6696 66.7444C98.6696 71.2078 95.0514 74.8261 90.588 74.8261C86.1246 74.8261 82.5063 71.2078 82.5063 66.7444C82.5063 62.2811 86.1246 58.6628 90.588 58.6628C95.0514 58.6628 98.6696 62.2811 98.6696 66.7444Z" fill="#E2E2DF"/>
<path fill-rule="evenodd" clip-rule="evenodd" d="M90.588 73.9754C94.5815 73.9754 97.8189 70.738 97.8189 66.7444C97.8189 62.7509 94.5815 59.5135 90.588 59.5135C86.5945 59.5135 83.357 62.7509 83.357 66.7444C83.357 70.738 86.5945 73.9754 90.588 73.9754ZM90.588 74.8261C95.0514 74.8261 98.6696 71.2078 98.6696 66.7444C98.6696 62.2811 95.0514 58.6628 90.588 58.6628C86.1246 58.6628 82.5063 62.2811 82.5063 66.7444C82.5063 71.2078 86.1246 74.8261 90.588 74.8261Z" fill="#1612E3"/>
<path d="M466.385 7.64738C466.385 11.8318 462.767 15.2239 458.303 15.2239C453.84 15.2239 450.222 11.8318 450.222 7.64738C450.222 3.46297 453.84 0.0708313 458.303 0.0708313C462.767 0.0708313 466.385 3.46297 466.385 7.64738Z" fill="#E2E2DF"/>
<path fill-rule="evenodd" clip-rule="evenodd" d="M368.082 14.3556C372.075 14.3556 375.313 11.3205 375.313 7.57655C375.313 3.8326 372.075 0.797531 368.082 0.797531C364.088 0.797531 360.851 3.8326 360.851 7.57655C360.851 11.3205 364.088 14.3556 368.082 14.3556ZM368.082 15.1531C372.545 15.1531 376.163 11.761 376.163 7.57655C376.163 3.39214 372.545 0 368.082 0C363.618 0 360 3.39214 360 7.57655C360 11.761 363.618 15.1531 368.082 15.1531Z" fill="#1612E3"/>
<path d="M98.6696 492.546C98.6696 496.731 95.0514 500.123 90.588 500.123C86.1246 500.123 82.5063 496.731 82.5063 492.546C82.5063 488.362 86.1246 484.97 90.588 484.97C95.0514 484.97 98.6696 488.362 98.6696 492.546Z" fill="#E2E2DF"/>
<path fill-rule="evenodd" clip-rule="evenodd" d="M90.588 499.325C94.5815 499.325 97.8189 496.29 97.8189 492.546C97.8189 488.802 94.5815 485.767 90.588 485.767C86.5945 485.767 83.357 488.802 83.357 492.546C83.357 496.29 86.5945 499.325 90.588 499.325ZM90.588 500.123C95.0514 500.123 98.6696 496.731 98.6696 492.546C98.6696 488.362 95.0514 484.97 90.588 484.97C86.1246 484.97 82.5063 488.362 82.5063 492.546C82.5063 496.731 86.1246 500.123 90.588 500.123Z" fill="#1612E3"/>
<path d="M654.283 491.536C654.283 495.721 650.665 499.113 646.201 499.113C641.738 499.113 638.12 495.721 638.12 491.536C638.12 487.352 641.738 483.96 646.201 483.96C650.665 483.96 654.283 487.352 654.283 491.536Z" fill="#E2E2DF"/>
<path d="M605.113 572.353C605.113 576.537 601.495 579.929 597.032 579.929C592.568 579.929 588.95 576.537 588.95 572.353C588.95 568.168 592.568 564.776 597.032 564.776C601.495 564.776 605.113 568.168 605.113 572.353Z" fill="#E2E2DF"/>
<path fill-rule="evenodd" clip-rule="evenodd" d="M646.201 498.315C650.195 498.315 653.432 495.28 653.432 491.536C653.432 487.792 650.195 484.757 646.201 484.757C642.208 484.757 638.97 487.792 638.97 491.536C638.97 495.28 642.208 498.315 646.201 498.315ZM646.201 499.113C650.665 499.113 654.283 495.721 654.283 491.536C654.283 487.352 650.665 483.96 646.201 483.96C641.738 483.96 638.12 487.352 638.12 491.536C638.12 495.721 641.738 499.113 646.201 499.113Z" fill="#1612E3"/>
<path d="M741.161 332.429C741.161 336.892 737.543 340.51 733.079 340.51C728.616 340.51 724.998 336.892 724.998 332.429C724.998 327.965 728.616 324.347 733.079 324.347C737.543 324.347 741.161 327.965 741.161 332.429Z" fill="#E2E2DF"/>
<path fill-rule="evenodd" clip-rule="evenodd" d="M733.079 339.66C737.073 339.66 740.31 336.422 740.31 332.429C740.31 328.435 737.073 325.198 733.079 325.198C729.086 325.198 725.848 328.435 725.848 332.429C725.848 336.422 729.086 339.66 733.079 339.66ZM733.079 340.51C737.543 340.51 741.161 336.892 741.161 332.429C741.161 327.965 737.543 324.347 733.079 324.347C728.616 324.347 724.998 327.965 724.998 332.429C724.998 336.892 728.616 340.51 733.079 340.51Z" fill="#1612E3"/>
<path d="M602.763 307.679C602.763 311.863 599.371 315.255 595.186 315.255C591.002 315.255 587.61 311.863 587.61 307.679C587.61 303.494 591.002 300.102 595.186 300.102C599.371 300.102 602.763 303.494 602.763 307.679Z" fill="#E2E2DF"/>
<path fill-rule="evenodd" clip-rule="evenodd" d="M595.186 314.458C598.93 314.458 601.965 311.423 601.965 307.679C601.965 303.935 598.93 300.9 595.186 300.9C591.442 300.9 588.407 303.935 588.407 307.679C588.407 311.423 591.442 314.458 595.186 314.458ZM595.186 315.255C599.371 315.255 602.763 311.863 602.763 307.679C602.763 303.494 599.371 300.102 595.186 300.102C591.002 300.102 587.61 303.494 587.61 307.679C587.61 311.863 591.002 315.255 595.186 315.255Z" fill="#1612E3"/>
<path d="M925.018 66.7444C925.018 71.2078 921.4 74.8261 916.937 74.8261C912.473 74.8261 908.855 71.2078 908.855 66.7444C908.855 62.2811 912.473 58.6628 916.937 58.6628C921.4 58.6628 925.018 62.2811 925.018 66.7444Z" fill="#E2E2DF"/>
<path fill-rule="evenodd" clip-rule="evenodd" d="M916.937 73.9754C920.93 73.9754 924.168 70.738 924.168 66.7444C924.168 62.7509 920.93 59.5135 916.937 59.5135C912.943 59.5135 909.706 62.7509 909.706 66.7444C909.706 70.738 912.943 73.9754 916.937 73.9754ZM916.937 74.8261C921.4 74.8261 925.018 71.2078 925.018 66.7444C925.018 62.2811 921.4 58.6628 916.937 58.6628C912.473 58.6628 908.855 62.2811 908.855 66.7444C908.855 71.2078 912.473 74.8261 916.937 74.8261Z" fill="#1612E3"/>
<path d="M969.467 147.056C969.467 151.24 966.075 154.632 961.891 154.632C957.706 154.632 954.314 151.24 954.314 147.056C954.314 142.871 957.706 139.479 961.891 139.479C966.075 139.479 969.467 142.871 969.467 147.056Z" fill="#E2E2DF"/>
<path fill-rule="evenodd" clip-rule="evenodd" d="M961.891 153.835C965.635 153.835 968.67 150.8 968.67 147.056C968.67 143.312 965.635 140.277 961.891 140.277C958.147 140.277 955.112 143.312 955.112 147.056C955.112 150.8 958.147 153.835 961.891 153.835ZM961.891 154.632C966.075 154.632 969.467 151.24 969.467 147.056C969.467 142.871 966.075 139.479 961.891 139.479C957.706 139.479 954.314 142.871 954.314 147.056C954.314 151.24 957.706 154.632 961.891 154.632Z" fill="#1612E3"/>
<path d="M1062.41 312.73C1062.41 316.914 1059.01 320.306 1054.83 320.306C1050.65 320.306 1047.25 316.914 1047.25 312.73C1047.25 308.545 1050.65 305.153 1054.83 305.153C1059.01 305.153 1062.41 308.545 1062.41 312.73Z" fill="#E2E2DF"/>
<path fill-rule="evenodd" clip-rule="evenodd" d="M1054.83 319.509C1058.57 319.509 1061.61 316.474 1061.61 312.73C1061.61 308.986 1058.57 305.951 1054.83 305.951C1051.09 305.951 1048.05 308.986 1048.05 312.73C1048.05 316.474 1051.09 319.509 1054.83 319.509ZM1054.83 320.306C1059.01 320.306 1062.41 316.914 1062.41 312.73C1062.41 308.545 1059.01 305.153 1054.83 305.153C1050.65 305.153 1047.25 308.545 1047.25 312.73C1047.25 316.914 1050.65 320.306 1054.83 320.306Z" fill="#1612E3"/>
<path d="M1061.4 411.73C1061.4 415.914 1058 419.306 1053.82 419.306C1049.64 419.306 1046.24 415.914 1046.24 411.73C1046.24 407.545 1049.64 404.153 1053.82 404.153C1058 404.153 1061.4 407.545 1061.4 411.73Z" fill="#E2E2DF"/>
<path fill-rule="evenodd" clip-rule="evenodd" d="M1053.82 418.509C1057.56 418.509 1060.6 415.474 1060.6 411.73C1060.6 407.986 1057.56 404.951 1053.82 404.951C1050.08 404.951 1047.04 407.986 1047.04 411.73C1047.04 415.474 1050.08 418.509 1053.82 418.509ZM1053.82 419.306C1058 419.306 1061.4 415.914 1061.4 411.73C1061.4 407.545 1058 404.153 1053.82 404.153C1049.64 404.153 1046.24 407.545 1046.24 411.73C1046.24 415.914 1049.64 419.306 1053.82 419.306Z" fill="#1612E3"/>
<path d="M1108.88 225.852C1108.88 230.036 1105.26 233.428 1100.79 233.428C1096.33 233.428 1092.71 230.036 1092.71 225.852C1092.71 221.668 1096.33 218.275 1100.79 218.275C1105.26 218.275 1108.88 221.668 1108.88 225.852Z" fill="#E2E2DF"/>
<path fill-rule="evenodd" clip-rule="evenodd" d="M1100.79 232.631C1104.79 232.631 1108.03 229.596 1108.03 225.852C1108.03 222.108 1104.79 219.073 1100.79 219.073C1096.8 219.073 1093.56 222.108 1093.56 225.852C1093.56 229.596 1096.8 232.631 1100.79 232.631ZM1100.79 233.428C1105.26 233.428 1108.88 230.036 1108.88 225.852C1108.88 221.668 1105.26 218.275 1100.79 218.275C1096.33 218.275 1092.71 221.668 1092.71 225.852C1092.71 230.036 1096.33 233.428 1100.79 233.428Z" fill="#1612E3"/>
<path fill-rule="evenodd" clip-rule="evenodd" d="M504 635.211C507.953 635.211 511.158 632.206 511.158 628.5C511.158 624.794 507.953 621.789 504 621.789C500.047 621.789 496.842 624.794 496.842 628.5C496.842 632.206 500.047 635.211 504 635.211ZM504 636C508.418 636 512 632.642 512 628.5C512 624.358 508.418 621 504 621C499.582 621 496 624.358 496 628.5C496 632.642 499.582 636 504 636Z" fill="#1612E3"/>
<mask id="path-138-inside-1" fill="white">
<path fill-rule="evenodd" clip-rule="evenodd" d="M505 570V621H504V570H505Z"/>
</mask>
<path d="M505 621V622H506V621H505ZM505 570H506V569H505V570ZM504 621H503V622H504V621ZM504 570V569H503V570H504ZM506 621V570H504V621H506ZM504 622H505V620H504V622ZM503 570V621H505V570H503ZM505 569H504V571H505V569Z" fill="#1612E3" mask="url(#path-138-inside-1)"/>
<path d="M182.999 384.958L183.496 384.013L185.231 385.007L184.734 385.953L182.999 384.958Z" fill="#E2E2DF"/>
<path d="M182.551 386.131L182 385.03L183.731 384.028L184.282 385.128L182.551 386.131Z" fill="#E2E2DF"/>
<path d="M413.5 147.5L458 173.5" stroke="#1612E3" stroke-width="0.8"/>
</svg>
