<svg width="700" height="377" viewBox="0 0 700 377" fill="none" xmlns="http://www.w3.org/2000/svg">
<path fill-rule="evenodd" clip-rule="evenodd" d="M187.963 166.687L142.333 140.343L142.734 139.648L188.765 166.224V219.607L142.534 246.298L96.5034 219.723L96.9043 219.028L142.534 245.372L187.963 219.144V166.687Z" fill="#1612E3"/>
<path fill-rule="evenodd" clip-rule="evenodd" d="M188.237 60.1528L234.268 86.7285L233.867 87.4229L188.237 61.0787L142.608 87.4229L142.207 86.7285L188.237 60.1528ZM188.037 166.108L233.867 139.648L234.268 140.343L188.438 166.803L188.037 166.108Z" fill="#1612E3"/>
<path fill-rule="evenodd" clip-rule="evenodd" d="M278.769 166.803L232.939 140.343L233.34 139.648L279.17 166.108L278.769 166.803ZM233.141 245.37L278.915 218.628L279.32 219.321L233.138 246.301L188.308 219.72L188.717 219.031L233.141 245.37Z" fill="#1612E3"/>
<path fill-rule="evenodd" clip-rule="evenodd" d="M97.1575 166.803L51.3275 140.343L51.7284 139.648L97.5584 166.108L97.1575 166.803ZM51.5295 245.37L97.3038 218.628L97.7082 219.321L51.5265 246.301L6.69629 219.72L7.10522 219.031L51.5295 245.37Z" fill="#1612E3"/>
<path fill-rule="evenodd" clip-rule="evenodd" d="M279.244 60.3843V7.69592H280.046V60.8473L234.015 87.4229L233.614 86.7285L279.244 60.3843Z" fill="#1612E3"/>
<path fill-rule="evenodd" clip-rule="evenodd" d="M324.673 87.3073L279.043 60.9631L279.444 60.2687L325.474 86.8443V140.227L279.444 166.803L279.043 166.108L324.673 139.764V87.3073ZM234.215 87.0758V140.397H233.414V87.0758H234.215Z" fill="#1612E3"/>
<path fill-rule="evenodd" clip-rule="evenodd" d="M369.975 165.885L324.346 139.541L324.747 138.847L370.777 165.422V218.805L324.547 245.496L278.716 219.207V166.055H279.518V218.742L324.546 244.571L369.975 218.342V165.885Z" fill="#1612E3"/>
<path fill-rule="evenodd" clip-rule="evenodd" d="M461.382 165.885L415.753 139.541L416.154 138.847L462.184 165.422V218.805L415.953 245.497L369.923 218.921L370.324 218.226L415.953 244.571L461.382 218.342V165.885Z" fill="#1612E3"/>
<path fill-rule="evenodd" clip-rule="evenodd" d="M415.753 87.022L369.923 60.5621L370.324 59.8677L416.154 86.3276L415.753 87.022ZM369.797 165.307L415.627 138.847L416.028 139.541L370.198 166.001L369.797 165.307Z" fill="#1612E3"/>
<path fill-rule="evenodd" clip-rule="evenodd" d="M415.426 297.315V244.633H416.228V297.79L369.716 323.27L324.019 296.58V245.033H324.821V296.12L369.729 322.349L415.426 297.315Z" fill="#1612E3"/>
<path fill-rule="evenodd" clip-rule="evenodd" d="M507.234 88.1099L459.854 60.9637L460.252 60.2679L508.036 87.6452V139.425L462.005 166.001L461.604 165.307L507.234 138.962V88.1099ZM416.228 86.2739V139.194H415.426V86.2739H416.228Z" fill="#1612E3"/>
<path fill-rule="evenodd" clip-rule="evenodd" d="M552.79 165.885L507.16 139.541L507.561 138.847L553.591 165.422V218.805L507.36 245.497L461.33 218.921L461.731 218.226L507.36 244.571L552.79 218.342V165.885Z" fill="#1612E3"/>
<path fill-rule="evenodd" clip-rule="evenodd" d="M506.833 297.953V245.034H507.635V297.953H506.833ZM416.025 296.803L462.531 323.263L462.134 323.96L415.629 297.5L416.025 296.803Z" fill="#1612E3"/>
<path fill-rule="evenodd" clip-rule="evenodd" d="M552.663 61.1861V8.49768H553.465V61.649L507.435 88.2247L507.034 87.5303L552.663 61.1861Z" fill="#1612E3"/>
<path fill-rule="evenodd" clip-rule="evenodd" d="M598.367 87.3073L552.737 60.9631L553.138 60.2687L599.168 86.8443V139.996H598.367V87.3073Z" fill="#1612E3"/>
<path fill-rule="evenodd" clip-rule="evenodd" d="M644.197 218.342V165.654H644.998V218.805L598.767 245.496L552.737 218.921L553.138 218.226L598.767 244.571L644.197 218.342Z" fill="#1612E3"/>
<path fill-rule="evenodd" clip-rule="evenodd" d="M462.733 323.211V376.13H461.931V323.211H462.733Z" fill="#1612E3"/>
<path fill-rule="evenodd" clip-rule="evenodd" d="M97.9068 165.654V218.574H97.105V165.654H97.9068Z" fill="#1612E3"/>
<path fill-rule="evenodd" clip-rule="evenodd" d="M644 166.31L689.601 140L690 140.69L644.399 167L644 166.31Z" fill="#1612E3"/>
<path d="M82 203H112V233H82V203Z" fill="#E2E2DF"/>
<path d="M174 154H203V183H174V154Z" fill="#E2E2DF"/>
<path d="M311 130H340V160H311V130Z" fill="#E2E2DF"/>
<path d="M356 201H385V231H356V201Z" fill="#E2E2DF"/>
<path d="M447 154H477V183H447V154Z" fill="#E2E2DF"/>
<path d="M494 231H523V263H494V231Z" fill="#E2E2DF"/>
<path d="M584 229H614V261H584V229Z" fill="#E2E2DF"/>
<path d="M626 147H656V179H626V147Z" fill="#E2E2DF"/>
<path d="M220 231H250V260H220V231Z" fill="#E2E2DF"/>
<path d="M97.7945 230C95.7233 230 93.8644 229.555 92.218 228.665C90.5982 227.776 89.3235 226.533 88.3941 224.936C87.4647 223.314 87 221.495 87 219.48C87 217.465 87.4647 215.66 88.3941 214.064C89.3235 212.467 90.5982 211.224 92.218 210.335C93.8644 209.445 95.7233 209 97.7945 209C99.6003 209 101.207 209.353 102.614 210.06C104.048 210.74 105.177 211.748 106 213.082L103.889 214.495C103.198 213.475 102.322 212.716 101.26 212.219C100.198 211.695 99.0426 211.434 97.7945 211.434C96.2809 211.434 94.9133 211.774 93.6918 212.454C92.4969 213.108 91.5542 214.05 90.8637 215.28C90.1999 216.51 89.8679 217.91 89.8679 219.48C89.8679 221.077 90.1999 222.49 90.8637 223.72C91.5542 224.923 92.4969 225.865 93.6918 226.546C94.9133 227.2 96.2809 227.527 97.7945 227.527C99.0426 227.527 100.198 227.279 101.26 226.781C102.322 226.284 103.198 225.525 103.889 224.505L106 225.918C105.177 227.252 104.048 228.273 102.614 228.979C101.18 229.66 99.5737 230 97.7945 230Z" fill="black"/>
<path d="M197 161.395H189.362V179H186.638V161.395H179V159H197V161.395Z" fill="black"/>
<path d="M236.169 236C238.02 236 239.696 236.438 241.197 237.315C242.698 238.166 243.874 239.378 244.724 240.95C245.575 242.523 246 244.315 246 246.326C246 248.363 245.575 250.168 244.724 251.74C243.874 253.313 242.698 254.538 241.197 255.414C239.721 256.265 238.045 256.691 236.169 256.691C234.568 256.691 233.117 256.355 231.816 255.685C230.54 254.989 229.49 253.983 228.664 252.669V264H226V236.155H228.552V240.177C229.352 238.836 230.403 237.805 231.704 237.083C233.029 236.361 234.518 236 236.169 236ZM235.981 254.254C237.357 254.254 238.608 253.932 239.734 253.287C240.859 252.617 241.735 251.676 242.36 250.464C243.011 249.252 243.336 247.873 243.336 246.326C243.336 244.779 243.011 243.413 242.36 242.227C241.735 241.015 240.859 240.074 239.734 239.403C238.608 238.733 237.357 238.398 235.981 238.398C234.58 238.398 233.317 238.733 232.191 239.403C231.091 240.074 230.215 241.015 229.565 242.227C228.939 243.413 228.627 244.779 228.627 246.326C228.627 247.873 228.939 249.252 229.565 250.464C230.215 251.676 231.091 252.617 232.191 253.287C233.317 253.932 234.58 254.254 235.981 254.254Z" fill="black"/>
<path d="M336 133L325.777 155.748C324.948 157.653 323.989 159.005 322.901 159.803C321.813 160.601 320.504 161 318.975 161C317.991 161 317.071 160.846 316.216 160.537C315.36 160.228 314.622 159.764 314 159.146L315.283 157.099C316.319 158.129 317.563 158.644 319.014 158.644C319.947 158.644 320.737 158.387 321.385 157.872C322.059 157.357 322.681 156.481 323.251 155.246L324.145 153.276L315.011 133H317.887L325.583 150.263L333.279 133H336Z" fill="black"/>
<path d="M370.33 217.658H365.725V227H363V206H365.725V215.222H370.369L377.469 206H380.424L372.48 216.181L381 227H377.776L370.33 217.658Z" fill="black"/>
<path d="M471 161.395H463.362V179H460.638V161.395H453V159H471V161.395Z" fill="black"/>
<path d="M519 233L508.777 255.748C507.948 257.653 506.989 259.005 505.901 259.803C504.813 260.601 503.504 261 501.975 261C500.991 261 500.071 260.846 499.216 260.537C498.36 260.228 497.622 259.764 497 259.146L498.283 257.099C499.319 258.129 500.563 258.644 502.014 258.644C502.947 258.644 503.737 258.387 504.385 257.872C505.059 257.357 505.681 256.481 506.251 255.246L507.145 253.276L498.011 233H500.887L508.583 250.263L516.279 233H519Z" fill="black"/>
<path d="M600.169 233C602.02 233 603.696 233.438 605.197 234.315C606.698 235.166 607.874 236.378 608.724 237.95C609.575 239.523 610 241.315 610 243.326C610 245.363 609.575 247.168 608.724 248.74C607.874 250.313 606.698 251.538 605.197 252.414C603.721 253.265 602.045 253.691 600.169 253.691C598.568 253.691 597.117 253.355 595.816 252.685C594.54 251.989 593.49 250.983 592.664 249.669V261H590V233.155H592.552V237.177C593.352 235.836 594.403 234.805 595.704 234.083C597.029 233.361 598.518 233 600.169 233ZM599.981 251.254C601.357 251.254 602.608 250.932 603.734 250.287C604.859 249.617 605.735 248.676 606.36 247.464C607.011 246.252 607.336 244.873 607.336 243.326C607.336 241.779 607.011 240.413 606.36 239.227C605.735 238.015 604.859 237.074 603.734 236.403C602.608 235.733 601.357 235.398 599.981 235.398C598.58 235.398 597.317 235.733 596.191 236.403C595.091 237.074 594.215 238.015 593.565 239.227C592.939 240.413 592.627 241.779 592.627 243.326C592.627 244.873 592.939 246.252 593.565 247.464C594.215 248.676 595.091 249.617 596.191 250.287C597.317 250.932 598.58 251.254 599.981 251.254Z" fill="black"/>
<path d="M643.789 153C646.436 153 648.466 153.68 649.88 155.041C651.293 156.376 652 158.364 652 161.007V173.804H649.379V170.585C648.762 171.658 647.85 172.495 646.642 173.097C645.46 173.699 644.046 174 642.401 174C640.14 174 638.341 173.45 637.005 172.351C635.668 171.252 635 169.8 635 167.994C635 166.241 635.617 164.828 636.85 163.755C638.11 162.682 640.101 162.146 642.825 162.146H649.263V160.89C649.263 159.11 648.775 157.763 647.798 156.847C646.822 155.905 645.395 155.434 643.519 155.434C642.234 155.434 641.001 155.656 639.819 156.101C638.636 156.52 637.621 157.108 636.773 157.867L635.54 155.787C636.568 154.897 637.801 154.217 639.24 153.746C640.68 153.249 642.196 153 643.789 153ZM642.825 171.802C644.367 171.802 645.691 171.449 646.796 170.742C647.901 170.009 648.723 168.963 649.263 167.602V164.226H642.902C639.433 164.226 637.698 165.456 637.698 167.916C637.698 169.12 638.148 170.075 639.048 170.781C639.947 171.462 641.206 171.802 642.825 171.802Z" fill="black"/>
<path d="M378 60.5C378 64.6421 374.642 68 370.5 68C366.358 68 363 64.6421 363 60.5C363 56.3579 366.358 53 370.5 53C374.642 53 378 56.3579 378 60.5Z" fill="#E2E2DF"/>
<path fill-rule="evenodd" clip-rule="evenodd" d="M370.5 67.2105C374.206 67.2105 377.211 64.2061 377.211 60.5C377.211 56.7939 374.206 53.7895 370.5 53.7895C366.794 53.7895 363.789 56.7939 363.789 60.5C363.789 64.2061 366.794 67.2105 370.5 67.2105ZM370.5 68C374.642 68 378 64.6421 378 60.5C378 56.3579 374.642 53 370.5 53C366.358 53 363 56.3579 363 60.5C363 64.6421 366.358 68 370.5 68Z" fill="#1612E3"/>
<path d="M242 139.5C242 143.642 238.642 147 234.5 147C230.358 147 227 143.642 227 139.5C227 135.358 230.358 132 234.5 132C238.642 132 242 135.358 242 139.5Z" fill="#E2E2DF"/>
<path fill-rule="evenodd" clip-rule="evenodd" d="M234.5 146.211C238.206 146.211 241.211 143.206 241.211 139.5C241.211 135.794 238.206 132.789 234.5 132.789C230.794 132.789 227.789 135.794 227.789 139.5C227.789 143.206 230.794 146.211 234.5 146.211ZM234.5 147C238.642 147 242 143.642 242 139.5C242 135.358 238.642 132 234.5 132C230.358 132 227 135.358 227 139.5C227 143.642 230.358 147 234.5 147Z" fill="#1612E3"/>
<path d="M332 296C332 300.418 328.642 304 324.5 304C320.358 304 317 300.418 317 296C317 291.582 320.358 288 324.5 288C328.642 288 332 291.582 332 296Z" fill="#E2E2DF"/>
<path fill-rule="evenodd" clip-rule="evenodd" d="M324.5 303.158C328.206 303.158 331.211 299.953 331.211 296C331.211 292.047 328.206 288.842 324.5 288.842C320.794 288.842 317.789 292.047 317.789 296C317.789 299.953 320.794 303.158 324.5 303.158ZM324.5 304C328.642 304 332 300.418 332 296C332 291.582 328.642 288 324.5 288C320.358 288 317 291.582 317 296C317 300.418 320.358 304 324.5 304Z" fill="#1612E3"/>
<path d="M15 218.5C15 222.642 11.6421 226 7.5 226C3.35786 226 0 222.642 0 218.5C0 214.358 3.35786 211 7.5 211C11.6421 211 15 214.358 15 218.5Z" fill="#E2E2DF"/>
<path fill-rule="evenodd" clip-rule="evenodd" d="M7.5 225.211C11.2061 225.211 14.2105 222.206 14.2105 218.5C14.2105 214.794 11.2061 211.789 7.5 211.789C3.79388 211.789 0.789474 214.794 0.789474 218.5C0.789474 222.206 3.79388 225.211 7.5 225.211ZM7.5 226C11.6421 226 15 222.642 15 218.5C15 214.358 11.6421 211 7.5 211C3.35786 211 0 214.358 0 218.5C0 222.642 3.35786 226 7.5 226Z" fill="#1612E3"/>
<path d="M561 60.5C561 64.6421 557.642 68 553.5 68C549.358 68 546 64.6421 546 60.5C546 56.3579 549.358 53 553.5 53C557.642 53 561 56.3579 561 60.5Z" fill="#E2E2DF"/>
<path fill-rule="evenodd" clip-rule="evenodd" d="M553.5 67.2105C557.206 67.2105 560.211 64.2061 560.211 60.5C560.211 56.7939 557.206 53.7895 553.5 53.7895C549.794 53.7895 546.789 56.7939 546.789 60.5C546.789 64.2061 549.794 67.2105 553.5 67.2105ZM553.5 68C557.642 68 561 64.6421 561 60.5C561 56.3579 557.642 53 553.5 53C549.358 53 546 56.3579 546 60.5C546 64.6421 549.358 68 553.5 68Z" fill="#1612E3"/>
<path d="M288 7.5C288 11.6421 284.418 15 280 15C275.582 15 272 11.6421 272 7.5C272 3.35786 275.582 0 280 0C284.418 0 288 3.35786 288 7.5Z" fill="#E2E2DF"/>
<path fill-rule="evenodd" clip-rule="evenodd" d="M280 14.2105C283.953 14.2105 287.158 11.2061 287.158 7.5C287.158 3.79388 283.953 0.789474 280 0.789474C276.047 0.789474 272.842 3.79388 272.842 7.5C272.842 11.2061 276.047 14.2105 280 14.2105ZM280 15C284.418 15 288 11.6421 288 7.5C288 3.35786 284.418 0 280 0C275.582 0 272 3.35786 272 7.5C272 11.6421 275.582 15 280 15Z" fill="#1612E3"/>
<path d="M470 323.5C470 327.642 466.418 331 462 331C457.582 331 454 327.642 454 323.5C454 319.358 457.582 316 462 316C466.418 316 470 319.358 470 323.5Z" fill="#E2E2DF"/>
<path fill-rule="evenodd" clip-rule="evenodd" d="M462 330.211C465.953 330.211 469.158 327.206 469.158 323.5C469.158 319.794 465.953 316.789 462 316.789C458.047 316.789 454.842 319.794 454.842 323.5C454.842 327.206 458.047 330.211 462 330.211ZM462 331C466.418 331 470 327.642 470 323.5C470 319.358 466.418 316 462 316C457.582 316 454 319.358 454 323.5C454 327.642 457.582 331 462 331Z" fill="#1612E3"/>
<path d="M700 138.5C700 142.642 696.418 146 692 146C687.582 146 684 142.642 684 138.5C684 134.358 687.582 131 692 131C696.418 131 700 134.358 700 138.5Z" fill="#E2E2DF"/>
<path fill-rule="evenodd" clip-rule="evenodd" d="M692 145.211C695.953 145.211 699.158 142.206 699.158 138.5C699.158 134.794 695.953 131.789 692 131.789C688.047 131.789 684.842 134.794 684.842 138.5C684.842 142.206 688.047 145.211 692 145.211ZM692 146C696.418 146 700 142.642 700 138.5C700 134.358 696.418 131 692 131C687.582 131 684 134.358 684 138.5C684 142.642 687.582 146 692 146Z" fill="#1612E3"/>
</svg>
