<svg width="683" height="399" viewBox="0 0 683 399" fill="none" xmlns="http://www.w3.org/2000/svg">
<path d="M162.633 148.3L208.463 174.76V227.68L162.633 254.14L116.803 227.68" stroke="#1612E3"/>
<path d="M254.167 95.3799L208.337 68.9199L162.507 95.3799M254.167 148.3L208.337 174.76" stroke="#1612E3"/>
<path d="M253.239 148.3L299.069 174.76M299.217 227.279L253.239 254.14L208.611 227.68" stroke="#1612E3"/>
<path d="M71.6272 148.3L117.457 174.76M117.605 227.279L71.6272 254.14L27 227.68" stroke="#1612E3"/>
<path d="M299.744 16V68.9199L253.914 95.3798" stroke="#1612E3"/>
<path d="M299.343 68.9199L345.173 95.3799V148.3L299.343 174.76M253.914 148.701V95.3799" stroke="#1612E3"/>
<path d="M344.646 147.498L390.476 173.958V226.878L344.646 253.338L299.217 227.279V174.359" stroke="#1612E3"/>
<path d="M436.053 147.498L481.883 173.958V226.878L436.053 253.338L390.223 226.878" stroke="#1612E3"/>
<path d="M390.223 68.519L436.053 94.979M435.926 147.498L390.096 173.958" stroke="#1612E3"/>
<path d="M435.926 252.937V305.856L389.822 331.114L344.519 304.654V253.337" stroke="#1612E3"/>
<path d="M480.153 68.9199L527.734 96.1817V147.498L481.904 173.958M435.926 147.498V94.578" stroke="#1612E3"/>
<path d="M527.46 147.498L573.29 173.958V226.878L527.46 253.338L481.63 226.878" stroke="#1612E3"/>
<path d="M527.333 253.337V306.257M482.432 331.915L435.926 305.455" stroke="#1612E3"/>
<path d="M573.163 16.8018V69.7216L527.333 96.1816" stroke="#1612E3"/>
<path d="M573.037 68.9199L618.867 95.3799V148.3" stroke="#1612E3"/>
<path d="M664.697 173.958V226.878L618.867 253.338L573.037 226.878" stroke="#1612E3"/>
<path d="M482.432 384.435V331.515" stroke="#1612E3"/>
<path d="M117.605 226.878V173.958" stroke="#1612E3"/>
<rect x="104" y="162" width="30" height="30" fill="#E2E2DF"/>
<rect x="324" y="86" width="30" height="30" fill="#E2E2DF"/>
<rect x="376" y="162" width="30" height="30" fill="#E2E2DF"/>
<rect x="285" y="214" width="30" height="30" fill="#E2E2DF"/>
<rect x="239" y="132" width="30" height="30" fill="#E2E2DF"/>
<rect x="192" y="210" width="30" height="30" fill="#E2E2DF"/>
<path d="M22.92 206.96V228H20.08V209.48H6.88V228H4.04V206.96H22.92Z" fill="black"/>
<path d="M118.88 165.8C120.853 165.8 122.64 166.253 124.24 167.16C125.84 168.04 127.093 169.293 128 170.92C128.907 172.547 129.36 174.4 129.36 176.48C129.36 178.587 128.907 180.453 128 182.08C127.093 183.707 125.84 184.973 124.24 185.88C122.667 186.76 120.88 187.2 118.88 187.2C117.173 187.2 115.627 186.853 114.24 186.16C112.88 185.44 111.76 184.4 110.88 183.04V194.76H108.04V165.96H110.76V170.12C111.613 168.733 112.733 167.667 114.12 166.92C115.533 166.173 117.12 165.8 118.88 165.8ZM118.68 184.68C120.147 184.68 121.48 184.347 122.68 183.68C123.88 182.987 124.813 182.013 125.48 180.76C126.173 179.507 126.52 178.08 126.52 176.48C126.52 174.88 126.173 173.467 125.48 172.24C124.813 170.987 123.88 170.013 122.68 169.32C121.48 168.627 120.147 168.28 118.68 168.28C117.187 168.28 115.84 168.627 114.64 169.32C113.467 170.013 112.533 170.987 111.84 172.24C111.173 173.467 110.84 174.88 110.84 176.48C110.84 178.08 111.173 179.507 111.84 180.76C112.533 182.013 113.467 182.987 114.64 183.68C115.84 184.347 117.187 184.68 118.68 184.68Z" fill="black"/>
<path d="M198.04 215.96H200.88V232.68L214.92 215.96H217.44V237H214.6V220.28L200.6 237H198.04V215.96Z" fill="black"/>
<path d="M265.56 133.96V155H262.96V138.36L254.44 152.44H253.16L244.64 138.32V155H242.04V133.96H244.92L253.84 149.12L262.92 133.96H265.56Z" fill="black"/>
<path d="M310.44 229.36H292.84C293 231.547 293.84 233.32 295.36 234.68C296.88 236.013 298.8 236.68 301.12 236.68C302.427 236.68 303.627 236.453 304.72 236C305.813 235.52 306.76 234.827 307.56 233.92L309.16 235.76C308.227 236.88 307.053 237.733 305.64 238.32C304.253 238.907 302.72 239.2 301.04 239.2C298.88 239.2 296.96 238.747 295.28 237.84C293.627 236.907 292.333 235.627 291.4 234C290.467 232.373 290 230.533 290 228.48C290 226.427 290.44 224.587 291.32 222.96C292.227 221.333 293.453 220.067 295 219.16C296.573 218.253 298.333 217.8 300.28 217.8C302.227 217.8 303.973 218.253 305.52 219.16C307.067 220.067 308.28 221.333 309.16 222.96C310.04 224.56 310.48 226.4 310.48 228.48L310.44 229.36ZM300.28 220.24C298.253 220.24 296.547 220.893 295.16 222.2C293.8 223.48 293.027 225.16 292.84 227.24H307.76C307.573 225.16 306.787 223.48 305.4 222.2C304.04 220.893 302.333 220.24 300.28 220.24Z" fill="black"/>
<path d="M400.44 174.36H382.84C383 176.547 383.84 178.32 385.36 179.68C386.88 181.013 388.8 181.68 391.12 181.68C392.427 181.68 393.627 181.453 394.72 181C395.813 180.52 396.76 179.827 397.56 178.92L399.16 180.76C398.227 181.88 397.053 182.733 395.64 183.32C394.253 183.907 392.72 184.2 391.04 184.2C388.88 184.2 386.96 183.747 385.28 182.84C383.627 181.907 382.333 180.627 381.4 179C380.467 177.373 380 175.533 380 173.48C380 171.427 380.44 169.587 381.32 167.96C382.227 166.333 383.453 165.067 385 164.16C386.573 163.253 388.333 162.8 390.28 162.8C392.227 162.8 393.973 163.253 395.52 164.16C397.067 165.067 398.28 166.333 399.16 167.96C400.04 169.56 400.48 171.4 400.48 173.48L400.44 174.36ZM390.28 165.24C388.253 165.24 386.547 165.893 385.16 167.2C383.8 168.48 383.027 170.16 382.84 172.24H397.76C397.573 170.16 396.787 168.48 395.4 167.2C394.04 165.893 392.333 165.24 390.28 165.24Z" fill="black"/>
<path d="M336.04 86.96H338.88V96.28H352.12V86.96H354.96V108H352.12V98.72H338.88V108H336.04V86.96Z" fill="black"/>
<rect x="467" y="213" width="30" height="30" fill="#E2E2DF"/>
<path d="M473.04 215.96H475.88V225.28H489.12V215.96H491.96V237H489.12V227.72H475.88V237H473.04V215.96Z" fill="black"/>
<rect x="557" y="159" width="30" height="30" fill="#E2E2DF"/>
<path d="M563.04 162.96H565.88V179.68L579.92 162.96H582.44V184H579.6V167.28L565.6 184H563.04V162.96Z" fill="black"/>
<rect x="653" y="207" width="30" height="30" fill="#E2E2DF"/>
<path d="M674.44 223.36H656.84C657 225.547 657.84 227.32 659.36 228.68C660.88 230.013 662.8 230.68 665.12 230.68C666.427 230.68 667.627 230.453 668.72 230C669.813 229.52 670.76 228.827 671.56 227.92L673.16 229.76C672.227 230.88 671.053 231.733 669.64 232.32C668.253 232.907 666.72 233.2 665.04 233.2C662.88 233.2 660.96 232.747 659.28 231.84C657.627 230.907 656.333 229.627 655.4 228C654.467 226.373 654 224.533 654 222.48C654 220.427 654.44 218.587 655.32 216.96C656.227 215.333 657.453 214.067 659 213.16C660.573 212.253 662.333 211.8 664.28 211.8C666.227 211.8 667.973 212.253 669.52 213.16C671.067 214.067 672.28 215.333 673.16 216.96C674.04 218.56 674.48 220.4 674.48 222.48L674.44 223.36ZM664.28 214.24C662.253 214.24 660.547 214.893 659.16 216.2C657.8 217.48 657.027 219.16 656.84 221.24H671.76C671.573 219.16 670.787 217.48 669.4 216.2C668.04 214.893 666.333 214.24 664.28 214.24Z" fill="black"/>
<path fill-rule="evenodd" clip-rule="evenodd" d="M482 398.211C485.953 398.211 489.158 395.206 489.158 391.5C489.158 387.794 485.953 384.789 482 384.789C478.047 384.789 474.842 387.794 474.842 391.5C474.842 395.206 478.047 398.211 482 398.211ZM482 399C486.418 399 490 395.642 490 391.5C490 387.358 486.418 384 482 384C477.582 384 474 387.358 474 391.5C474 395.642 477.582 399 482 399Z" fill="#1612E3"/>
<circle cx="345" cy="304" r="7.65" fill="#E2E2DF" stroke="#1612E3" stroke-width="0.7"/>
<circle cx="436" cy="148" r="7.65" fill="#E2E2DF" stroke="#1612E3" stroke-width="0.7"/>
<circle cx="619" cy="96" r="7.65" fill="#E2E2DF" stroke="#1612E3" stroke-width="0.7"/>
<circle cx="300" cy="8" r="7.65" fill="#E2E2DF" stroke="#1612E3" stroke-width="0.7"/>
<circle cx="209" cy="175" r="7.65" fill="#E2E2DF" stroke="#1612E3" stroke-width="0.7"/>
<circle cx="118" cy="228" r="7.65" fill="#E2E2DF" stroke="#1612E3" stroke-width="0.7"/>
<circle cx="665" cy="170" r="7.65" fill="#E2E2DF" stroke="#1612E3" stroke-width="0.7"/>
</svg>
