<svg width="1197" height="1197" viewBox="0 0 1197 1197" fill="none" xmlns="http://www.w3.org/2000/svg">
<path d="M1170.5 599C1170.5 606.617 1166.59 614.111 1159.01 621.413C1151.43 628.716 1140.23 635.784 1125.76 642.532C1096.82 656.026 1054.91 668.191 1003.08 678.413C899.423 698.854 756.207 711.5 598 711.5C439.793 711.5 296.577 698.854 192.925 678.413C141.094 668.191 99.1826 656.026 70.2405 642.532C55.768 635.784 44.5656 628.716 36.9883 621.413C29.4115 614.111 25.5 606.617 25.5 599C25.5 591.383 29.4115 583.889 36.9883 576.587C44.5656 569.284 55.768 562.216 70.2405 555.468C99.1826 541.974 141.094 529.809 192.925 519.587C296.577 499.146 439.793 486.5 598 486.5C756.207 486.5 899.423 499.146 1003.08 519.587C1054.91 529.809 1096.82 541.974 1125.76 555.468C1140.23 562.216 1151.43 569.284 1159.01 576.587C1166.59 583.889 1170.5 591.383 1170.5 599Z" stroke="#1612E3"/>
<path d="M598 26.5C605.617 26.5 613.111 30.4115 620.413 37.9883C627.716 45.5656 634.784 56.7681 641.532 71.2405C655.026 100.183 667.191 142.094 677.413 193.925C697.854 297.577 710.5 440.793 710.5 599C710.5 757.207 697.854 900.423 677.413 1004.08C667.191 1055.91 655.026 1097.82 641.532 1126.76C634.784 1141.23 627.716 1152.43 620.413 1160.01C613.111 1167.59 605.617 1171.5 598 1171.5C590.383 1171.5 582.889 1167.59 575.587 1160.01C568.284 1152.43 561.216 1141.23 554.468 1126.76C540.974 1097.82 528.809 1055.91 518.587 1004.08C498.146 900.423 485.5 757.207 485.5 599C485.5 440.793 498.146 297.577 518.587 193.925C528.809 142.094 540.974 100.183 554.468 71.2405C561.216 56.7681 568.284 45.5656 575.587 37.9883C582.889 30.4115 590.383 26.5 598 26.5Z" stroke="#1612E3"/>
<path d="M1002.82 194.182C1008.2 199.568 1010.74 207.634 1010.54 218.154C1010.35 228.676 1007.43 241.595 1001.96 256.6C991.041 286.607 970.007 324.845 940.585 368.722C881.746 456.47 789.419 566.681 677.55 678.55C565.68 790.42 455.469 882.746 367.722 941.586C323.845 971.008 285.606 992.041 255.599 1002.96C240.594 1008.43 227.675 1011.35 217.154 1011.54C206.633 1011.74 198.567 1009.21 193.181 1003.82C187.796 998.434 185.262 990.368 185.456 979.847C185.651 969.326 188.574 956.407 194.036 941.402C204.96 911.395 225.993 873.156 255.415 829.279C314.254 741.532 406.581 631.321 518.451 519.451C630.32 407.582 740.531 315.255 828.279 256.416C872.156 226.994 910.394 205.96 940.401 195.037C955.406 189.575 968.325 186.651 978.847 186.457C989.367 186.263 997.433 188.797 1002.82 194.182Z" stroke="#1612E3"/>
<path d="M193.182 194.181C198.568 188.795 206.633 186.261 217.154 186.456C227.675 186.65 240.595 189.574 255.6 195.036C285.607 205.959 323.845 226.993 367.722 256.415C455.469 315.254 565.68 407.581 677.55 519.45C789.419 631.319 881.746 741.531 940.585 829.278C970.007 873.155 991.041 911.393 1001.96 941.4C1007.43 956.405 1010.35 969.324 1010.54 979.846C1010.74 990.367 1008.2 998.432 1002.82 1003.82C997.433 1009.2 989.368 1011.74 978.847 1011.54C968.325 1011.35 955.406 1008.43 940.401 1002.96C910.394 992.04 872.156 971.006 828.279 941.584C740.532 882.745 630.32 790.418 518.451 678.549C406.581 566.68 314.255 456.468 255.416 368.721C225.994 324.844 204.96 286.606 194.037 256.599C188.575 241.594 185.651 228.675 185.457 218.153C185.262 207.632 187.796 199.567 193.182 194.181Z" stroke="#1612E3"/>
<circle cx="597.5" cy="598.5" r="30.5" fill="#1612E3"/>
<circle cx="652.5" cy="99.5" r="14.15" fill="#E2E2DF" stroke="#1612E3" stroke-width="0.7"/>
<circle cx="490.5" cy="443.5" r="14.15" fill="#E2E2DF" stroke="#1612E3" stroke-width="0.7"/>
<circle cx="988.5" cy="285.5" r="14.15" fill="#E2E2DF" stroke="#1612E3" stroke-width="0.7"/>
<circle cx="876.5" cy="744.5" r="14.15" fill="#E2E2DF" stroke="#1612E3" stroke-width="0.7"/>
<circle cx="51.5" cy="567.5" r="14.15" fill="#E2E2DF" stroke="#1612E3" stroke-width="0.7"/>
<circle cx="420.5" cy="905.5" r="14.15" fill="#E2E2DF" stroke="#1612E3" stroke-width="0.7"/>
<circle cx="598.5" cy="1171.5" r="14.15" fill="#E2E2DF" stroke="#1612E3" stroke-width="0.7"/>
<circle cx="676.5" cy="677.5" r="14.15" fill="#E2E2DF" stroke="#1612E3" stroke-width="0.7"/>
<circle cx="247.5" cy="356.5" r="14.15" fill="#E2E2DF" stroke="#1612E3" stroke-width="0.7"/>
<g clip-path="url(#clip0)">
<path d="M97.3089 527.895L88.7348 530.986L93.4227 543.993L90.623 545.002L85.0521 529.545L96.4259 525.446L97.3089 527.895Z" fill="black"/>
<path d="M115.807 528.133C115.876 528.349 115.946 528.641 116.019 529.009L103.307 533.023C103.92 534.346 104.873 535.27 106.166 535.794C107.471 536.292 108.893 536.298 110.43 535.812C112.302 535.221 113.611 534.114 114.356 532.492L116.501 533.83C116.053 534.882 115.365 535.793 114.438 536.562C113.53 537.326 112.426 537.913 111.126 538.323C109.47 538.846 107.896 538.975 106.404 538.709C104.905 538.424 103.608 537.783 102.512 536.785C101.437 535.781 100.656 534.51 100.171 532.973C99.6917 531.455 99.5942 529.98 99.8784 528.547C100.182 527.107 100.82 525.865 101.791 524.822C102.775 523.752 104.016 522.981 105.514 522.508C107.011 522.035 108.451 521.96 109.831 522.283C111.225 522.579 112.44 523.236 113.476 524.252C114.532 525.263 115.309 526.556 115.807 528.133ZM106.27 524.903C104.91 525.332 103.898 526.107 103.233 527.227C102.588 528.341 102.398 529.593 102.663 530.983L112.714 527.809C112.139 526.538 111.258 525.636 110.071 525.1C108.897 524.539 107.63 524.473 106.27 524.903Z" fill="black"/>
<path d="M129.333 532.752C127.761 533.192 126.25 533.239 124.802 532.894C123.353 532.548 122.1 531.869 121.044 530.855C120.002 529.817 119.264 528.521 118.829 526.969C118.395 525.416 118.356 523.936 118.712 522.527C119.083 521.092 119.801 519.861 120.865 518.833C121.924 517.786 123.24 517.042 124.812 516.602C126.384 516.162 127.885 516.117 129.314 516.468C130.757 516.794 131.999 517.476 133.041 518.515C134.098 519.529 134.843 520.811 135.278 522.364C135.712 523.916 135.744 525.409 135.373 526.844C135.016 528.253 134.309 529.481 133.25 530.529C132.211 531.571 130.905 532.312 129.333 532.752ZM128.631 530.244C129.646 529.96 130.488 529.478 131.156 528.797C131.838 528.091 132.291 527.256 132.514 526.292C132.733 525.308 132.688 524.269 132.382 523.174C132.076 522.08 131.577 521.179 130.885 520.471C130.187 519.743 129.367 519.265 128.423 519.036C127.498 518.801 126.529 518.825 125.514 519.109C124.499 519.394 123.648 519.879 122.96 520.565C122.292 521.246 121.839 522.081 121.601 523.07C121.377 524.034 121.418 525.063 121.725 526.158C122.031 527.253 122.533 528.164 123.23 528.891C123.942 529.593 124.763 530.072 125.693 530.327C126.637 530.556 127.616 530.528 128.631 530.244Z" fill="black"/>
<path d="M155.974 508.731L159.92 524.68L157.302 525.328L154.421 513.682L150.897 524.996L149.633 525.309L141.293 516.898L144.182 528.574L141.534 529.229L137.588 513.28L140.567 512.543L149.492 521.767L153.266 509.401L155.974 508.731Z" fill="black"/>
<path d="M178.23 512.336C178.279 512.559 178.323 512.856 178.362 513.228L165.341 516.079C165.832 517.452 166.697 518.458 167.937 519.096C169.193 519.71 170.608 519.845 172.183 519.5C174.101 519.08 175.504 518.096 176.392 516.547L178.408 518.073C177.866 519.08 177.099 519.925 176.107 520.608C175.134 521.287 173.981 521.772 172.649 522.063C170.953 522.435 169.374 522.421 167.911 522.022C166.444 521.602 165.21 520.847 164.21 519.754C163.229 518.657 162.566 517.321 162.221 515.746C161.881 514.192 161.917 512.714 162.329 511.312C162.762 509.905 163.509 508.726 164.57 507.775C165.646 506.798 166.952 506.142 168.486 505.806C170.021 505.471 171.461 505.525 172.807 505.971C174.168 506.392 175.319 507.156 176.259 508.262C177.22 509.363 177.877 510.721 178.23 512.336ZM169.023 508.259C167.63 508.564 166.552 509.245 165.789 510.3C165.046 511.352 164.744 512.581 164.883 513.989L175.179 511.735C174.722 510.418 173.926 509.439 172.791 508.799C171.672 508.134 170.416 507.954 169.023 508.259Z" fill="black"/>
<path d="M193.059 503.526L187.164 504.715L189.897 518.268L186.979 518.857L184.247 505.303L178.351 506.492L177.836 503.939L192.544 500.974L193.059 503.526Z" fill="black"/>
<path d="M204.245 498.621C205.81 498.332 207.276 498.418 208.644 498.88C210.011 499.342 211.155 500.129 212.075 501.241C213.015 502.349 213.636 503.716 213.936 505.342C214.237 506.968 214.148 508.476 213.669 509.868C213.207 511.235 212.42 512.379 211.308 513.299C210.196 514.219 208.858 514.823 207.293 515.113C206.135 515.327 205.026 515.3 203.968 515.034C202.931 514.763 201.998 514.263 201.169 513.533L202.713 521.886L199.786 522.427L195.708 500.356L198.512 499.838L198.985 502.399C199.47 501.384 200.17 500.562 201.083 499.93C201.992 499.279 203.046 498.842 204.245 498.621ZM206.576 512.597C207.613 512.406 208.494 512.001 209.221 511.383C209.964 510.742 210.49 509.951 210.8 509.011C211.126 508.047 211.186 507.006 210.979 505.888C210.773 504.771 210.347 503.83 209.701 503.067C209.072 502.279 208.298 501.729 207.378 501.415C206.479 501.098 205.511 501.035 204.475 501.227C203.459 501.414 202.579 501.829 201.836 502.471C201.109 503.089 200.581 503.869 200.251 504.813C199.941 505.753 199.89 506.782 200.096 507.899C200.303 509.017 200.721 509.97 201.35 510.757C201.975 511.524 202.749 512.075 203.672 512.409C204.592 512.722 205.56 512.785 206.576 512.597Z" fill="black"/>
<path d="M216.894 496.493L219.829 496.001L221.806 507.803L229.765 494.337L232.425 493.891L235.14 510.095L232.205 510.587L230.228 498.786L222.299 512.247L219.608 512.697L216.894 496.493Z" fill="black"/>
<path d="M251.269 490.983L253.751 507.225L250.809 507.674L249.807 501.116C248.175 502.202 246.491 502.878 244.754 503.143C242.732 503.452 241.097 503.221 239.85 502.45C238.603 501.679 237.836 500.354 237.549 498.474L236.744 493.203L239.685 492.754L240.463 497.841C240.635 498.964 241.112 499.759 241.894 500.225C242.696 500.688 243.731 500.822 244.997 500.629C246.427 500.41 247.915 499.817 249.461 498.849L248.327 491.433L251.269 490.983Z" fill="black"/>
<path d="M272.971 496.28C273.003 496.505 273.024 496.804 273.035 497.179L259.837 499.045C260.223 500.451 261.011 501.519 262.199 502.249C263.406 502.955 264.807 503.195 266.403 502.969C268.347 502.694 269.82 501.818 270.821 500.341L272.717 502.014C272.102 502.977 271.274 503.762 270.232 504.369C269.212 504.972 268.026 505.37 266.675 505.561C264.956 505.804 263.383 505.671 261.954 505.164C260.523 504.636 259.349 503.789 258.433 502.625C257.537 501.457 256.977 500.076 256.751 498.479C256.528 496.904 256.675 495.432 257.191 494.065C257.728 492.695 258.561 491.576 259.691 490.706C260.838 489.814 262.189 489.257 263.744 489.037C265.299 488.817 266.731 488.98 268.04 489.526C269.366 490.048 270.456 490.895 271.311 492.069C272.186 493.239 272.739 494.643 272.971 496.28ZM264.095 491.524C262.683 491.723 261.557 492.321 260.717 493.316C259.897 494.309 259.504 495.512 259.537 496.927L269.973 495.451C269.616 494.103 268.895 493.068 267.812 492.344C266.746 491.597 265.507 491.324 264.095 491.524Z" fill="black"/>
<path d="M285.748 503.032C284.089 503.249 282.556 503.086 281.15 502.541C279.765 501.993 278.622 501.143 277.72 499.99C276.816 498.816 276.258 497.43 276.049 495.832C275.839 494.234 276.021 492.761 276.594 491.415C277.165 490.047 278.05 488.93 279.249 488.064C280.467 487.175 281.905 486.621 283.565 486.403C285.04 486.21 286.391 486.334 287.616 486.778C288.862 487.219 289.877 487.961 290.66 489.005L288.606 490.744C287.991 490.033 287.28 489.532 286.47 489.242C285.661 488.952 284.795 488.868 283.873 488.989C282.808 489.129 281.876 489.491 281.077 490.075C280.299 490.657 279.721 491.421 279.345 492.366C278.987 493.289 278.882 494.314 279.03 495.441C279.181 496.588 279.549 497.571 280.136 498.391C280.741 499.187 281.495 499.765 282.397 500.126C283.319 500.484 284.313 500.594 285.379 500.454C286.301 500.333 287.115 500.028 287.822 499.539C288.529 499.05 289.088 498.383 289.498 497.537L291.927 498.656C291.44 499.866 290.653 500.855 289.566 501.624C288.496 502.368 287.224 502.838 285.748 503.032Z" fill="black"/>
<path d="M301.655 493.846L298.268 494.249L299.089 501.144L296.134 501.496L294.192 485.181L297.147 484.829L297.968 491.725L301.416 491.314L305.889 483.789L309.06 483.411L303.807 491.997L311.433 499.675L307.955 500.089L301.655 493.846Z" fill="black"/>
<path d="M312.737 483.001L315.695 482.68L316.986 494.576L325.712 481.594L328.393 481.303L330.164 497.637L327.206 497.958L325.915 486.062L317.22 499.041L314.508 499.335L312.737 483.001Z" fill="black"/>
<path d="M334.252 480.702L337.214 480.412L338.379 492.321L347.241 479.431L349.925 479.168L351.525 495.52L348.563 495.81L347.398 483.901L338.567 496.788L335.852 497.054L334.252 480.702ZM341.695 477.824C340.173 477.973 338.955 477.729 338.041 477.092C337.125 476.434 336.59 475.417 336.434 474.041L338.44 473.845C338.535 474.604 338.852 475.196 339.392 475.62C339.951 476.022 340.652 476.182 341.495 476.1C342.338 476.017 342.995 475.725 343.465 475.222C343.933 474.698 344.14 474.055 344.086 473.292L346.153 473.09C346.267 474.47 345.929 475.572 345.137 476.397C344.344 477.202 343.196 477.678 341.695 477.824Z" fill="black"/>
<path d="M621.988 468.218L621.899 484.648L618.923 484.632L618.998 470.806L609.729 470.756L609.654 484.582L606.678 484.565L606.767 468.136L621.988 468.218Z" fill="black"/>
<path d="M636.577 468.224C638.168 468.244 639.59 468.614 640.841 469.333C642.093 470.051 643.062 471.045 643.748 472.315C644.456 473.585 644.799 475.046 644.778 476.699C644.757 478.353 644.376 479.815 643.637 481.087C642.918 482.339 641.924 483.308 640.654 483.994C639.385 484.681 637.954 485.014 636.363 484.994C635.185 484.979 634.103 484.738 633.117 484.27C632.152 483.803 631.334 483.132 630.663 482.255L630.554 490.748L627.579 490.71L627.865 468.268L630.716 468.305L630.683 470.908C631.356 470.008 632.202 469.336 633.22 468.895C634.239 468.432 635.358 468.209 636.577 468.224ZM636.148 482.387C637.202 482.4 638.146 482.175 638.978 481.71C639.832 481.225 640.502 480.551 640.988 479.689C641.495 478.807 641.756 477.798 641.771 476.661C641.785 475.525 641.55 474.519 641.065 473.645C640.601 472.75 639.949 472.06 639.107 471.574C638.287 471.088 637.35 470.838 636.296 470.825C635.263 470.812 634.319 471.048 633.466 471.533C632.633 471.998 631.963 472.661 631.456 473.522C630.97 474.384 630.719 475.384 630.705 476.52C630.69 477.657 630.915 478.672 631.379 479.567C631.843 480.441 632.496 481.131 633.337 481.638C634.178 482.124 635.115 482.374 636.148 482.387Z" fill="black"/>
<path d="M655.964 485.309C654.332 485.276 652.872 484.885 651.585 484.136C650.298 483.386 649.295 482.374 648.576 481.099C647.878 479.803 647.546 478.35 647.578 476.738C647.61 475.126 648.001 473.698 648.749 472.452C649.518 471.185 650.561 470.214 651.877 469.538C653.193 468.84 654.667 468.508 656.3 468.541C657.932 468.574 659.381 468.964 660.648 469.713C661.936 470.442 662.928 471.454 663.626 472.749C664.345 474.024 664.688 475.468 664.656 477.08C664.623 478.691 664.223 480.13 663.453 481.396C662.705 482.642 661.672 483.614 660.356 484.311C659.061 485.009 657.597 485.341 655.964 485.309ZM656.016 482.705C657.07 482.726 658.015 482.507 658.851 482.049C659.708 481.57 660.383 480.901 660.876 480.043C661.369 479.164 661.626 478.156 661.649 477.02C661.672 475.883 661.454 474.876 660.996 473.999C660.539 473.101 659.891 472.406 659.054 471.914C658.237 471.422 657.301 471.165 656.248 471.144C655.194 471.123 654.239 471.342 653.382 471.8C652.546 472.259 651.871 472.928 651.357 473.806C650.865 474.664 650.607 475.662 650.584 476.798C650.562 477.935 650.779 478.952 651.237 479.85C651.715 480.728 652.363 481.423 653.179 481.935C654.017 482.427 654.963 482.684 656.016 482.705Z" fill="black"/>
<path d="M675.944 485.804C674.271 485.753 672.784 485.347 671.484 484.584C670.204 483.822 669.211 482.8 668.506 481.518C667.8 480.215 667.472 478.757 667.52 477.146C667.569 475.535 667.983 474.11 668.765 472.873C669.547 471.614 670.599 470.653 671.922 469.99C673.266 469.307 674.774 468.99 676.447 469.04C677.935 469.085 679.248 469.424 680.387 470.058C681.546 470.692 682.429 471.587 683.035 472.742L680.73 474.131C680.237 473.33 679.614 472.723 678.861 472.307C678.109 471.892 677.268 471.67 676.338 471.642C675.264 471.61 674.286 471.818 673.404 472.267C672.543 472.717 671.851 473.379 671.329 474.252C670.828 475.105 670.56 476.1 670.526 477.236C670.491 478.393 670.698 479.423 671.146 480.325C671.616 481.208 672.267 481.899 673.1 482.4C673.954 482.901 674.917 483.168 675.991 483.2C676.921 483.228 677.774 483.057 678.55 482.687C679.326 482.318 679.984 481.748 680.524 480.979L682.743 482.472C682.069 483.589 681.134 484.44 679.938 485.024C678.763 485.588 677.432 485.848 675.944 485.804Z" fill="black"/>
<path d="M698.926 472.458L692.915 472.264L692.471 486.083L689.497 485.988L689.941 472.169L683.93 471.976L684.013 469.373L699.01 469.855L698.926 472.458Z" fill="black"/>
<path d="M707.794 486.815C706.162 486.753 704.71 486.336 703.437 485.563C702.163 484.791 701.179 483.76 700.484 482.472C699.81 481.164 699.504 479.704 699.565 478.094C699.627 476.483 700.043 475.061 700.814 473.829C701.606 472.577 702.667 471.625 703.995 470.973C705.323 470.3 706.803 469.994 708.435 470.057C710.066 470.119 711.508 470.536 712.761 471.308C714.035 472.06 715.009 473.09 715.683 474.398C716.378 475.686 716.695 477.136 716.634 478.746C716.572 480.357 716.145 481.789 715.353 483.041C714.582 484.273 713.532 485.225 712.203 485.898C710.895 486.572 709.425 486.878 707.794 486.815ZM707.893 484.213C708.947 484.254 709.895 484.052 710.74 483.609C711.605 483.145 712.292 482.489 712.8 481.64C713.309 480.77 713.585 479.767 713.629 478.631C713.672 477.496 713.473 476.485 713.031 475.599C712.59 474.693 711.956 473.986 711.127 473.479C710.319 472.973 709.389 472.699 708.335 472.659C707.282 472.619 706.323 472.82 705.458 473.262C704.614 473.706 703.927 474.362 703.397 475.231C702.889 476.08 702.613 477.073 702.57 478.209C702.527 479.344 702.725 480.365 703.166 481.272C703.629 482.158 704.264 482.865 705.071 483.392C705.899 483.899 706.84 484.173 707.893 484.213Z" fill="black"/>
<path d="M721.36 470.721L724.333 470.857L723.784 482.811L734.397 471.32L737.091 471.443L736.337 487.856L733.364 487.719L733.914 475.766L723.331 487.259L720.606 487.133L721.36 470.721ZM729.138 468.937C727.61 468.867 726.44 468.451 725.626 467.689C724.814 466.907 724.429 465.824 724.472 464.44L726.485 464.532C726.471 465.297 726.7 465.928 727.174 466.426C727.669 466.904 728.34 467.162 729.187 467.201C730.033 467.24 730.725 467.044 731.262 466.614C731.8 466.163 732.096 465.556 732.152 464.793L734.227 464.888C734.143 466.27 733.65 467.313 732.749 468.016C731.849 468.699 730.645 469.006 729.138 468.937Z" fill="black"/>
<path d="M1111.2 665.989C1109.77 666.529 1108.37 666.691 1107.01 666.477C1105.65 666.262 1104.44 665.701 1103.39 664.794C1102.33 663.913 1101.53 662.748 1100.98 661.298C1100.42 659.809 1100.26 658.357 1100.5 656.941C1100.72 655.552 1101.32 654.309 1102.3 653.211C1103.26 652.12 1104.51 651.283 1106.06 650.699C1108.67 649.714 1111.03 649.841 1113.13 651.08C1115.22 652.345 1116.88 654.602 1118.1 657.85C1119.29 661.002 1119.57 663.711 1118.95 665.979C1118.33 668.266 1116.8 670.204 1114.35 671.791L1107.92 676.006L1106.55 673.607L1112.5 669.774C1114.34 668.57 1115.55 667.25 1116.14 665.815C1116.72 664.379 1116.71 662.64 1116.09 660.597C1115.81 661.832 1115.24 662.916 1114.4 663.852C1113.56 664.787 1112.5 665.5 1111.2 665.989ZM1106.88 653.041C1105.89 653.414 1105.1 653.964 1104.52 654.694C1103.91 655.43 1103.54 656.266 1103.41 657.2C1103.28 658.153 1103.41 659.132 1103.79 660.138C1104.37 661.665 1105.29 662.718 1106.57 663.296C1107.85 663.873 1109.24 663.878 1110.75 663.308C1112.26 662.739 1113.31 661.812 1113.91 660.526C1114.49 659.247 1114.49 657.845 1113.91 656.317C1113.53 655.312 1112.98 654.493 1112.26 653.861C1111.52 653.255 1110.68 652.876 1109.74 652.723C1108.8 652.57 1107.84 652.677 1106.88 653.041Z" fill="black"/>
<path d="M1082.74 667.522C1082.67 667.306 1082.59 667.015 1082.52 666.648L1095.19 662.513C1094.56 661.195 1093.6 660.281 1092.3 659.769C1090.99 659.284 1089.57 659.291 1088.04 659.791C1086.17 660.4 1084.87 661.52 1084.15 663.149L1081.99 661.831C1082.43 660.775 1083.1 659.858 1084.02 659.08C1084.92 658.308 1086.02 657.71 1087.32 657.287C1088.97 656.748 1090.54 656.605 1092.04 656.856C1093.54 657.127 1094.84 657.756 1095.95 658.743C1097.03 659.737 1097.83 661 1098.33 662.533C1098.82 664.046 1098.93 665.52 1098.66 666.956C1098.37 668.399 1097.74 669.646 1096.78 670.699C1095.81 671.778 1094.58 672.561 1093.08 673.048C1091.59 673.535 1090.15 673.624 1088.77 673.315C1087.37 673.031 1086.15 672.386 1085.1 671.38C1084.04 670.38 1083.25 669.094 1082.74 667.522ZM1092.3 670.661C1093.66 670.218 1094.66 669.434 1095.32 668.307C1095.95 667.187 1096.13 665.934 1095.85 664.546L1085.83 667.816C1086.42 669.081 1087.31 669.976 1088.5 670.499C1089.68 671.049 1090.95 671.103 1092.3 670.661Z" fill="black"/>
<path d="M1070.08 671.596C1068.95 671.62 1068.01 671.407 1067.26 670.956C1066.5 670.506 1066 669.824 1065.73 668.91C1065.47 667.977 1065.54 667.051 1065.97 666.134C1066.4 665.236 1067.12 664.416 1068.13 663.674C1069.13 662.957 1070.33 662.399 1071.72 662C1072.89 661.663 1074.08 661.482 1075.3 661.455C1076.5 661.453 1077.63 661.615 1078.67 661.94L1078.43 664.363C1077.53 664.103 1076.56 663.974 1075.51 663.975C1074.46 663.996 1073.44 664.15 1072.45 664.435C1071.1 664.823 1070.09 665.359 1069.43 666.044C1068.75 666.755 1068.52 667.507 1068.75 668.302C1068.96 669.037 1069.45 669.509 1070.22 669.718C1070.97 669.933 1071.93 669.872 1073.11 669.535L1076 668.705L1076.59 670.761L1073.9 671.531C1072.83 671.839 1072.04 672.27 1071.53 672.825C1071.03 673.379 1070.87 673.984 1071.06 674.639C1071.26 675.354 1071.79 675.805 1072.64 675.991C1073.47 676.183 1074.5 676.102 1075.73 675.749C1077.3 675.298 1078.84 674.415 1080.35 673.098L1081.76 675.081C1080.11 676.607 1078.24 677.673 1076.13 678.278C1074.86 678.643 1073.67 678.792 1072.55 678.725C1071.44 678.658 1070.5 678.38 1069.73 677.89C1068.97 677.4 1068.46 676.738 1068.23 675.903C1068 675.129 1068.06 674.359 1068.4 673.595C1068.74 672.831 1069.3 672.165 1070.08 671.596Z" fill="black"/>
<path d="M1045.54 678.007C1044.41 677.99 1043.48 677.742 1042.74 677.264C1042 676.787 1041.52 676.086 1041.29 675.164C1041.06 674.221 1041.17 673.299 1041.63 672.397C1042.09 671.516 1042.84 670.723 1043.88 670.019C1044.91 669.34 1046.12 668.826 1047.53 668.478C1048.71 668.185 1049.91 668.047 1051.13 668.065C1052.33 668.108 1053.45 668.311 1054.47 668.674L1054.14 671.087C1053.26 670.794 1052.3 670.629 1051.24 670.592C1050.2 670.574 1049.17 670.69 1048.17 670.938C1046.8 671.276 1045.78 671.775 1045.09 672.435C1044.39 673.12 1044.13 673.864 1044.33 674.667C1044.52 675.409 1044.99 675.899 1045.75 676.136C1046.49 676.378 1047.45 676.353 1048.64 676.059L1051.56 675.337L1052.07 677.413L1049.36 678.084C1048.28 678.352 1047.47 678.754 1046.95 679.289C1046.42 679.824 1046.24 680.422 1046.4 681.084C1046.58 681.807 1047.09 682.276 1047.93 682.494C1048.75 682.716 1049.79 682.673 1051.03 682.365C1052.61 681.973 1054.19 681.147 1055.75 679.887L1057.08 681.92C1055.38 683.385 1053.47 684.381 1051.34 684.907C1050.06 685.225 1048.86 685.33 1047.74 685.223C1046.63 685.115 1045.7 684.802 1044.96 684.284C1044.21 683.766 1043.73 683.086 1043.53 682.244C1043.33 681.461 1043.42 680.694 1043.79 679.943C1044.15 679.192 1044.74 678.547 1045.54 678.007Z" fill="black"/>
<path d="M1033.75 689.006C1031.53 689.506 1029.71 689.344 1028.3 688.518C1026.86 687.698 1025.9 686.209 1025.42 684.052L1023.24 674.374L1025.99 673.754L1026.47 675.871C1026.78 675.016 1027.35 674.285 1028.16 673.677C1028.96 673.094 1029.98 672.664 1031.21 672.387C1033 671.982 1034.54 672.091 1035.83 672.713C1037.09 673.339 1037.88 674.357 1038.2 675.769C1038.52 677.18 1038.26 678.425 1037.42 679.503C1036.59 680.602 1035.05 681.403 1032.82 681.908L1028.22 682.944L1028.35 683.518C1028.63 684.768 1029.21 685.644 1030.08 686.146C1030.96 686.648 1032.1 686.74 1033.51 686.421C1034.46 686.208 1035.35 685.838 1036.19 685.311C1037.03 684.804 1037.7 684.218 1038.21 683.553L1039.91 685.458C1039.23 686.309 1038.36 687.036 1037.28 687.637C1036.22 688.259 1035.04 688.716 1033.75 689.006ZM1031.23 674.734C1030.12 674.984 1029.22 675.441 1028.52 676.107C1027.83 676.793 1027.4 677.63 1027.24 678.619L1027.75 680.857L1032.22 679.848C1034.68 679.294 1035.73 678.19 1035.35 676.537C1035.17 675.731 1034.72 675.166 1033.99 674.843C1033.26 674.52 1032.34 674.484 1031.23 674.734Z" fill="black"/>
<path d="M1011.04 676.744C1012.68 676.406 1014.22 676.458 1015.66 676.899C1017.08 677.345 1018.28 678.11 1019.26 679.195C1020.25 680.3 1020.91 681.642 1021.23 683.22C1021.56 684.799 1021.48 686.281 1021.01 687.666C1020.54 689.071 1019.74 690.249 1018.6 691.2C1017.45 692.175 1016.06 692.832 1014.42 693.17C1012.96 693.47 1011.61 693.443 1010.35 693.09C1009.08 692.74 1008.01 692.074 1007.16 691.09L1009.08 689.206C1009.74 689.871 1010.49 690.319 1011.32 690.549C1012.15 690.779 1013.01 690.801 1013.93 690.613C1014.98 690.396 1015.88 689.967 1016.64 689.327C1017.37 688.69 1017.89 687.887 1018.2 686.916C1018.49 685.97 1018.52 684.94 1018.29 683.827C1018.05 682.694 1017.62 681.74 1016.97 680.965C1016.31 680.215 1015.52 679.693 1014.59 679.398C1013.64 679.108 1012.65 679.071 1011.59 679.288C1010.68 679.475 1009.89 679.839 1009.22 680.377C1008.55 680.916 1008.04 681.622 1007.7 682.496L1005.19 681.556C1005.59 680.313 1006.3 679.27 1007.33 678.425C1008.34 677.604 1009.58 677.044 1011.04 676.744Z" fill="black"/>
<path d="M987.998 689.707C987.955 689.484 987.918 689.186 987.888 688.813L1000.97 686.275C1000.52 684.891 999.675 683.864 998.451 683.196C997.21 682.553 995.799 682.384 994.216 682.691C992.289 683.065 990.863 684.015 989.938 685.542L987.959 683.968C988.524 682.974 989.311 682.148 990.32 681.489C991.309 680.834 992.473 680.377 993.812 680.117C995.516 679.787 997.095 679.839 998.547 680.273C1000 680.727 1001.22 681.512 1002.19 682.629C1003.15 683.749 1003.78 685.1 1004.08 686.683C1004.39 688.245 1004.32 689.722 1003.87 691.114C1003.4 692.509 1002.63 693.67 1001.55 694.596C1000.45 695.546 999.124 696.17 997.582 696.469C996.04 696.768 994.602 696.679 993.267 696.201C991.916 695.747 990.784 694.956 989.871 693.828C988.937 692.704 988.313 691.33 987.998 689.707ZM997.104 694.004C998.504 693.733 999.599 693.079 1000.39 692.042C1001.16 691.009 1001.49 689.786 1001.38 688.375L991.034 690.381C991.46 691.709 992.232 692.707 993.351 693.374C994.453 694.066 995.705 694.276 997.104 694.004Z" fill="black"/>
<path d="M971.858 701.043L969.077 684.85L972.011 684.346L973.133 690.885C974.745 689.769 976.417 689.063 978.148 688.765C980.164 688.419 981.803 688.62 983.064 689.368C984.325 690.116 985.116 691.427 985.438 693.301L986.34 698.556L983.407 699.06L982.536 693.988C982.344 692.868 981.852 692.082 981.062 691.63C980.251 691.183 979.214 691.067 977.951 691.284C976.526 691.529 975.049 692.149 973.522 693.145L974.791 700.539L971.858 701.043Z" fill="black"/>
<path d="M950.011 696.001C949.976 695.776 949.949 695.477 949.932 695.103L963.098 693.02C962.688 691.621 961.883 690.566 960.683 689.856C959.466 689.17 958.061 688.953 956.469 689.204C954.529 689.511 953.071 690.411 952.094 691.905L950.171 690.264C950.77 689.29 951.585 688.491 952.616 687.868C953.627 687.248 954.806 686.831 956.153 686.618C957.868 686.347 959.444 686.453 960.88 686.937C962.32 687.442 963.508 688.269 964.443 689.418C965.358 690.571 965.941 691.943 966.193 693.535C966.441 695.107 966.319 696.58 965.825 697.956C965.311 699.335 964.496 700.468 963.381 701.356C962.249 702.267 960.907 702.845 959.356 703.091C957.805 703.336 956.37 703.197 955.053 702.673C953.718 702.173 952.614 701.343 951.74 700.184C950.846 699.028 950.27 697.634 950.011 696.001ZM958.964 700.611C960.372 700.388 961.488 699.772 962.312 698.763C963.115 697.757 963.489 696.547 963.432 695.133L953.022 696.78C953.402 698.122 954.139 699.146 955.234 699.851C956.312 700.58 957.555 700.834 958.964 700.611Z" fill="black"/>
<path d="M938.93 696.445L942.305 695.954L941.306 689.082L944.251 688.654L946.614 704.914L943.669 705.342L942.67 698.47L939.234 698.969L934.957 706.608L931.797 707.067L936.826 698.348L929.004 690.87L932.471 690.367L938.93 696.445Z" fill="black"/>
<path d="M523.119 724.437L532.231 724.647L532.549 710.825L535.525 710.893L535.146 727.319L523.059 727.04L523.119 724.437Z" fill="black"/>
<path d="M514.082 726.944C511.81 726.878 510.091 726.27 508.925 725.12C507.739 723.969 507.177 722.289 507.241 720.078L507.529 710.162L510.349 710.244L510.286 712.413C510.804 711.663 511.533 711.095 512.475 710.709C513.395 710.343 514.486 710.178 515.746 710.214C517.584 710.268 519.048 710.755 520.138 711.675C521.207 712.595 521.721 713.778 521.679 715.224C521.637 716.671 521.077 717.812 519.998 718.649C518.919 719.507 517.233 719.903 514.94 719.836L510.23 719.7L510.213 720.288C510.175 721.569 510.519 722.561 511.243 723.265C511.967 723.968 513.052 724.34 514.498 724.382C515.469 724.41 516.424 724.273 517.363 723.969C518.302 723.686 519.099 723.285 519.755 722.767L520.93 725.034C520.063 725.691 519.036 726.178 517.848 726.495C516.66 726.833 515.405 726.983 514.082 726.944ZM515.183 712.493C514.047 712.46 513.059 712.68 512.218 713.152C511.377 713.644 510.757 714.35 510.358 715.269L510.292 717.562L514.878 717.694C517.398 717.768 518.683 716.957 518.732 715.263C518.756 714.437 518.454 713.777 517.828 713.283C517.201 712.789 516.32 712.526 515.183 712.493Z" fill="black"/>
<path d="M492.911 726.257C491.321 726.2 489.909 725.797 488.674 725.05C487.439 724.302 486.494 723.286 485.837 722.001C485.159 720.715 484.85 719.246 484.91 717.594C484.969 715.941 485.383 714.488 486.152 713.234C486.9 711.999 487.916 711.053 489.201 710.396C490.486 709.739 491.924 709.44 493.514 709.497C494.691 709.539 495.768 709.805 496.743 710.295C497.697 710.785 498.499 711.475 499.15 712.367L499.455 703.879L502.429 703.986L501.622 726.415L498.772 726.313L498.866 723.71C498.172 724.595 497.311 725.247 496.283 725.665C495.254 726.103 494.13 726.301 492.911 726.257ZM493.668 712.108C492.615 712.07 491.667 712.274 490.824 712.719C489.959 713.184 489.274 713.842 488.767 714.693C488.24 715.563 487.955 716.566 487.915 717.702C487.874 718.838 488.086 719.848 488.55 720.734C488.993 721.639 489.63 722.344 490.459 722.85C491.268 723.354 492.199 723.626 493.253 723.664C494.285 723.701 495.234 723.487 496.099 723.021C496.942 722.576 497.627 721.929 498.154 721.079C498.66 720.229 498.934 719.236 498.974 718.1C499.015 716.964 498.814 715.943 498.371 715.038C497.927 714.153 497.291 713.448 496.462 712.922C495.632 712.417 494.701 712.145 493.668 712.108Z" fill="black"/>
<path d="M461.282 724.782L462.013 708.368L464.708 708.488L464.174 720.473L470.757 710.62L472.058 710.677L477.675 721.106L478.21 709.09L480.936 709.211L480.205 725.625L477.139 725.488L471.191 714.114L464.07 724.906L461.282 724.782Z" fill="black"/>
<path d="M449.241 707.518C450.871 707.605 452.317 708.043 453.579 708.835C454.841 709.626 455.81 710.67 456.487 711.969C457.141 713.286 457.426 714.75 457.341 716.36C457.255 717.97 456.818 719.385 456.029 720.606C455.219 721.846 454.145 722.782 452.807 723.415C451.469 724.069 449.985 724.352 448.354 724.266C446.724 724.18 445.288 723.741 444.047 722.951C442.784 722.181 441.825 721.137 441.17 719.819C440.494 718.521 440.198 717.067 440.284 715.457C440.369 713.847 440.817 712.422 441.627 711.182C442.416 709.961 443.48 709.024 444.818 708.371C446.136 707.716 447.61 707.432 449.241 707.518ZM449.103 710.119C448.051 710.063 447.099 710.251 446.248 710.682C445.376 711.132 444.68 711.778 444.159 712.62C443.637 713.482 443.346 714.481 443.286 715.616C443.226 716.751 443.411 717.765 443.839 718.656C444.267 719.569 444.891 720.285 445.713 720.804C446.513 721.323 447.439 721.61 448.492 721.666C449.544 721.721 450.506 721.534 451.378 721.104C452.228 720.673 452.925 720.027 453.467 719.166C453.988 718.324 454.278 717.336 454.338 716.201C454.398 715.066 454.214 714.042 453.786 713.129C453.337 712.236 452.713 711.52 451.913 710.981C451.092 710.462 450.156 710.174 449.103 710.119Z" fill="black"/>
<path d="M435.461 723.412L432.491 723.231L432.915 716.269L423.571 715.699L423.146 722.661L420.176 722.48L421.176 706.08L424.146 706.261L423.727 713.131L433.072 713.701L433.491 706.831L436.461 707.012L435.461 723.412Z" fill="black"/>
<path d="M414.284 722.098L411.315 721.892L412.146 709.954L401.265 721.192L398.574 721.005L399.714 704.615L402.683 704.821L401.853 716.758L412.703 705.518L415.424 705.708L414.284 722.098Z" fill="black"/>
<path d="M379.637 719.543L380.915 703.163L383.882 703.394L383.366 710.008C385.202 709.322 386.996 709.048 388.747 709.184C390.787 709.343 392.326 709.94 393.365 710.975C394.404 712.009 394.849 713.474 394.701 715.37L394.286 720.686L391.319 720.454L391.72 715.324C391.808 714.191 391.524 713.308 390.869 712.677C390.193 712.044 389.216 711.677 387.939 711.578C386.496 711.465 384.913 711.704 383.187 712.295L382.604 719.775L379.637 719.543Z" fill="black"/>
<path d="M373.791 719.075L370.826 718.818L371.429 711.869L362.102 711.06L361.499 718.009L358.534 717.751L359.955 701.383L362.92 701.64L362.325 708.496L371.651 709.306L372.246 702.45L375.211 702.707L373.791 719.075Z" fill="black"/>
<path d="M345.786 710.945C343.731 710.724 342.204 710.097 341.204 709.065C340.204 708.033 339.786 706.674 339.951 704.987C340.123 703.218 340.853 701.909 342.141 701.058C343.405 700.227 345.137 699.928 347.336 700.163L354.213 700.865L352.619 717.218L349.657 716.929L350.195 711.406L345.786 710.945ZM336.451 715.641L333.489 715.352L335.084 699L338.046 699.289L336.451 715.641ZM347.332 702.437C345.997 702.286 344.963 702.455 344.23 702.944C343.477 703.431 343.047 704.22 342.941 705.31C342.836 706.38 343.1 707.194 343.73 707.754C344.361 708.314 345.354 708.671 346.709 708.823L350.406 709.246L351.032 702.829L347.332 702.437Z" fill="black"/>
<path d="M327.609 714.736L324.65 714.414L325.945 702.518L314.634 713.324L311.953 713.032L313.73 696.699L316.689 697.021L315.394 708.916L326.674 698.107L329.386 698.402L327.609 714.736ZM319.734 716.031C321.255 716.196 322.397 716.684 323.161 717.495C323.923 718.326 324.239 719.431 324.11 720.81L322.107 720.592C322.169 719.83 321.979 719.185 321.538 718.659C321.073 718.151 320.42 717.851 319.577 717.76C318.735 717.668 318.032 717.82 317.47 718.217C316.905 718.633 316.57 719.22 316.467 719.978L314.402 719.754C314.573 718.379 315.13 717.369 316.073 716.724C317.014 716.098 318.235 715.867 319.734 716.031Z" fill="black"/>
<path d="M525.461 158.075C525.079 159.705 524.385 161.081 523.379 162.204C522.377 163.306 521.178 164.076 519.78 164.512C518.363 164.944 516.87 164.976 515.3 164.608C513.731 164.239 512.417 163.549 511.36 162.537C510.282 161.52 509.55 160.298 509.163 158.87C508.761 157.417 508.751 155.875 509.133 154.246C509.473 152.797 510.067 151.578 510.915 150.588C511.767 149.578 512.82 148.891 514.073 148.526L514.975 151.062C514.092 151.386 513.372 151.875 512.815 152.53C512.259 153.185 511.874 153.965 511.662 154.87C511.416 155.917 511.426 156.917 511.69 157.87C511.96 158.804 512.47 159.613 513.222 160.299C513.959 160.96 514.88 161.42 515.987 161.68C517.114 161.944 518.164 161.947 519.138 161.687C520.096 161.402 520.903 160.901 521.559 160.185C522.22 159.449 522.674 158.557 522.919 157.511C523.131 156.605 523.134 155.736 522.926 154.902C522.718 154.067 522.291 153.309 521.645 152.627L523.55 150.749C524.51 151.633 525.158 152.718 525.492 154.007C525.811 155.27 525.801 156.627 525.461 158.075Z" fill="black"/>
<path d="M517.326 132.794L515.832 138.62L529.225 142.053L528.486 144.936L515.093 141.502L513.599 147.328L511.077 146.681L514.803 132.147L517.326 132.794Z" fill="black"/>
<path d="M517.921 120.458C518.358 118.928 519.088 117.653 520.111 116.634C521.133 115.615 522.346 114.942 523.752 114.613C525.163 114.264 526.663 114.317 528.253 114.771C529.842 115.226 531.154 115.977 532.187 117.025C533.205 118.047 533.879 119.261 534.208 120.666C534.537 122.071 534.483 123.539 534.045 125.069C533.721 126.202 533.205 127.182 532.495 128.011C531.79 128.82 530.927 129.433 529.905 129.85L538.072 132.185L537.253 135.047L515.675 128.875L516.459 126.133L518.962 126.849C518.27 125.964 517.844 124.971 517.686 123.873C517.507 122.768 517.586 121.63 517.921 120.458ZM531.474 124.591C531.763 123.578 531.793 122.609 531.564 121.683C531.32 120.732 530.846 119.909 530.142 119.213C529.424 118.492 528.519 117.975 527.426 117.662C526.333 117.35 525.301 117.313 524.33 117.551C523.345 117.764 522.507 118.212 521.817 118.896C521.133 119.56 520.646 120.399 520.356 121.412C520.072 122.406 520.052 123.378 520.296 124.329C520.526 125.254 520.99 126.075 521.688 126.79C522.392 127.486 523.29 127.99 524.383 128.303C525.476 128.615 526.515 128.665 527.5 128.453C528.465 128.234 529.302 127.786 530.012 127.108C530.702 126.424 531.189 125.585 531.474 124.591Z" fill="black"/>
<path d="M539.76 106.451C539.251 108.002 538.45 109.283 537.356 110.295C536.263 111.306 535.002 111.969 533.572 112.283C532.129 112.57 530.642 112.463 529.11 111.96C527.578 111.458 526.326 110.666 525.354 109.586C524.369 108.479 523.745 107.198 523.484 105.742C523.202 104.279 523.316 102.772 523.825 101.221C524.334 99.6696 525.132 98.398 526.219 97.4061C527.293 96.3882 528.551 95.7354 529.994 95.4477C531.424 95.1339 532.905 95.2283 534.436 95.731C535.968 96.2337 537.227 97.0383 538.212 98.1447C539.184 99.2251 539.811 100.497 540.092 101.959C540.38 103.402 540.269 104.899 539.76 106.451ZM537.286 105.639C537.615 104.637 537.682 103.67 537.488 102.736C537.281 101.776 536.839 100.935 536.163 100.213C535.467 99.4841 534.579 98.9425 533.499 98.5881C532.419 98.2336 531.392 98.1469 530.419 98.3278C529.427 98.5023 528.572 98.918 527.857 99.5749C527.147 100.212 526.628 101.031 526.299 102.033C525.971 103.034 525.9 104.012 526.088 104.965C526.281 105.899 526.723 106.74 527.413 107.488C528.089 108.21 528.968 108.749 530.048 109.103C531.128 109.458 532.164 109.548 533.156 109.373C534.136 109.173 534.99 108.757 535.719 108.126C536.435 107.469 536.957 106.64 537.286 105.639Z" fill="black"/>
<path d="M534.842 78.2319L531.662 86.7731L544.619 91.5975L543.58 94.3864L528.183 88.6534L532.402 77.3233L534.842 78.2319Z" fill="black"/>
<path d="M533.948 73.7984L535.164 71.082L546.086 75.97L539.279 61.886L540.381 59.4242L555.378 66.1357L554.162 68.8521L543.24 63.9641L550.059 78.0199L548.945 80.5099L533.948 73.7984Z" fill="black"/>
<path d="M543.602 52.9718L545.12 50.412L555.413 56.5156L550.259 41.7462L551.635 39.4265L565.767 47.807L564.249 50.3668L553.957 44.2632L559.126 59.0059L557.734 61.3523L543.602 52.9718ZM545.684 45.268C544.904 46.5835 543.987 47.4211 542.932 47.781C541.86 48.1303 540.723 47.9607 539.522 47.2722L540.55 45.539C541.218 45.9113 541.883 46.0053 542.545 45.8212C543.2 45.6087 543.743 45.138 544.175 44.4092C544.607 43.6804 544.76 42.9778 544.632 42.3015C544.487 41.6147 544.091 41.0673 543.443 40.6595L544.503 38.873C545.683 39.5971 546.372 40.5222 546.569 41.6483C546.749 42.7638 546.454 43.9704 545.684 45.268Z" fill="black"/>
<path d="M537.436 1130.49C536.503 1128.42 536.299 1126.6 536.824 1125.05C537.341 1123.48 538.608 1122.24 540.624 1121.34L549.67 1117.26L550.828 1119.83L548.849 1120.73C549.75 1120.86 550.58 1121.27 551.339 1121.95C552.07 1122.62 552.695 1123.53 553.212 1124.68C553.967 1126.35 554.169 1127.88 553.817 1129.27C553.456 1130.63 552.616 1131.61 551.297 1132.2C549.978 1132.8 548.706 1132.79 547.482 1132.19C546.239 1131.59 545.147 1130.25 544.205 1128.15L542.27 1123.86L541.733 1124.1C540.565 1124.63 539.822 1125.37 539.506 1126.33C539.19 1127.29 539.328 1128.42 539.922 1129.74C540.321 1130.63 540.862 1131.43 541.545 1132.14C542.21 1132.86 542.919 1133.4 543.672 1133.77L542.146 1135.81C541.176 1135.32 540.289 1134.61 539.485 1133.68C538.662 1132.76 537.979 1131.69 537.436 1130.49ZM550.917 1125.17C550.45 1124.13 549.821 1123.34 549.029 1122.79C548.219 1122.25 547.313 1122 546.312 1122.04L544.221 1122.98L546.104 1127.16C547.139 1129.46 548.43 1130.26 549.975 1129.57C550.729 1129.23 551.191 1128.67 551.361 1127.89C551.532 1127.11 551.383 1126.2 550.917 1125.17Z" fill="black"/>
<path d="M538.953 1109L540.142 1112.19L546.65 1109.77L547.688 1112.56L532.291 1118.29L531.253 1115.5L537.76 1113.08L536.549 1109.83L528.181 1107.25L527.067 1104.26L536.649 1107.34L542.312 1098.12L543.535 1101.4L538.953 1109Z" fill="black"/>
<path d="M532.829 1091.4L533.889 1094.64L540.489 1092.48L541.414 1095.31L525.798 1100.42L524.872 1097.59L531.472 1095.43L530.393 1092.13L522.136 1089.22L521.143 1086.19L530.594 1089.65L536.624 1080.67L537.713 1084L532.829 1091.4Z" fill="black"/>
<path d="M516.2 1069.19L535.78 1071.79C537.584 1072 538.946 1072.46 539.866 1073.19C540.781 1073.89 541.423 1074.88 541.793 1076.15C542.018 1076.92 542.109 1077.71 542.064 1078.52C542.034 1079.3 541.85 1080 541.513 1080.62L539.014 1080.02C539.551 1078.98 539.664 1077.93 539.352 1076.86C539.15 1076.16 538.794 1075.64 538.284 1075.29C537.788 1074.92 537.039 1074.68 536.036 1074.56L534.788 1074.37L521.07 1085.92L520.203 1082.95L531.221 1073.77L517.015 1071.99L516.2 1069.19Z" fill="black"/>
<path d="M512.937 1057.49C512.54 1055.95 512.524 1054.49 512.89 1053.09C513.256 1051.69 513.961 1050.5 515.007 1049.5C516.047 1048.49 517.367 1047.77 518.968 1047.36C520.569 1046.95 522.081 1046.93 523.502 1047.31C524.898 1047.68 526.094 1048.38 527.089 1049.43C528.084 1050.47 528.78 1051.77 529.177 1053.31C529.471 1054.45 529.522 1055.56 529.329 1056.63C529.131 1057.69 528.697 1058.65 528.027 1059.53L536.252 1057.41L536.995 1060.29L515.261 1065.89L514.549 1063.13L517.071 1062.48C516.025 1062.07 515.156 1061.43 514.463 1060.56C513.75 1059.7 513.241 1058.68 512.937 1057.49ZM526.717 1054.2C526.454 1053.18 525.989 1052.33 525.323 1051.65C524.631 1050.95 523.806 1050.48 522.846 1050.23C521.862 1049.98 520.82 1049.99 519.719 1050.27C518.618 1050.56 517.709 1051.05 516.993 1051.74C516.251 1052.43 515.755 1053.24 515.507 1054.18C515.253 1055.09 515.257 1056.06 515.52 1057.08C515.778 1058.09 516.253 1058.93 516.945 1059.63C517.611 1060.31 518.427 1060.79 519.391 1061.05C520.35 1061.29 521.38 1061.27 522.481 1060.99C523.582 1060.71 524.503 1060.22 525.245 1059.54C525.967 1058.86 526.462 1058.05 526.731 1057.11C526.98 1056.17 526.975 1055.2 526.717 1054.2Z" fill="black"/>
<path d="M508.626 1039.46C508.102 1037.25 508.244 1035.43 509.053 1034.01C509.858 1032.56 511.336 1031.58 513.488 1031.07L523.14 1028.79L523.791 1031.53L521.679 1032.03C522.538 1032.34 523.275 1032.89 523.892 1033.7C524.484 1034.5 524.925 1035.51 525.216 1036.74C525.641 1038.53 525.549 1040.07 524.942 1041.36C524.33 1042.63 523.32 1043.43 521.913 1043.76C520.505 1044.1 519.257 1043.85 518.17 1043.03C517.062 1042.21 516.243 1040.68 515.714 1038.45L514.627 1033.86L514.054 1034C512.807 1034.29 511.937 1034.88 511.446 1035.76C510.954 1036.64 510.874 1037.79 511.208 1039.2C511.432 1040.14 511.813 1041.03 512.349 1041.86C512.865 1042.69 513.459 1043.36 514.129 1043.86L512.243 1045.58C511.384 1044.91 510.648 1044.05 510.034 1042.98C509.401 1041.92 508.931 1040.75 508.626 1039.46ZM522.87 1036.78C522.608 1035.68 522.14 1034.78 521.466 1034.09C520.773 1033.4 519.931 1032.99 518.94 1032.84L516.708 1033.37L517.767 1037.83C518.348 1040.29 519.464 1041.32 521.113 1040.93C521.917 1040.74 522.476 1040.27 522.791 1039.54C523.106 1038.81 523.132 1037.89 522.87 1036.78Z" fill="black"/>
<path d="M505.905 1014.54L507.159 1020.42L520.681 1017.54L521.302 1020.45L507.78 1023.33L509.035 1029.21L506.488 1029.75L503.358 1015.08L505.905 1014.54Z" fill="black"/>
<path d="M502.71 1011.89L502.143 1008.97L508.99 1007.64L507.205 998.451L500.358 999.781L499.791 996.859L515.919 993.727L516.487 996.649L509.731 997.961L511.516 1007.15L518.271 1005.84L518.839 1008.76L502.71 1011.89Z" fill="black"/>
<path d="M502.881 982.678C502.545 980.639 502.74 978.999 503.467 977.76C504.194 976.521 505.392 975.755 507.062 975.462C508.812 975.155 510.269 975.508 511.433 976.521C512.573 977.518 513.323 979.107 513.685 981.288L514.847 988.103L498.664 990.939L498.15 988.008L503.616 987.05L502.881 982.678ZM495.86 974.939L495.346 972.007L511.53 969.171L512.043 972.103L495.86 974.939ZM511.493 981.893C511.282 980.566 510.842 979.615 510.175 979.039C509.504 978.444 508.629 978.24 507.55 978.429C506.492 978.615 505.777 979.086 505.406 979.844C505.035 980.601 504.957 981.653 505.172 983L505.753 986.675L512.105 985.562L511.493 981.893Z" fill="black"/>
<path d="M494.384 966.067L493.92 963.127L505.74 961.264L492.351 953.175L491.931 950.511L508.16 947.952L508.624 950.892L496.804 952.756L510.188 960.813L510.613 963.508L494.384 966.067ZM491.073 958.806C491.312 960.317 491.139 961.547 490.557 962.496C489.954 963.449 488.97 964.044 487.606 964.28L487.292 962.289C488.044 962.15 488.616 961.798 489.008 961.234C489.377 960.653 489.495 959.944 489.363 959.107C489.231 958.27 488.901 957.632 488.371 957.192C487.821 956.756 487.167 956.587 486.408 956.686L486.085 954.634C487.456 954.439 488.576 954.712 489.446 955.453C490.296 956.198 490.838 957.316 491.073 958.806Z" fill="black"/>
<path d="M406.899 614.726L400.782 621.482L411.031 630.762L409.034 632.968L396.854 621.94L404.969 612.978L406.899 614.726Z" fill="black"/>
<path d="M412.642 604.094C413.713 602.916 414.932 602.097 416.299 601.636C417.667 601.176 419.054 601.109 420.459 601.437C421.879 601.75 423.2 602.462 424.424 603.574C425.648 604.686 426.49 605.94 426.952 607.337C427.413 608.705 427.479 610.092 427.151 611.497C426.824 612.903 426.125 614.194 425.055 615.372C424.262 616.244 423.364 616.894 422.361 617.322C421.371 617.736 420.326 617.903 419.225 617.824L425.511 623.536L423.51 625.738L406.899 610.645L408.817 608.534L410.744 610.285C410.516 609.184 410.574 608.106 410.919 607.051C411.248 605.982 411.822 604.996 412.642 604.094ZM422.961 613.804C423.669 613.024 424.126 612.169 424.33 611.237C424.533 610.276 424.473 609.328 424.15 608.393C423.826 607.428 423.243 606.564 422.402 605.799C421.561 605.035 420.652 604.544 419.676 604.328C418.699 604.082 417.749 604.113 416.828 604.42C415.92 604.712 415.112 605.248 414.403 606.028C413.708 606.793 413.259 607.656 413.056 608.617C412.852 609.548 412.905 610.489 413.213 611.44C413.536 612.375 414.118 613.225 414.959 613.99C415.801 614.754 416.71 615.259 417.687 615.505C418.649 615.737 419.599 615.706 420.536 615.413C421.457 615.105 422.266 614.569 422.961 613.804Z" fill="black"/>
<path d="M438.409 600.976C437.296 602.171 436.032 602.998 434.615 603.458C433.198 603.918 431.775 603.99 430.346 603.675C428.915 603.331 427.61 602.61 426.43 601.511C425.251 600.412 424.446 599.168 424.017 597.78C423.586 596.362 423.558 594.937 423.931 593.506C424.289 592.06 425.025 590.74 426.138 589.545C427.25 588.351 428.508 587.531 429.911 587.086C431.312 586.613 432.729 586.548 434.159 586.892C435.589 587.207 436.893 587.914 438.073 589.012C439.252 590.111 440.057 591.369 440.488 592.787C440.917 594.176 440.953 595.593 440.595 597.038C440.251 598.469 439.522 599.782 438.409 600.976ZM436.504 599.201C437.222 598.43 437.689 597.58 437.905 596.651C438.12 595.693 438.071 594.744 437.76 593.805C437.434 592.851 436.855 591.987 436.023 591.213C435.191 590.438 434.296 589.929 433.337 589.685C432.363 589.427 431.413 589.446 430.488 589.742C429.576 590.023 428.761 590.549 428.043 591.32C427.325 592.091 426.851 592.949 426.621 593.893C426.405 594.822 426.453 595.771 426.766 596.739C427.077 597.679 427.648 598.536 428.48 599.311C429.312 600.085 430.215 600.602 431.189 600.86C432.162 601.088 433.112 601.069 434.038 600.802C434.964 600.506 435.786 599.973 436.504 599.201Z" fill="black"/>
<path d="M444.746 573.485L440.647 577.886L450.764 587.309L448.735 589.487L438.619 580.063L434.519 584.464L432.614 582.689L442.841 571.71L444.746 573.485Z" fill="black"/>
<path d="M460.59 564.742C460.755 564.898 460.959 565.119 461.2 565.405L452.044 575.092C453.223 575.951 454.505 576.295 455.889 576.124C457.272 575.924 458.517 575.239 459.624 574.067C460.973 572.64 461.578 571.037 461.441 569.257L463.966 569.383C464.086 570.52 463.927 571.651 463.491 572.774C463.069 573.882 462.39 574.932 461.453 575.923C460.26 577.185 458.947 578.063 457.514 578.556C456.066 579.036 454.62 579.105 453.178 578.766C451.75 578.411 450.45 577.681 449.279 576.573C448.122 575.48 447.32 574.238 446.871 572.847C446.437 571.442 446.39 570.047 446.731 568.663C447.072 567.25 447.781 565.973 448.86 564.831C449.939 563.69 451.16 562.924 452.523 562.535C453.886 562.117 455.267 562.1 456.667 562.484C458.08 562.854 459.388 563.606 460.59 564.742ZM450.685 566.556C449.705 567.592 449.198 568.762 449.161 570.064C449.139 571.351 449.582 572.537 450.489 573.623L457.729 565.963C456.61 565.132 455.401 564.771 454.103 564.881C452.804 564.961 451.665 565.52 450.685 566.556Z" fill="black"/>
<path d="M474.913 562.114C473.755 563.323 472.457 564.154 471.02 564.609C469.597 565.048 468.173 565.101 466.748 564.765C465.308 564.416 464.006 563.684 462.842 562.568C461.678 561.453 460.899 560.191 460.503 558.781C460.093 557.357 460.085 555.933 460.478 554.506C460.871 553.051 461.647 551.719 462.805 550.51C463.834 549.436 464.966 548.688 466.199 548.267C467.447 547.832 468.703 547.776 469.967 548.1L469.453 550.742C468.529 550.571 467.66 550.626 466.848 550.907C466.035 551.187 465.307 551.663 464.663 552.334C463.92 553.11 463.419 553.976 463.162 554.932C462.919 555.872 462.947 556.829 463.245 557.802C463.543 558.746 464.102 559.611 464.923 560.397C465.758 561.198 466.661 561.734 467.632 562.006C468.602 562.248 469.551 562.228 470.481 561.945C471.425 561.648 472.268 561.111 473.012 560.335C473.655 559.663 474.1 558.916 474.345 558.092C474.591 557.268 474.609 556.398 474.4 555.482L476.995 554.835C477.372 556.084 477.377 557.348 477.01 558.627C476.642 559.878 475.943 561.04 474.913 562.114Z" fill="black"/>
<path d="M481.452 544.936L479.077 547.383L484.062 552.218L481.989 554.355L470.197 542.914L472.269 540.778L477.253 545.613L479.67 543.121L478.399 534.459L480.622 532.167L481.958 542.144L492.717 543.296L490.278 545.81L481.452 544.936Z" fill="black"/>
<path d="M483.267 529.594L485.357 527.475L490.324 532.372L496.897 525.705L491.93 520.808L494.019 518.689L505.719 530.224L503.629 532.343L498.729 527.512L492.156 534.178L497.057 539.01L494.967 541.129L483.267 529.594Z" fill="black"/>
<path d="M507.169 513.054C508.645 511.607 510.099 510.825 511.531 510.708C512.963 510.591 514.278 511.132 515.477 512.33C516.733 513.587 517.281 514.983 517.121 516.517C516.96 518.022 516.09 519.549 514.512 521.098L509.602 525.965L497.984 514.347L500.088 512.243L504.012 516.166L507.169 513.054ZM509.47 502.861L511.575 500.756L523.192 512.374L521.088 514.478L509.47 502.861ZM512.758 519.652C513.723 518.716 514.249 517.81 514.337 516.933C514.439 516.042 514.103 515.209 513.328 514.435C512.568 513.675 511.772 513.36 510.939 513.492C510.106 513.624 509.2 514.164 508.221 515.114L505.547 517.701L510.106 522.26L512.758 519.652Z" fill="black"/>
<path d="M515.89 496.759L518.009 494.67L526.41 503.191L525.184 487.597L527.104 485.703L538.639 497.403L536.52 499.492L528.119 490.971L529.368 506.544L527.425 508.459L515.89 496.759ZM519.863 489.839C518.774 490.912 517.674 491.489 516.563 491.569C515.437 491.634 514.381 491.181 513.394 490.209L514.829 488.794C515.38 489.324 516 489.585 516.686 489.575C517.374 489.536 518.019 489.219 518.622 488.624C519.226 488.029 519.552 487.389 519.6 486.702C519.635 486.001 519.391 485.371 518.868 484.812L520.348 483.353C521.305 484.354 521.736 485.424 521.64 486.563C521.53 487.688 520.937 488.779 519.863 489.839Z" fill="black"/>
<path d="M757.031 284.832L761.654 304.035C762.11 305.792 762.167 307.23 761.825 308.349C761.499 309.455 760.81 310.409 759.758 311.211C759.117 311.7 758.411 312.069 757.64 312.319C756.898 312.573 756.179 312.653 755.484 312.559L755.142 310.014C756.304 310.141 757.329 309.866 758.217 309.19C758.792 308.751 759.149 308.231 759.289 307.631C759.458 307.034 759.417 306.247 759.165 305.27L758.889 304.038L743.177 295.396L745.642 293.516L758.172 300.491L754.714 286.599L757.031 284.832Z" fill="black"/>
<path d="M780.63 284.716L784.463 289.863L782.225 291.529L779.948 288.471L768.934 296.675L771.212 299.732L768.949 301.418L765.116 296.271L765.812 295.753C766.62 295.073 766.756 294.045 766.219 292.666C765.682 291.288 764.694 289.512 763.255 287.337L760.139 282.739L770.357 275.128L778.616 286.216L780.63 284.716ZM765.572 285.882C766.74 287.588 767.624 289.069 768.223 290.323C768.827 291.549 769.034 292.606 768.845 293.494L776.229 287.994L769.526 278.994L763.808 283.253L765.572 285.882Z" fill="black"/>
<path d="M791.098 280.564C789.776 281.521 788.375 282.089 786.896 282.266C785.417 282.444 784.007 282.24 782.665 281.655C781.328 281.041 780.187 280.081 779.241 278.776C778.296 277.47 777.747 276.094 777.594 274.649C777.445 273.175 777.692 271.771 778.335 270.439C778.965 269.089 779.942 267.936 781.264 266.979C782.587 266.021 783.979 265.46 785.441 265.294C786.908 265.1 788.31 265.31 789.647 265.924C790.989 266.509 792.132 267.454 793.078 268.76C794.023 270.066 794.57 271.456 794.718 272.93C794.872 274.375 794.633 275.772 794.003 277.122C793.389 278.459 792.421 279.606 791.098 280.564ZM789.571 278.454C790.425 277.836 791.047 277.093 791.438 276.223C791.834 275.324 791.97 274.384 791.846 273.402C791.71 272.403 791.308 271.444 790.642 270.523C789.975 269.602 789.195 268.93 788.301 268.505C787.395 268.064 786.459 267.9 785.494 268.011C784.546 268.111 783.645 268.47 782.791 269.088C781.937 269.706 781.307 270.456 780.899 271.338C780.508 272.208 780.372 273.148 780.491 274.159C780.615 275.14 781.011 276.092 781.677 277.012C782.344 277.933 783.13 278.614 784.036 279.055C784.947 279.468 785.882 279.632 786.843 279.549C787.808 279.437 788.717 279.073 789.571 278.454Z" fill="black"/>
<path d="M799.083 255.165C800.335 254.287 801.647 253.783 803.02 253.653C804.393 253.523 805.7 253.767 806.942 254.385C808.189 254.975 809.257 255.904 810.147 257.173C811.061 258.476 811.578 259.843 811.698 261.273C811.823 262.675 811.549 264.029 810.874 265.335C810.217 266.629 809.212 267.751 807.858 268.7C805.574 270.303 803.26 270.765 800.916 270.086C798.577 269.379 796.411 267.605 794.417 264.762C792.482 262.005 791.536 259.45 791.578 257.098C791.607 254.729 792.612 252.472 794.59 250.327L799.77 244.648L801.692 246.632L796.888 251.82C795.401 253.444 794.553 255.024 794.343 256.559C794.133 258.095 794.58 259.776 795.684 261.602C795.654 260.335 795.929 259.145 796.51 258.03C797.092 256.916 797.949 255.961 799.083 255.165ZM806.485 266.634C807.347 266.029 807.972 265.301 808.359 264.449C808.763 263.585 808.914 262.684 808.811 261.746C808.697 260.791 808.331 259.874 807.714 258.994C806.776 257.657 805.616 256.868 804.235 256.626C802.853 256.383 801.502 256.725 800.182 257.651C798.863 258.576 798.073 259.736 797.814 261.13C797.571 262.512 797.919 263.871 798.857 265.207C799.474 266.087 800.212 266.743 801.071 267.176C801.935 267.58 802.841 267.739 803.791 267.653C804.741 267.567 805.639 267.228 806.485 266.634Z" fill="black"/>
<path d="M808.917 247.635L811.382 245.969L815.289 251.747L823.045 246.504L819.138 240.725L821.604 239.058L830.805 252.67L828.34 254.337L824.486 248.635L816.73 253.879L820.584 259.58L818.118 261.247L808.917 247.635Z" fill="black"/>
<path d="M835.933 236.423C837.682 235.323 839.269 234.868 840.694 235.058C842.118 235.248 843.288 236.055 844.205 237.481C845.166 238.976 845.405 240.456 844.922 241.921C844.445 243.358 843.271 244.666 841.4 245.844L835.568 249.556L826.683 235.736L829.186 234.126L832.187 238.794L835.933 236.423ZM840.347 226.952L842.851 225.342L851.735 239.163L849.232 240.772L840.347 226.952ZM839.993 244.058C841.134 243.349 841.841 242.575 842.113 241.737C842.402 240.888 842.251 240.002 841.659 239.081C841.077 238.177 840.366 237.701 839.524 237.652C838.682 237.604 837.682 237.94 836.523 238.66L833.361 240.619L836.847 246.043L839.993 244.058Z" fill="black"/>
<path d="M848.007 222.046L850.55 220.501L856.762 230.729L859.162 215.271L861.467 213.871L869.995 227.914L867.452 229.459L861.241 219.232L858.867 234.673L856.535 236.089L848.007 222.046ZM853.468 216.227C852.16 217.021 850.957 217.328 849.857 217.15C848.747 216.954 847.823 216.269 847.087 215.096L848.809 214.051C849.224 214.693 849.767 215.089 850.437 215.238C851.115 215.358 851.816 215.199 852.54 214.759C853.264 214.319 853.729 213.771 853.935 213.114C854.13 212.44 854.038 211.77 853.658 211.106L855.434 210.028C856.135 211.222 856.307 212.362 855.952 213.449C855.585 214.518 854.757 215.444 853.468 216.227Z" fill="black"/>
<path d="M869.139 492.757L856.362 482.428L858.233 480.114L863.392 484.284C863.866 482.382 864.656 480.748 865.76 479.382C867.046 477.791 868.41 476.86 869.851 476.59C871.292 476.32 872.751 476.782 874.23 477.978L878.377 481.33L876.506 483.644L872.504 480.409C871.62 479.694 870.732 479.428 869.84 479.611C868.936 479.81 868.08 480.408 867.275 481.404C866.365 482.529 865.666 483.97 865.176 485.727L871.01 490.443L869.139 492.757Z" fill="black"/>
<path d="M865.391 497.393L863.489 499.682L854.287 492.033L857.049 507.43L855.325 509.504L842.69 499.002L844.592 496.713L853.794 504.362L851.012 488.989L852.756 486.891L865.391 497.393Z" fill="black"/>
<path d="M841.767 521.688L845.632 517.081L835.039 508.195L836.952 505.915L847.544 514.801L851.409 510.193L853.404 511.866L843.762 523.362L841.767 521.688Z" fill="black"/>
<path d="M838.022 530.324C836.545 532.052 834.992 533.008 833.365 533.194C831.724 533.395 830.063 532.777 828.383 531.34L820.844 524.892L822.677 522.748L824.326 524.158C824.068 523.284 824.083 522.36 824.374 521.384C824.666 520.438 825.223 519.486 826.042 518.528C827.238 517.13 828.536 516.296 829.936 516.025C831.324 515.77 832.567 516.113 833.667 517.053C834.766 517.994 835.303 519.146 835.278 520.512C835.268 521.89 834.518 523.451 833.027 525.195L829.964 528.776L830.411 529.159C831.385 529.992 832.373 530.347 833.375 530.225C834.377 530.103 835.348 529.492 836.288 528.392C836.92 527.654 837.412 526.824 837.765 525.903C838.134 524.994 838.323 524.122 838.331 523.286L840.833 523.794C840.801 524.882 840.535 525.987 840.036 527.111C839.553 528.248 838.882 529.319 838.022 530.324ZM827.463 520.396C826.724 521.26 826.275 522.167 826.114 523.118C825.97 524.082 826.13 525.007 826.595 525.894L828.338 527.386L831.32 523.899C832.959 521.982 833.135 520.474 831.847 519.372C831.218 518.835 830.515 518.655 829.738 518.833C828.96 519.011 828.202 519.532 827.463 520.396Z" fill="black"/>
<path d="M824.048 545.629C823.054 546.791 821.909 547.606 820.611 548.074C819.314 548.542 817.987 548.63 816.63 548.34C815.276 548.08 814.01 547.445 812.832 546.438C811.622 545.404 810.781 544.209 810.309 542.853C809.839 541.526 809.768 540.146 810.096 538.714C810.411 537.297 811.105 535.96 812.18 534.703C813.994 532.583 816.12 531.559 818.559 531.633C821 531.736 823.54 532.915 826.179 535.172C828.739 537.362 830.292 539.601 830.837 541.889C831.397 544.191 830.986 546.627 829.604 549.197L826 555.987L823.644 554.544L827.007 548.322C828.043 546.38 828.471 544.639 828.293 543.099C828.114 541.559 827.263 540.042 825.739 538.549C826.083 539.768 826.112 540.99 825.827 542.214C825.541 543.438 824.948 544.576 824.048 545.629ZM814.025 536.362C813.339 537.163 812.916 538.025 812.753 538.946C812.577 539.883 812.655 540.793 812.988 541.676C813.336 542.573 813.919 543.37 814.736 544.069C815.976 545.13 817.296 545.606 818.695 545.497C820.094 545.388 821.317 544.721 822.365 543.495C823.413 542.27 823.889 540.951 823.793 539.536C823.684 538.137 823.009 536.907 821.768 535.846C820.951 535.148 820.073 534.696 819.134 534.491C818.196 534.314 817.278 534.386 816.38 534.705C815.481 535.025 814.696 535.577 814.025 536.362Z" fill="black"/>
<path d="M800.242 560.918C800.071 560.768 799.86 560.555 799.608 560.278L808.414 550.271C807.205 549.455 805.912 549.157 804.535 549.376C803.16 549.625 801.939 550.355 800.875 551.565C799.577 553.039 799.03 554.663 799.231 556.436L796.702 556.4C796.542 555.268 796.66 554.133 797.056 552.995C797.438 551.872 798.08 550.799 798.981 549.775C800.128 548.472 801.409 547.548 802.824 547.004C804.254 546.473 805.696 546.352 807.15 546.64C808.589 546.943 809.914 547.627 811.124 548.692C812.319 549.744 813.165 550.956 813.663 552.33C814.147 553.72 814.243 555.112 813.952 556.507C813.662 557.931 812.998 559.233 811.96 560.412C810.923 561.591 809.73 562.4 808.381 562.837C807.034 563.304 805.655 563.37 804.242 563.035C802.816 562.716 801.483 562.011 800.242 560.918ZM810.075 558.753C811.017 557.683 811.484 556.496 811.474 555.194C811.45 553.906 810.965 552.737 810.02 551.684L803.057 559.597C804.205 560.387 805.426 560.705 806.72 560.549C808.015 560.422 809.133 559.824 810.075 558.753Z" fill="black"/>
<path d="M794.155 580.251L781.905 569.302L783.888 567.084L794.196 576.297L798.907 571.027L796.303 568.451C794.723 566.9 793.475 565.521 792.558 564.314C791.657 563.12 791.096 561.981 790.874 560.896C790.652 559.81 790.933 558.829 791.718 557.95C792.077 557.55 792.552 557.157 793.145 556.773L794.894 558.585C794.668 558.744 794.48 558.908 794.328 559.077C793.778 559.694 793.634 560.397 793.898 561.187C794.162 561.977 794.622 562.749 795.279 563.503C795.936 564.256 796.916 565.284 798.218 566.587L802.563 570.844L794.155 580.251Z" fill="black"/>
<path d="M780.972 586.445C779.555 587.978 778.135 588.839 776.71 589.026C775.286 589.214 773.945 588.739 772.689 587.602C771.371 586.409 770.755 585.042 770.839 583.502C770.925 581.991 771.718 580.422 773.218 578.797L778.026 573.532L790.206 584.56L788.208 586.766L784.095 583.041L780.972 586.445ZM775.062 580.132C774.145 581.114 773.664 582.045 773.62 582.925C773.562 583.82 773.939 584.636 774.751 585.371C775.548 586.092 776.359 586.366 777.184 586.194C777.996 586.036 778.874 585.451 779.818 584.439L782.486 581.585L777.706 577.257L775.062 580.132Z" fill="black"/>
<path d="M778.196 597.872L776.181 600.062L771.048 595.34L764.71 602.23L769.843 606.952L767.829 609.143L755.736 598.019L757.751 595.829L762.816 600.488L769.154 593.598L764.089 588.939L766.104 586.749L778.196 597.872Z" fill="black"/>
<path d="M754.683 615.061C753.256 616.556 751.829 617.386 750.401 617.551C748.974 617.715 747.641 617.219 746.404 616.061C745.106 614.847 744.512 613.47 744.621 611.931C744.732 610.422 745.55 608.866 747.076 607.266L751.821 602.238L763.819 613.463L761.786 615.636L757.734 611.845L754.683 615.061ZM752.722 625.325L750.689 627.499L738.691 616.274L740.724 614.101L752.722 625.325ZM748.876 608.653C747.944 609.62 747.448 610.543 747.39 611.422C747.317 612.317 747.681 613.138 748.481 613.886C749.265 614.62 750.072 614.908 750.9 614.749C751.728 614.59 752.616 614.019 753.563 613.037L756.149 610.363L751.44 605.958L748.876 608.653Z" fill="black"/>
<path d="M746.528 631.762L744.469 633.911L735.83 625.631L737.498 641.185L735.632 643.132L723.77 631.764L725.829 629.615L734.468 637.895L732.778 622.364L734.666 620.394L746.528 631.762ZM742.753 638.793C743.811 637.689 744.894 637.081 746.003 636.97C747.126 636.873 748.195 637.296 749.209 638.239L747.815 639.694C747.248 639.179 746.622 638.937 745.936 638.966C745.25 639.025 744.614 639.36 744.028 639.972C743.441 640.583 743.134 641.233 743.104 641.921C743.09 642.623 743.352 643.245 743.89 643.789L742.453 645.289C741.467 644.316 741.006 643.259 741.07 642.117C741.148 640.99 741.709 639.882 742.753 638.793Z" fill="black"/>
<path d="M365.568 962.96L362.226 943.494C361.887 941.71 361.925 940.272 362.341 939.178C362.74 938.096 363.49 937.19 364.593 936.459C365.265 936.014 365.994 935.692 366.779 935.493C367.537 935.289 368.259 935.257 368.946 935.396L369.12 937.959C367.968 937.755 366.927 937.961 365.997 938.578C365.394 938.977 365.003 939.472 364.824 940.062C364.616 940.646 364.605 941.434 364.791 942.426L364.985 943.674L380.091 953.337L377.507 955.049L365.465 947.26L367.997 961.351L365.568 962.96Z" fill="black"/>
<path d="M362.967 964.774L360.463 966.383L356.692 960.516L348.817 965.579L352.588 971.446L350.085 973.055L341.2 959.235L343.704 957.625L347.425 963.414L355.3 958.352L351.579 952.563L354.082 950.954L362.967 964.774Z" fill="black"/>
<path d="M344.774 976.28L342.222 977.811L336.067 967.55L333.583 982.994L331.27 984.381L322.818 970.292L325.37 968.761L331.526 979.023L333.983 963.594L336.322 962.191L344.774 976.28Z" fill="black"/>
<path d="M312.343 986.022C310.223 986.594 308.643 985.952 307.602 984.095C306.894 982.833 306.826 981.592 307.397 980.371C307.951 979.161 309.165 978.03 311.04 976.979L317.935 973.112L325.97 987.443L319.318 991.173C317.624 992.123 316.117 992.542 314.798 992.428C313.489 992.333 312.506 991.7 311.849 990.528C311.424 989.771 311.262 988.997 311.364 988.205C311.457 987.442 311.783 986.714 312.343 986.022ZM319.972 982.704L316.078 984.887C315.086 985.443 314.439 986.042 314.137 986.686C313.816 987.34 313.848 988.009 314.232 988.694C315 990.064 316.394 990.183 318.413 989.051L322.306 986.868L319.972 982.704ZM312.351 978.873C311.269 979.48 310.554 980.106 310.205 980.752C309.857 981.397 309.884 982.081 310.289 982.802C310.703 983.541 311.264 983.949 311.971 984.027C312.659 984.114 313.536 983.86 314.599 983.264L318.925 980.838L316.515 976.539L312.351 978.873Z" fill="black"/>
<path d="M291.944 996.307C291.84 996.105 291.721 995.829 291.587 995.479L303.433 989.368C302.605 988.167 301.509 987.419 300.147 987.122C298.775 986.852 297.373 987.087 295.941 987.826C294.196 988.727 293.094 990.039 292.635 991.764L290.294 990.809C290.557 989.697 291.08 988.683 291.864 987.767C292.629 986.861 293.617 986.095 294.829 985.47C296.372 984.674 297.902 984.28 299.418 984.288C300.943 984.315 302.33 984.728 303.579 985.525C304.809 986.332 305.794 987.452 306.533 988.885C307.263 990.299 307.609 991.737 307.572 993.197C307.517 994.668 307.099 995.999 306.319 997.192C305.53 998.413 304.438 999.384 303.042 1000.1C301.646 1000.82 300.241 1001.14 298.826 1001.06C297.401 1001 296.093 1000.56 294.899 999.736C293.687 998.919 292.702 997.776 291.944 996.307ZM301.891 997.872C303.158 997.219 304.025 996.283 304.49 995.067C304.937 993.859 304.911 992.593 304.414 991.269L295.047 996.101C295.829 997.256 296.85 997.996 298.112 998.322C299.364 998.676 300.624 998.526 301.891 997.872Z" fill="black"/>
<path d="M283.223 1009.74C281.776 1010.4 280.332 1010.67 278.894 1010.56C277.455 1010.44 276.155 1009.96 274.992 1009.1C273.81 1008.26 272.877 1007.08 272.19 1005.58C271.504 1004.07 271.224 1002.59 271.35 1001.12C271.465 999.682 271.951 998.381 272.806 997.219C273.661 996.056 274.813 995.144 276.26 994.484C277.332 993.995 278.414 993.751 279.505 993.753C280.577 993.763 281.604 994.022 282.585 994.528L279.058 986.801L281.766 985.565L291.084 1005.98L288.489 1007.17L287.408 1004.8C287.184 1005.9 286.706 1006.87 285.973 1007.7C285.249 1008.56 284.333 1009.23 283.223 1009.74ZM277.567 996.75C276.608 997.187 275.852 997.794 275.297 998.57C274.732 999.373 274.413 1000.27 274.341 1001.25C274.259 1002.27 274.454 1003.29 274.926 1004.33C275.398 1005.36 276.039 1006.17 276.851 1006.75C277.652 1007.37 278.537 1007.71 279.505 1007.79C280.455 1007.88 281.409 1007.71 282.368 1007.27C283.308 1006.84 284.06 1006.22 284.625 1005.42C285.18 1004.65 285.503 1003.76 285.594 1002.76C285.666 1001.78 285.466 1000.77 284.994 999.733C284.522 998.699 283.885 997.876 283.084 997.265C282.291 996.673 281.406 996.327 280.43 996.227C279.461 996.147 278.507 996.321 277.567 996.75Z" fill="black"/>
<path d="M258.246 1001.96C259.807 1001.35 261.335 1001.15 262.83 1001.34C264.305 1001.55 265.617 1002.1 266.766 1003.01C267.922 1003.94 268.792 1005.15 269.373 1006.66C269.955 1008.16 270.127 1009.63 269.888 1011.08C269.657 1012.54 269.061 1013.84 268.101 1014.96C267.128 1016.11 265.861 1016.99 264.3 1017.6C262.913 1018.13 261.571 1018.33 260.275 1018.19C258.96 1018.06 257.799 1017.57 256.791 1016.75L258.376 1014.57C259.141 1015.12 259.951 1015.43 260.806 1015.52C261.661 1015.61 262.522 1015.49 263.389 1015.16C264.391 1014.77 265.211 1014.2 265.849 1013.44C266.468 1012.69 266.848 1011.81 266.99 1010.8C267.12 1009.82 266.98 1008.8 266.569 1007.74C266.151 1006.66 265.561 1005.79 264.796 1005.14C264.021 1004.51 263.152 1004.12 262.19 1003.99C261.209 1003.86 260.217 1003.98 259.215 1004.37C258.348 1004.71 257.628 1005.2 257.057 1005.84C256.486 1006.48 256.101 1007.26 255.903 1008.18L253.277 1007.67C253.464 1006.38 253.995 1005.23 254.87 1004.23C255.733 1003.25 256.858 1002.49 258.246 1001.96Z" fill="black"/>
<path d="M247.64 1023.17C245.452 1023.78 243.629 1023.72 242.173 1022.97C240.696 1022.23 239.658 1020.79 239.058 1018.66L236.365 1009.12L239.08 1008.35L239.669 1010.44C239.939 1009.57 240.465 1008.81 241.248 1008.16C242.017 1007.53 243.008 1007.05 244.221 1006.71C245.991 1006.21 247.534 1006.23 248.85 1006.79C250.145 1007.34 250.989 1008.32 251.382 1009.71C251.774 1011.1 251.581 1012.36 250.802 1013.48C250.029 1014.62 248.539 1015.51 246.331 1016.13L241.796 1017.41L241.956 1017.97C242.303 1019.21 242.928 1020.05 243.829 1020.51C244.73 1020.96 245.877 1020.99 247.269 1020.6C248.204 1020.34 249.074 1019.92 249.88 1019.35C250.691 1018.8 251.332 1018.18 251.802 1017.48L253.602 1019.3C252.971 1020.18 252.137 1020.95 251.098 1021.61C250.066 1022.29 248.913 1022.81 247.64 1023.17ZM244.366 1009.05C243.272 1009.36 242.395 1009.86 241.734 1010.56C241.079 1011.29 240.698 1012.15 240.592 1013.14L241.215 1015.35L245.631 1014.1C248.058 1013.42 249.041 1012.26 248.581 1010.63C248.357 1009.83 247.871 1009.3 247.126 1009.01C246.38 1008.73 245.46 1008.74 244.366 1009.05Z" fill="black"/>
<path d="M219.537 1028.03L217.723 1011.7L220.681 1011.37L222.208 1025.11L229.232 1024.33L229.013 1020.68C228.872 1018.47 228.863 1016.61 228.986 1015.1C229.111 1013.61 229.454 1012.38 230.013 1011.43C230.572 1010.47 231.437 1009.93 232.608 1009.8C233.142 1009.74 233.758 1009.76 234.456 1009.87L234.549 1012.39C234.275 1012.36 234.025 1012.35 233.799 1012.38C232.977 1012.47 232.401 1012.9 232.07 1013.66C231.739 1014.43 231.567 1015.31 231.553 1016.31C231.54 1017.31 231.583 1018.73 231.683 1020.57L232.077 1026.64L219.537 1028.03Z" fill="black"/>
<path d="M203.595 1020.84C201.559 1020.38 200.104 1019.58 199.23 1018.44C198.356 1017.3 198.098 1015.9 198.456 1014.24C198.831 1012.5 199.708 1011.29 201.085 1010.59C202.437 1009.91 204.191 1009.81 206.348 1010.3L213.311 1011.84L209.839 1027.9L206.93 1027.27L208.103 1021.84L203.595 1020.84ZM206.113 1012.57C204.804 1012.26 203.757 1012.31 202.973 1012.71C202.168 1013.11 201.65 1013.84 201.419 1014.91C201.192 1015.96 201.359 1016.8 201.921 1017.43C202.462 1018.06 203.408 1018.52 204.757 1018.84L208.561 1019.72L209.924 1013.42L206.113 1012.57Z" fill="black"/>
<path d="M186.34 1019.93L184.266 1017.8L189.267 1012.94L182.741 1006.23L177.74 1011.09L175.665 1008.95L187.445 997.5L189.52 999.634L184.585 1004.43L191.111 1011.14L196.046 1006.35L198.12 1008.48L186.34 1019.93Z" fill="black"/>
<path d="M174.316 988.317C174.115 986.26 174.418 984.637 175.225 983.448C176.033 982.26 177.279 981.574 178.964 981.393C180.731 981.203 182.161 981.651 183.255 982.739C184.327 983.808 184.971 985.443 185.187 987.644L185.897 994.521L169.561 996.281L169.243 993.322L174.76 992.728L174.316 988.317ZM167.821 980.13L167.502 977.172L183.838 975.411L184.157 978.37L167.821 980.13ZM182.96 988.102C182.837 986.765 182.461 985.786 181.834 985.168C181.203 984.529 180.344 984.269 179.255 984.386C178.186 984.501 177.442 984.924 177.022 985.655C176.602 986.387 176.455 987.431 176.58 988.79L176.917 992.495L183.328 991.804L182.96 988.102Z" fill="black"/>
<path d="M168.87 967.565L169.466 964.65L181.19 967.045L171.483 954.779L172.023 952.136L188.12 955.426L187.525 958.342L175.801 955.946L185.514 968.182L184.967 970.855L168.87 967.565ZM168.314 959.605C168.007 961.103 167.415 962.195 166.537 962.88C165.638 963.561 164.509 963.774 163.148 963.517L163.551 961.542C164.305 961.675 164.964 961.546 165.529 961.155C166.078 960.74 166.437 960.118 166.607 959.287C166.776 958.457 166.69 957.744 166.348 957.146C165.986 956.545 165.432 956.158 164.687 955.984L165.103 953.949C166.455 954.247 167.409 954.895 167.964 955.895C168.499 956.89 168.616 958.127 168.314 959.605Z" fill="black"/>
<path d="M846.393 972.986L843.89 971.377L847.661 965.51L839.786 960.447L836.014 966.314L833.511 964.705L842.396 950.884L844.899 952.494L841.178 958.283L849.053 963.345L852.774 957.556L855.278 959.166L846.393 972.986Z" fill="black"/>
<path d="M823.553 958.359C821.658 957.103 820.519 955.679 820.136 954.086C819.736 952.483 820.147 950.759 821.368 948.916L826.848 940.646L829.2 942.205L828.001 944.014C828.837 943.65 829.757 943.553 830.76 943.722C831.735 943.897 832.748 944.333 833.799 945.029C835.332 946.045 836.318 947.232 836.758 948.589C837.18 949.935 836.991 951.211 836.192 952.417C835.393 953.623 834.315 954.296 832.957 954.438C831.587 954.596 829.946 954.042 828.034 952.775L824.106 950.172L823.781 950.663C823.073 951.731 822.841 952.755 823.084 953.734C823.328 954.714 824.052 955.603 825.258 956.402C826.068 956.939 826.952 957.326 827.91 957.564C828.856 957.819 829.745 957.9 830.576 957.806L830.377 960.351C829.293 960.452 828.164 960.323 826.988 959.965C825.8 959.625 824.655 959.089 823.553 958.359ZM832.118 946.667C831.171 946.04 830.215 945.704 829.252 945.661C828.278 945.635 827.379 945.907 826.555 946.477L825.288 948.389L829.112 950.923C831.214 952.316 832.733 952.306 833.669 950.893C834.126 950.204 834.218 949.485 833.947 948.734C833.675 947.984 833.066 947.295 832.118 946.667Z" fill="black"/>
<path d="M806.494 945.997C805.238 945.124 804.313 944.065 803.718 942.821C803.123 941.577 802.902 940.265 803.055 938.887C803.179 937.513 803.683 936.19 804.568 934.917C805.476 933.611 806.581 932.655 807.883 932.049C809.156 931.449 810.522 931.241 811.98 931.424C813.421 931.595 814.821 932.153 816.178 933.096C818.469 934.689 819.7 936.702 819.87 939.136C820.012 941.576 819.092 944.221 817.11 947.071C815.188 949.838 813.115 951.606 810.893 952.377C808.659 953.165 806.194 952.999 803.499 951.881L796.383 948.973L797.584 946.485L804.11 949.209C806.146 950.046 807.921 950.298 809.435 949.966C810.949 949.635 812.373 948.636 813.707 946.971C812.528 947.435 811.316 947.587 810.069 947.425C808.823 947.263 807.631 946.787 806.494 945.997ZM814.712 935.097C813.846 934.496 812.947 934.16 812.014 934.09C811.064 934.009 810.166 934.178 809.321 934.597C808.464 935.033 807.729 935.693 807.116 936.575C806.184 937.916 805.842 939.276 806.09 940.657C806.339 942.038 807.125 943.188 808.448 944.108C809.772 945.028 811.133 945.37 812.53 945.134C813.911 944.885 815.067 944.091 815.999 942.75C816.613 941.868 816.974 940.949 817.085 939.994C817.166 939.044 817.003 938.137 816.596 937.275C816.188 936.413 815.56 935.687 814.712 935.097Z" fill="black"/>
<path d="M800.028 921.792C801.356 922.742 802.338 923.891 802.976 925.237C803.613 926.583 803.868 927.985 803.738 929.443C803.581 930.906 803.032 932.293 802.094 933.603C801.155 934.914 800.025 935.871 798.703 936.475C797.352 937.084 795.943 937.295 794.475 937.108C792.996 936.938 791.592 936.378 790.265 935.427C788.937 934.477 787.963 933.335 787.342 932.001C786.693 930.671 786.447 929.275 786.605 927.812C786.734 926.354 787.268 924.97 788.206 923.659C789.145 922.348 790.289 921.389 791.64 920.78C792.962 920.176 794.363 919.959 795.843 920.129C797.306 920.287 798.701 920.841 800.028 921.792ZM798.512 923.909C797.655 923.295 796.753 922.941 795.804 922.846C794.826 922.756 793.891 922.926 792.999 923.355C792.096 923.801 791.313 924.485 790.651 925.41C789.989 926.334 789.599 927.287 789.48 928.27C789.349 929.269 789.49 930.208 789.902 931.088C790.297 931.956 790.924 932.697 791.781 933.31C792.638 933.924 793.549 934.284 794.515 934.391C795.463 934.486 796.398 934.316 797.319 933.882C798.211 933.453 798.987 932.777 799.649 931.853C800.311 930.929 800.707 929.967 800.838 928.968C800.94 927.973 800.799 927.034 800.416 926.149C800.004 925.269 799.369 924.523 798.512 923.909Z" fill="black"/>
<path d="M772.617 922.971C771.331 922.034 770.385 920.91 769.78 919.6C769.174 918.29 768.959 916.918 769.133 915.486C769.291 914.041 769.856 912.65 770.829 911.314C771.803 909.977 772.959 909.004 774.298 908.394C775.608 907.789 776.98 907.573 778.413 907.748C779.845 907.922 781.205 908.478 782.491 909.415C783.443 910.108 784.186 910.931 784.721 911.882C785.238 912.822 785.517 913.843 785.557 914.946L790.558 908.08L792.964 909.832L779.749 927.974L777.444 926.295L778.977 924.19C777.907 924.536 776.829 924.594 775.743 924.365C774.644 924.153 773.602 923.688 772.617 922.971ZM781.158 911.665C780.306 911.045 779.406 910.683 778.458 910.581C777.481 910.483 776.545 910.645 775.65 911.066C774.726 911.493 773.929 912.165 773.26 913.084C772.591 914.003 772.201 914.959 772.091 915.953C771.952 916.951 772.085 917.891 772.49 918.775C772.878 919.645 773.499 920.391 774.35 921.012C775.186 921.62 776.092 921.973 777.069 922.071C778.017 922.174 778.947 922.02 779.859 921.611C780.754 921.189 781.536 920.519 782.206 919.6C782.875 918.681 783.279 917.723 783.418 916.724C783.545 915.743 783.412 914.802 783.019 913.903C782.614 913.019 781.994 912.274 781.158 911.665Z" fill="black"/>
<path d="M762.445 915.112L760.07 913.318L764.274 907.752L756.803 902.11L752.599 907.676L750.225 905.883L760.126 892.772L762.501 894.565L758.354 900.057L765.824 905.699L769.972 900.207L772.347 902.001L762.445 915.112Z" fill="black"/>
<path d="M743.098 893.323C741.474 892.043 740.514 890.701 740.215 889.295C739.916 887.89 740.285 886.516 741.321 885.175C742.407 883.768 743.721 883.047 745.264 883.01C746.777 882.978 748.403 883.646 750.14 885.013L755.593 889.263L745.552 902.267L743.196 900.448L746.587 896.056L743.098 893.323ZM732.694 892.34L730.339 890.521L740.38 877.516L742.736 879.335L732.694 892.34ZM748.929 886.937C747.878 886.1 746.913 885.694 746.032 885.718C745.135 885.731 744.351 886.17 743.682 887.037C743.025 887.888 742.815 888.718 743.052 889.527C743.288 890.337 743.94 891.166 745.007 892.016L747.914 894.339L751.854 889.235L748.929 886.937Z" fill="black"/>
<path d="M725.623 886.785L723.296 884.93L730.753 875.572L715.416 878.651L713.307 876.97L723.546 864.121L725.874 865.976L718.416 875.334L733.729 872.235L735.862 873.935L725.623 886.785ZM718.277 883.666C719.473 884.619 720.177 885.643 720.389 886.736C720.588 887.846 720.264 888.949 719.418 890.045L717.842 888.789C718.302 888.178 718.487 887.533 718.395 886.852C718.274 886.174 717.883 885.571 717.22 885.043C716.557 884.515 715.882 884.268 715.195 884.302C714.494 884.351 713.898 884.669 713.405 885.254L711.781 883.96C712.66 882.889 713.671 882.334 714.813 882.293C715.943 882.268 717.098 882.726 718.277 883.666Z" fill="black"/>
<path d="M294.09 191.562L287.204 206.479L284.755 205.349L289.784 194.456L279.962 201.087L278.78 200.542L277.525 188.763L272.484 199.684L270.007 198.54L276.893 183.623L279.68 184.909L280.882 197.688L291.557 190.393L294.09 191.562Z" fill="black"/>
<path d="M299.817 194.477L302.451 195.863L299.203 202.036L307.488 206.395L310.736 200.222L313.37 201.608L305.72 216.148L303.086 214.762L306.29 208.672L298.005 204.313L294.801 210.403L292.167 209.017L299.817 194.477Z" fill="black"/>
<path d="M316.72 222.465C315.304 221.651 314.212 220.607 313.444 219.331C312.675 218.055 312.283 216.685 312.266 215.221C312.277 213.75 312.684 212.315 313.488 210.918C314.291 209.52 315.32 208.455 316.575 207.722C317.859 206.982 319.24 206.632 320.719 206.671C322.209 206.693 323.661 207.111 325.076 207.924C326.492 208.738 327.575 209.777 328.326 211.043C329.104 212.301 329.488 213.665 329.477 215.137C329.494 216.601 329.1 218.031 328.297 219.429C327.494 220.826 326.451 221.895 325.167 222.636C323.912 223.368 322.539 223.724 321.05 223.702C319.579 223.691 318.135 223.278 316.72 222.465ZM318.017 220.207C318.931 220.732 319.865 220.995 320.818 220.995C321.8 220.987 322.713 220.725 323.558 220.209C324.413 219.676 325.124 218.916 325.69 217.931C326.256 216.945 326.55 215.958 326.57 214.968C326.601 213.961 326.367 213.04 325.869 212.206C325.39 211.382 324.693 210.707 323.779 210.182C322.865 209.657 321.922 209.389 320.951 209.379C319.997 209.379 319.084 209.641 318.211 210.164C317.367 210.68 316.661 211.43 316.095 212.416C315.528 213.402 315.23 214.398 315.199 215.405C315.197 216.405 315.43 217.326 315.9 218.168C316.398 219.002 317.103 219.682 318.017 220.207Z" fill="black"/>
<path d="M345.274 223.22L337.475 218.504L330.321 230.336L327.774 228.796L336.276 214.736L346.621 220.992L345.274 223.22Z" fill="black"/>
<path d="M345.926 240.053C344.541 239.189 343.487 238.106 342.765 236.803C342.043 235.501 341.7 234.118 341.735 232.654C341.799 231.184 342.258 229.765 343.111 228.397C343.964 227.03 345.031 226.002 346.312 225.315C347.621 224.621 349.014 224.321 350.49 224.414C351.978 224.489 353.414 224.958 354.8 225.822C356.185 226.686 357.23 227.764 357.935 229.055C358.668 230.341 359.002 231.718 358.938 233.188C358.902 234.652 358.458 236.067 357.605 237.435C356.752 238.803 355.671 239.834 354.362 240.527C353.081 241.214 351.697 241.52 350.209 241.445C348.739 241.381 347.312 240.917 345.926 240.053ZM347.304 237.844C348.198 238.401 349.122 238.697 350.075 238.731C351.056 238.759 351.979 238.53 352.841 238.045C353.715 237.542 354.452 236.809 355.054 235.844C355.655 234.88 355.984 233.903 356.04 232.915C356.106 231.91 355.906 230.981 355.439 230.129C354.989 229.289 354.316 228.589 353.422 228.032C352.528 227.474 351.595 227.173 350.625 227.128C349.672 227.094 348.75 227.322 347.859 227.814C346.996 228.299 346.264 229.024 345.663 229.988C345.061 230.953 344.727 231.938 344.66 232.944C344.622 233.943 344.822 234.871 345.261 235.73C345.729 236.581 346.41 237.286 347.304 237.844Z" fill="black"/>
<path d="M378.551 251.445C377.144 253.562 375.328 254.763 373.105 255.047C370.881 255.331 368.441 254.689 365.785 253.123L362.576 257.95L360.15 256.337L363.358 251.51C360.885 249.667 359.344 247.675 358.733 245.532C358.151 243.383 358.569 241.242 359.988 239.108C361.395 236.991 363.19 235.802 365.374 235.541C367.557 235.28 369.986 235.938 372.659 237.516L376.211 232.172L378.638 233.785L375.086 239.129C377.559 240.972 379.101 242.964 379.711 245.107C380.333 247.233 379.946 249.346 378.551 251.445ZM362.441 240.738C361.468 242.201 361.172 243.654 361.553 245.098C361.95 246.553 363.038 247.959 364.817 249.315L371.2 239.711C369.244 238.584 367.533 238.117 366.066 238.308C364.598 238.499 363.39 239.309 362.441 240.738ZM367.227 250.954C371.173 253.155 374.13 252.776 376.098 249.815C377.059 248.369 377.329 246.936 376.909 245.515C376.5 244.077 375.406 242.68 373.627 241.324L367.227 250.954Z" fill="black"/>
<path d="M398.392 255.337L381.534 265.63C380.002 266.603 378.651 267.099 377.481 267.116C376.328 267.145 375.209 266.783 374.123 266.028C373.461 265.568 372.893 265.009 372.418 264.352C371.949 263.724 371.652 263.064 371.528 262.374L373.845 261.267C374.081 262.412 374.657 263.303 375.573 263.94C376.167 264.353 376.772 264.534 377.386 264.483C378.006 264.461 378.742 264.18 379.595 263.64L380.683 262.999L384.086 245.393L386.632 247.163L383.839 261.229L395.999 253.674L398.392 255.337Z" fill="black"/>
<path d="M401.043 257.108L403.465 258.837L399.413 264.515L407.033 269.954L411.085 264.277L413.507 266.006L403.962 279.378L401.54 277.649L405.538 272.048L397.918 266.609L393.92 272.21L391.497 270.481L401.043 257.108Z" fill="black"/>
<path d="M417.898 280.824L415.141 278.816L411.053 284.429L408.647 282.677L418.321 269.396L420.726 271.148L416.638 276.761L419.444 278.805L427.843 276.332L430.424 278.212L420.733 280.933L421.101 291.748L418.269 289.685L417.898 280.824Z" fill="black"/>
<path d="M439.048 302.199L435.108 307.42L432.856 305.721L435.227 302.578L423.474 293.708L433.371 280.594L435.746 282.386L427.418 293.423L434.594 298.838L442.922 287.802L445.298 289.594L436.969 300.631L439.048 302.199Z" fill="black"/>
<path d="M450.488 293.633L452.844 295.451L445.531 304.923L460.818 301.609L462.953 303.257L452.912 316.262L450.556 314.443L457.869 304.972L442.606 308.304L440.447 306.637L450.488 293.633Z" fill="black"/>
<path d="M462.753 324.393C461.474 323.377 460.551 322.181 459.982 320.804C459.413 319.428 459.229 318.015 459.431 316.565C459.662 315.112 460.279 313.754 461.282 312.492C462.285 311.23 463.462 310.331 464.813 309.794C466.193 309.254 467.611 309.114 469.067 309.374C470.536 309.618 471.91 310.248 473.188 311.264C474.466 312.28 475.382 313.47 475.935 314.833C476.517 316.193 476.692 317.6 476.461 319.053C476.259 320.503 475.657 321.859 474.654 323.121C473.651 324.383 472.459 325.284 471.079 325.824C469.729 326.361 468.319 326.507 466.849 326.263C465.396 326.032 464.031 325.409 462.753 324.393ZM464.373 322.354C465.198 323.01 466.082 323.409 467.025 323.552C467.997 323.691 468.939 323.568 469.851 323.184C470.776 322.785 471.592 322.14 472.3 321.25C473.007 320.36 473.445 319.428 473.613 318.452C473.793 317.461 473.7 316.515 473.333 315.616C472.981 314.73 472.393 313.958 471.568 313.303C470.743 312.647 469.851 312.241 468.892 312.086C467.949 311.944 467.007 312.066 466.065 312.453C465.153 312.837 464.343 313.474 463.636 314.363C462.929 315.253 462.485 316.194 462.304 317.185C462.152 318.173 462.245 319.119 462.584 320.022C462.951 320.921 463.548 321.698 464.373 322.354Z" fill="black"/>
<path d="M483.281 319.341L485.594 321.214L481.203 326.634L488.478 332.527L492.869 327.107L495.181 328.981L484.839 341.747L482.527 339.874L486.859 334.526L479.584 328.633L475.252 333.981L472.94 332.108L483.281 319.341Z" fill="black"/>
<path d="M504.388 336.347C506.141 337.795 507.124 339.331 507.338 340.954C507.568 342.591 506.978 344.262 505.57 345.967L499.254 353.616L497.078 351.82L498.46 350.147C497.591 350.421 496.666 350.421 495.686 350.147C494.735 349.871 493.773 349.332 492.801 348.529C491.383 347.358 490.526 346.074 490.231 344.678C489.953 343.296 490.274 342.047 491.195 340.931C492.116 339.816 493.26 339.259 494.625 339.261C496.004 339.247 497.577 339.97 499.346 341.431L502.979 344.431L503.354 343.977C504.17 342.989 504.509 341.995 504.369 340.995C504.23 339.996 503.602 339.035 502.487 338.114C501.738 337.496 500.9 337.018 499.972 336.681C499.057 336.328 498.182 336.154 497.346 336.16L497.811 333.65C498.899 333.664 500.009 333.91 501.141 334.389C502.286 334.852 503.368 335.505 504.388 336.347ZM494.644 347.076C495.52 347.8 496.435 348.234 497.389 348.377C498.355 348.505 499.278 348.329 500.157 347.849L501.617 346.08L498.08 343.159C496.136 341.553 494.624 341.404 493.545 342.711C493.019 343.348 492.851 344.054 493.042 344.829C493.234 345.603 493.768 346.352 494.644 347.076Z" fill="black"/>
<path d="M524.71 353.355L514.208 365.99L511.92 364.088L520.757 353.455L515.322 348.937L512.84 351.631C511.347 353.266 510.014 354.563 508.84 355.522C507.68 356.466 506.561 357.068 505.485 357.329C504.408 357.589 503.417 357.343 502.511 356.59C502.098 356.247 501.688 355.785 501.283 355.206L503.031 353.394C503.198 353.614 503.369 353.796 503.544 353.941C504.179 354.47 504.887 354.588 505.668 354.296C506.448 354.004 507.203 353.516 507.932 352.832C508.661 352.149 509.654 351.133 510.909 349.784L515.007 345.29L524.71 353.355Z" fill="black"/>
<path d="M531.336 366.505C532.909 367.877 533.809 369.273 534.037 370.692C534.265 372.11 533.828 373.464 532.727 374.752C531.571 376.103 530.222 376.757 528.68 376.717C527.167 376.673 525.577 375.925 523.91 374.472L518.511 369.814L529.19 357.327L531.452 359.262L527.845 363.479L531.336 366.505ZM525.192 372.591C526.2 373.48 527.144 373.934 528.025 373.953C528.922 373.986 529.726 373.586 530.438 372.754C531.136 371.937 531.388 371.118 531.192 370.298C531.012 369.491 530.402 368.63 529.363 367.714L526.435 365.128L522.244 370.029L525.192 372.591Z" fill="black"/>
<path d="M542.849 369.092L545.084 371.058L540.476 376.294L547.504 382.479L552.112 377.243L554.346 379.209L543.492 391.543L541.258 389.577L545.804 384.41L538.776 378.226L534.229 383.392L531.995 381.426L542.849 369.092Z" fill="black"/>
<path d="M560.651 391.997C562.185 393.382 563.053 394.786 563.257 396.209C563.461 397.631 563.002 398.977 561.878 400.246C560.7 401.577 559.341 402.208 557.799 402.141C556.287 402.073 554.71 401.298 553.068 399.817L547.912 395.212L558.801 382.908L561.029 384.881L557.352 389.036L560.651 391.997ZM570.965 393.674L573.193 395.646L562.304 407.95L560.076 405.978L570.965 393.674ZM554.405 397.978C555.397 398.884 556.334 399.354 557.214 399.388C558.11 399.436 558.921 399.05 559.647 398.23C560.359 397.425 560.625 396.611 560.443 395.787C560.261 394.964 559.666 394.092 558.658 393.173L555.913 390.661L551.64 395.49L554.405 397.978Z" fill="black"/>
<path d="M577.601 399.593L579.812 401.586L571.8 410.474L587.295 408.331L589.299 410.137L578.298 422.341L576.088 420.349L584.099 411.46L568.627 413.624L566.601 411.798L577.601 399.593ZM584.744 403.152C583.608 402.128 582.967 401.064 582.822 399.959C582.691 398.839 583.081 397.758 583.993 396.716L585.489 398.065C584.993 398.647 584.77 399.28 584.82 399.965C584.899 400.649 585.254 401.274 585.883 401.842C586.512 402.409 587.171 402.697 587.859 402.705C588.561 402.698 589.176 402.417 589.703 401.863L591.246 403.254C590.304 404.268 589.261 404.761 588.118 404.733C586.989 404.689 585.864 404.162 584.744 403.152Z" fill="black"/>
</g>
<defs>
<clipPath id="clip0">
<rect width="1196.21" height="1196.09" fill="white"/>
</clipPath>
</defs>
</svg>
