<svg width="1280" height="378" viewBox="0 0 1280 378" fill="none" xmlns="http://www.w3.org/2000/svg">
<path fill-rule="evenodd" clip-rule="evenodd" d="M428.131 377.5H324.131V372.5H428.131V377.5Z" fill="#1612E3"/>
<path fill-rule="evenodd" clip-rule="evenodd" d="M690.631 377H574.131V372H690.631V377Z" fill="#1612E3"/>
<path fill-rule="evenodd" clip-rule="evenodd" d="M893.131 377H774.631V372H893.131V377Z" fill="#1612E3"/>
<path fill-rule="evenodd" clip-rule="evenodd" d="M755.631 267H775.631V268H755.631V267Z" fill="#1612E3"/>
<path fill-rule="evenodd" clip-rule="evenodd" d="M755.631 291H775.631V292H755.631V291Z" fill="#1612E3"/>
<path fill-rule="evenodd" clip-rule="evenodd" d="M755.131 314H775.131V315H755.131V314Z" fill="#1612E3"/>
<path fill-rule="evenodd" clip-rule="evenodd" d="M754.631 337H774.631V338H754.631V337Z" fill="#1612E3"/>
<path fill-rule="evenodd" clip-rule="evenodd" d="M754.131 360H774.131V361H754.131V360Z" fill="#1612E3"/>
<path fill-rule="evenodd" clip-rule="evenodd" d="M755.631 107H775.631V108H755.631V107Z" fill="#1612E3"/>
<path fill-rule="evenodd" clip-rule="evenodd" d="M755.631 131H775.631V132H755.631V131Z" fill="#1612E3"/>
<path fill-rule="evenodd" clip-rule="evenodd" d="M755.631 153H775.631V154H755.631V153Z" fill="#1612E3"/>
<path fill-rule="evenodd" clip-rule="evenodd" d="M755.631 175H775.631V176H755.631V175Z" fill="#1612E3"/>
<path fill-rule="evenodd" clip-rule="evenodd" d="M755.631 199H775.631V200H755.631V199Z" fill="#1612E3"/>
<path fill-rule="evenodd" clip-rule="evenodd" d="M754.631 222H774.631V223H754.631V222Z" fill="#1612E3"/>
<path fill-rule="evenodd" clip-rule="evenodd" d="M755.631 243H775.631V244H755.631V243Z" fill="#1612E3"/>
<path fill-rule="evenodd" clip-rule="evenodd" d="M73.281 207.432L77.1315 206.522V5H163.132V206.522L166.982 207.432C247.65 226.486 309.72 293.675 321.216 377H326.263C314.732 291.299 251.01 222.142 168.132 202.565V0H72.1315V202.565C-10.7466 222.142 -74.4687 291.299 -86 377H-80.9531C-69.4569 293.675 -7.38713 226.486 73.281 207.432Z" fill="#1612E3"/>
<path fill-rule="evenodd" clip-rule="evenodd" d="M1038.21 314.493L1042.36 313.777V112H1163.9V313.777L1168.05 314.493C1224.99 324.309 1274.83 346.612 1312.16 377H1319.95C1281.31 343.974 1228.75 319.883 1168.9 309.565V107H1037.36V309.565C977.511 319.883 924.951 343.974 886.309 377H894.105C931.432 346.612 981.272 324.309 1038.21 314.493Z" fill="#1612E3"/>
<path fill-rule="evenodd" clip-rule="evenodd" d="M694.131 45.6501H774.131V377H778.131V41H690.131V377H694.131V45.6501Z" fill="#1612E3"/>
<path fill-rule="evenodd" clip-rule="evenodd" d="M428.86 377L465.451 313.622V180H536.451V315.353L572.043 377H577.816L541.451 314.014V175H460.451V312.282L423.086 377H428.86Z" fill="#1612E3"/>
</svg>
