<svg width="1209" height="678" viewBox="0 0 1209 678" fill="none" xmlns="http://www.w3.org/2000/svg">
<path d="M957.289 1.90809H949.156V1.31377H966.047V1.90809H957.914V23.2099H957.289V1.90809Z" fill="black"/>
<path d="M977.178 6.9442C979.2 6.9442 980.785 7.52809 981.932 8.69589C983.079 9.84283 983.652 11.5007 983.652 13.6694V23.2099H983.027V13.6694C983.027 11.6884 982.516 10.1765 981.494 9.13381C980.493 8.07028 979.065 7.53852 977.209 7.53852C975.103 7.53852 973.435 8.17455 972.204 9.44661C970.995 10.6978 970.39 12.3557 970.39 14.4202V23.2099H969.764V0H970.39V11.3547C970.891 9.97837 971.725 8.90442 972.892 8.13284C974.06 7.34041 975.489 6.9442 977.178 6.9442Z" fill="black"/>
<path d="M990.658 7.03804H991.283V23.2099H990.658V7.03804ZM990.971 2.56497C990.741 2.56497 990.543 2.48156 990.376 2.31473C990.23 2.1479 990.157 1.96022 990.157 1.75169C990.157 1.5223 990.23 1.33462 990.376 1.18865C990.543 1.02182 990.741 0.938406 990.971 0.938406C991.179 0.938406 991.367 1.02182 991.534 1.18865C991.7 1.33462 991.784 1.5223 991.784 1.75169C991.784 1.96022 991.7 2.1479 991.534 2.31473C991.367 2.48156 991.179 2.56497 990.971 2.56497Z" fill="black"/>
<path d="M1005.89 6.9442C1007.91 6.9442 1009.5 7.52809 1010.64 8.69589C1011.79 9.84283 1012.37 11.5007 1012.37 13.6694V23.2099H1011.74V13.6694C1011.74 11.6884 1011.23 10.1765 1010.21 9.13381C1009.21 8.07028 1007.78 7.53852 1005.92 7.53852C1003.82 7.53852 1002.15 8.17455 1000.92 9.44661C999.708 10.6978 999.103 12.3557 999.103 14.4202V23.2099H998.477V7.03804H999.103V11.3547C999.603 9.97837 1000.44 8.90442 1001.61 8.13284C1002.77 7.34041 1004.2 6.9442 1005.89 6.9442Z" fill="black"/>
<path d="M959.916 40.4068H951.784L951.909 39.8124H968.799L968.674 40.4068H960.542L956.288 61.7086H955.662L959.916 40.4068Z" fill="black"/>
<path d="M978.46 45.4429C980.316 45.4429 981.723 45.8912 982.683 46.7879C983.642 47.6846 984.121 48.9045 984.121 50.4477C984.121 50.9899 984.059 51.5634 983.934 52.1681L982.026 61.7086H981.4L983.308 52.1681C983.433 51.5634 983.496 51.0107 983.496 50.5103C983.496 49.0922 983.058 47.9974 982.182 47.2258C981.327 46.4334 980.066 46.0372 978.397 46.0372C976.333 46.0372 974.613 46.6107 973.236 47.7576C971.881 48.9045 970.984 50.5624 970.546 52.7311L968.764 61.7086H968.138L972.767 38.4987H973.393L971.203 49.478C972.726 46.7879 975.144 45.4429 978.46 45.4429Z" fill="black"/>
<path d="M992.253 45.5367H992.879L989.657 61.7086H989.031L992.253 45.5367ZM993.567 41.0636C993.358 41.0636 993.181 40.9907 993.035 40.8447C992.889 40.6987 992.816 40.5215 992.816 40.3129C992.816 40.0835 992.899 39.8854 993.066 39.7186C993.254 39.5309 993.462 39.4371 993.692 39.4371C993.9 39.4371 994.078 39.5101 994.224 39.656C994.37 39.802 994.442 39.9793 994.442 40.1878C994.442 40.4172 994.349 40.6257 994.161 40.8134C993.994 40.9802 993.796 41.0636 993.567 41.0636Z" fill="black"/>
<path d="M1007.17 45.4429C1009.03 45.4429 1010.44 45.8912 1011.4 46.7879C1012.35 47.6846 1012.83 48.9045 1012.83 50.4477C1012.83 50.9899 1012.77 51.5634 1012.65 52.1681L1010.74 61.7086H1010.11L1012.02 52.1681C1012.15 51.5634 1012.21 51.0107 1012.21 50.5103C1012.21 49.0922 1011.77 47.9974 1010.9 47.2258C1010.04 46.4334 1008.78 46.0372 1007.11 46.0372C1005.05 46.0372 1003.33 46.6107 1001.95 47.7576C1000.59 48.9045 999.697 50.5624 999.259 52.7311L997.477 61.7086H996.851L1000.07 45.5367H1000.7L999.916 49.478C1001.44 46.7879 1003.86 45.4429 1007.17 45.4429Z" fill="black"/>
<path d="M1030.51 39.8124H1031.13L1026.75 61.7086H1026.13L1030.51 39.8124Z" fill="black"/>
<path d="M1036.27 57.3606C1036.16 57.9237 1036.11 58.372 1036.11 58.7057C1036.11 60.3739 1037.03 61.2081 1038.86 61.2081C1039.93 61.2081 1040.87 60.8744 1041.71 60.2071L1042.05 60.645C1041.63 61.0204 1041.13 61.3123 1040.55 61.5209C1039.97 61.7086 1039.38 61.8024 1038.8 61.8024C1037.71 61.8024 1036.89 61.5417 1036.33 61.0204C1035.76 60.4782 1035.48 59.717 1035.48 58.7369C1035.48 58.3199 1035.53 57.9132 1035.61 57.517L1037.89 46.131H1034.76L1034.86 45.5367H1037.99L1038.71 42.002H1039.33L1038.61 45.5367H1044.09L1043.99 46.131H1038.52L1036.27 57.3606Z" fill="black"/>
<path d="M1063.08 45.5367L1059.85 61.7086H1059.23L1060.07 57.4857C1059.3 58.8412 1058.25 59.9047 1056.91 60.6763C1055.6 61.427 1054.12 61.8024 1052.47 61.8024C1050.37 61.8024 1048.69 61.2185 1047.44 60.0507C1046.21 58.8621 1045.59 57.2563 1045.59 55.2336C1045.59 53.3776 1045.98 51.7093 1046.75 50.2287C1047.54 48.7481 1048.63 47.5803 1050 46.7254C1051.4 45.8704 1052.97 45.4429 1054.73 45.4429C1056.64 45.4429 1058.18 45.9121 1059.32 46.8505C1060.47 47.768 1061.16 49.0818 1061.39 50.7918L1062.45 45.5367H1063.08ZM1052.57 61.2081C1054.15 61.2081 1055.58 60.8119 1056.85 60.0194C1058.14 59.227 1059.16 58.1322 1059.89 56.735C1060.62 55.3378 1060.98 53.7738 1060.98 52.043C1060.98 50.1453 1060.42 48.6751 1059.29 47.6325C1058.19 46.5689 1056.63 46.0372 1054.63 46.0372C1053.05 46.0372 1051.61 46.4334 1050.31 47.2258C1049.04 48.0183 1048.04 49.1131 1047.31 50.5103C1046.58 51.9074 1046.22 53.4714 1046.22 55.2023C1046.22 57.0999 1046.77 58.5805 1047.88 59.6441C1049 60.6867 1050.56 61.2081 1052.57 61.2081Z" fill="black"/>
<path d="M1071.64 38.4987H1072.27L1067.64 61.7086H1067.01L1071.64 38.4987Z" fill="black"/>
<path d="M1078.06 45.5367H1078.68L1075.46 61.7086H1074.83L1078.06 45.5367ZM1079.37 41.0636C1079.16 41.0636 1078.98 40.9907 1078.84 40.8447C1078.69 40.6987 1078.62 40.5215 1078.62 40.3129C1078.62 40.0835 1078.7 39.8854 1078.87 39.7186C1079.06 39.5309 1079.27 39.4371 1079.49 39.4371C1079.7 39.4371 1079.88 39.5101 1080.03 39.656C1080.17 39.802 1080.25 39.9793 1080.25 40.1878C1080.25 40.4172 1080.15 40.6257 1079.96 40.8134C1079.8 40.9802 1079.6 41.0636 1079.37 41.0636Z" fill="black"/>
<path d="M1089.25 61.8024C1087.06 61.8024 1085.34 61.2185 1084.09 60.0507C1082.84 58.8621 1082.22 57.2563 1082.22 55.2336C1082.22 53.3776 1082.6 51.7093 1083.37 50.2287C1084.17 48.7273 1085.26 47.5595 1086.66 46.7254C1088.05 45.8704 1089.63 45.4429 1091.38 45.4429C1092.74 45.4429 1093.9 45.6723 1094.88 46.131C1095.88 46.5898 1096.65 47.2675 1097.17 48.1642L1096.7 48.5396C1095.61 46.8713 1093.83 46.0372 1091.35 46.0372C1089.72 46.0372 1088.26 46.4334 1086.97 47.2258C1085.68 48.0183 1084.67 49.1131 1083.94 50.5103C1083.21 51.9074 1082.84 53.4714 1082.84 55.2023C1082.84 57.1208 1083.4 58.6014 1084.53 59.6441C1085.66 60.6867 1087.26 61.2081 1089.35 61.2081C1090.49 61.2081 1091.57 60.9995 1092.57 60.5825C1093.59 60.1445 1094.43 59.5398 1095.07 58.7682L1095.45 59.2061C1094.78 60.0194 1093.89 60.6555 1092.79 61.1142C1091.7 61.573 1090.53 61.8024 1089.25 61.8024Z" fill="black"/>
<path d="M967.83 99.2375V100.207H953.035V78.3111H967.392V79.2808H954.098V88.6023H965.984V89.572H954.098V99.2375H967.83Z" fill="black"/>
<path d="M983.138 100.207L977.258 92.5749L971.377 100.207H970.157L976.663 91.8241L970.501 83.9728H971.721L977.258 91.0734L982.763 83.9728H983.951L977.852 91.8241L984.421 100.207H983.138Z" fill="black"/>
<path d="M996.333 99.175C995.957 99.5295 995.478 99.811 994.894 100.02C994.31 100.207 993.705 100.301 993.08 100.301C991.766 100.301 990.744 99.9361 990.014 99.2063C989.305 98.4555 988.951 97.4337 988.951 96.1408V84.8799H985.886V83.9728H988.951V80.4069H989.983V83.9728H995.332V84.8799H989.983V95.9844C989.983 97.0896 990.254 97.9342 990.796 98.5181C991.338 99.102 992.131 99.3939 993.174 99.3939C994.216 99.3939 995.092 99.0707 995.801 98.4242L996.333 99.175Z" fill="black"/>
<path d="M1001.92 87.8828C1002.4 86.5899 1003.17 85.5994 1004.23 84.9112C1005.32 84.2022 1006.65 83.8477 1008.24 83.8477V84.8799H1007.96C1006.08 84.8799 1004.61 85.4743 1003.55 86.6629C1002.48 87.8515 1001.95 89.4885 1001.95 91.5739V100.207H1000.92V83.9728H1001.92V87.8828Z" fill="black"/>
<path d="M1018.06 83.8477C1020 83.8477 1021.48 84.3482 1022.5 85.3491C1023.54 86.3501 1024.06 87.7994 1024.06 89.6971V100.207H1023.06V96.9541C1022.54 97.9968 1021.76 98.8205 1020.72 99.4252C1019.69 100.009 1018.46 100.301 1017.02 100.301C1015.21 100.301 1013.78 99.884 1012.74 99.0499C1011.72 98.2157 1011.21 97.1105 1011.21 95.7342C1011.21 94.4204 1011.68 93.3569 1012.61 92.5436C1013.55 91.7094 1015.05 91.2924 1017.12 91.2924H1023.03V89.6971C1023.03 88.0914 1022.6 86.8714 1021.75 86.0373C1020.91 85.2032 1019.67 84.7861 1018.03 84.7861C1016.88 84.7861 1015.8 84.9842 1014.8 85.3804C1013.8 85.7766 1012.95 86.3084 1012.24 86.9757L1011.68 86.225C1012.47 85.4743 1013.42 84.8904 1014.52 84.4733C1015.65 84.0562 1016.83 83.8477 1018.06 83.8477ZM1017.09 99.4252C1020.01 99.4252 1021.99 98.1219 1023.03 95.5152V92.1369H1017.12C1015.43 92.1369 1014.19 92.4602 1013.4 93.1066C1012.62 93.7322 1012.24 94.5872 1012.24 95.6716C1012.24 96.8394 1012.67 97.7569 1013.52 98.4242C1014.4 99.0916 1015.59 99.4252 1017.09 99.4252Z" fill="black"/>
<path d="M1031.35 78.3111H1032.42V99.2375H1045.24V100.207H1031.35V78.3111Z" fill="black"/>
<path d="M1049.03 83.9728H1050.06V100.207H1049.03V83.9728ZM1049.53 79.7187C1049.26 79.7187 1049.02 79.6249 1048.81 79.4372C1048.6 79.2287 1048.5 78.9888 1048.5 78.7177C1048.5 78.4258 1048.59 78.186 1048.78 77.9983C1048.99 77.7898 1049.24 77.6855 1049.53 77.6855C1049.8 77.6855 1050.04 77.7898 1050.25 77.9983C1050.46 78.186 1050.56 78.4154 1050.56 78.6865C1050.56 78.9576 1050.46 79.1974 1050.25 79.4059C1050.04 79.6144 1049.8 79.7187 1049.53 79.7187Z" fill="black"/>
<path d="M1071.29 83.9728V98.6432C1071.29 101.271 1070.66 103.21 1069.39 104.461C1068.11 105.733 1066.2 106.369 1063.63 106.369C1062.13 106.369 1060.73 106.14 1059.44 105.681C1058.15 105.222 1057.11 104.576 1056.34 103.742L1056.94 102.96C1057.77 103.752 1058.75 104.357 1059.88 104.774C1061.02 105.212 1062.27 105.431 1063.6 105.431C1065.87 105.431 1067.55 104.889 1068.64 103.804C1069.72 102.741 1070.26 101.062 1070.26 98.7683V95.3275C1069.66 96.6621 1068.73 97.7152 1067.48 98.4868C1066.23 99.2584 1064.8 99.6442 1063.19 99.6442C1061.67 99.6442 1060.29 99.3105 1059.06 98.6432C1057.86 97.955 1056.9 97.0166 1056.19 95.828C1055.5 94.6185 1055.15 93.2526 1055.15 91.7303C1055.15 90.208 1055.5 88.8525 1056.19 87.6639C1056.9 86.4544 1057.86 85.516 1059.06 84.8487C1060.29 84.1813 1061.67 83.8477 1063.19 83.8477C1064.8 83.8477 1066.23 84.2335 1067.48 85.0051C1068.75 85.7766 1069.69 86.8402 1070.29 88.1956V83.9728H1071.29ZM1063.22 98.7058C1064.56 98.7058 1065.76 98.4138 1066.82 97.8299C1067.91 97.2252 1068.75 96.391 1069.36 95.3275C1069.98 94.264 1070.29 93.0649 1070.29 91.7303C1070.29 90.3957 1069.98 89.207 1069.36 88.1644C1068.75 87.1008 1067.91 86.2771 1066.82 85.6932C1065.76 85.1093 1064.56 84.8174 1063.22 84.8174C1061.89 84.8174 1060.68 85.1093 1059.6 85.6932C1058.53 86.2771 1057.7 87.1008 1057.09 88.1644C1056.49 89.207 1056.19 90.3957 1056.19 91.7303C1056.19 93.0858 1056.49 94.2953 1057.09 95.3588C1057.7 96.4015 1058.53 97.2252 1059.6 97.8299C1060.68 98.4138 1061.89 98.7058 1063.22 98.7058Z" fill="black"/>
<path d="M1085.89 83.8477C1087.92 83.8477 1089.51 84.442 1090.68 85.6307C1091.85 86.7985 1092.43 88.4772 1092.43 90.6668V100.207H1091.4V90.7293C1091.4 88.8108 1090.91 87.3511 1089.93 86.3501C1088.97 85.3283 1087.59 84.8174 1085.8 84.8174C1083.78 84.8174 1082.18 85.4221 1081.01 86.6316C1079.85 87.8203 1079.26 89.426 1079.26 91.4488V100.207H1078.23V76.9973H1079.26V87.8516C1079.8 86.6003 1080.65 85.6202 1081.8 84.9112C1082.94 84.2022 1084.31 83.8477 1085.89 83.8477Z" fill="black"/>
<path d="M1106.85 99.175C1106.47 99.5295 1105.99 99.811 1105.41 100.02C1104.82 100.207 1104.22 100.301 1103.59 100.301C1102.28 100.301 1101.26 99.9361 1100.53 99.2063C1099.82 98.4555 1099.47 97.4337 1099.47 96.1408V84.8799H1096.4V83.9728H1099.47V80.4069H1100.5V83.9728H1105.85V84.8799H1100.5V95.9844C1100.5 97.0896 1100.77 97.9342 1101.31 98.5181C1101.85 99.102 1102.65 99.3939 1103.69 99.3939C1104.73 99.3939 1105.61 99.0707 1106.32 98.4242L1106.85 99.175Z" fill="black"/>
<path d="M956.632 117.779L954.787 127.101H966.673L966.485 128.071H954.599L952.66 137.736H966.422L966.203 138.706H951.408L955.788 116.81H970.113L969.926 117.779H956.632Z" fill="black"/>
<path d="M977.852 130.385L982.763 138.706H981.605L977.195 131.074L969.813 138.706H968.5L976.695 130.323L972.128 122.471H973.254L977.414 129.603L984.327 122.471H985.578L977.852 130.385Z" fill="black"/>
<path d="M989.264 134.202C989.159 134.723 989.107 135.14 989.107 135.453C989.107 137.079 989.993 137.893 991.766 137.893C992.788 137.893 993.705 137.569 994.518 136.923L994.925 137.674C994.466 138.049 993.945 138.331 993.361 138.518C992.777 138.706 992.183 138.8 991.578 138.8C990.452 138.8 989.587 138.518 988.982 137.955C988.377 137.392 988.075 136.6 988.075 135.578C988.075 135.14 988.117 134.723 988.2 134.327L990.39 123.379H987.324L987.481 122.471H990.546L991.265 118.906H992.298L991.578 122.471H996.927L996.771 123.379H991.422L989.264 134.202Z" fill="black"/>
<path d="M1002.79 126.256C1004.25 123.65 1006.61 122.346 1009.86 122.346L1009.68 123.379H1009.3C1007.36 123.379 1005.78 123.963 1004.55 125.13C1003.32 126.298 1002.47 128.018 1002.01 130.292L1000.32 138.706H999.292L1002.51 122.471H1003.55L1002.79 126.256Z" fill="black"/>
<path d="M1028.35 122.471L1025.13 138.706H1024.1L1024.85 135.015C1024.05 136.203 1023.03 137.131 1021.78 137.799C1020.53 138.466 1019.13 138.8 1017.59 138.8C1015.46 138.8 1013.76 138.205 1012.49 137.017C1011.24 135.807 1010.62 134.181 1010.62 132.137C1010.62 130.281 1011.01 128.613 1011.8 127.132C1012.6 125.652 1013.69 124.484 1015.09 123.629C1016.49 122.774 1018.06 122.346 1019.81 122.346C1021.63 122.346 1023.1 122.763 1024.22 123.598C1025.35 124.432 1026.07 125.61 1026.38 127.132L1027.32 122.471H1028.35ZM1017.78 137.861C1019.32 137.861 1020.7 137.486 1021.91 136.735C1023.14 135.985 1024.1 134.942 1024.78 133.607C1025.49 132.252 1025.85 130.74 1025.85 129.072C1025.85 127.236 1025.31 125.818 1024.22 124.817C1023.16 123.817 1021.67 123.316 1019.75 123.316C1018.21 123.316 1016.82 123.702 1015.59 124.473C1014.36 125.224 1013.39 126.267 1012.68 127.601C1011.99 128.936 1011.65 130.437 1011.65 132.106C1011.65 133.941 1012.18 135.359 1013.24 136.36C1014.33 137.361 1015.84 137.861 1017.78 137.861Z" fill="black"/>
<path d="M1036.95 116.81H1038.01L1033.82 137.736H1046.68L1046.46 138.706H1032.57L1036.95 116.81Z" fill="black"/>
<path d="M1053.46 122.471H1054.5L1051.27 138.706H1050.24L1053.46 122.471ZM1054.97 118.217C1054.69 118.217 1054.46 118.124 1054.28 117.936C1054.11 117.748 1054.03 117.529 1054.03 117.279C1054.03 116.987 1054.13 116.737 1054.34 116.528C1054.55 116.299 1054.8 116.184 1055.09 116.184C1055.36 116.184 1055.59 116.278 1055.78 116.466C1055.97 116.653 1056.06 116.872 1056.06 117.123C1056.06 117.415 1055.95 117.675 1055.72 117.905C1055.51 118.113 1055.26 118.217 1054.97 118.217Z" fill="black"/>
<path d="M1075.79 122.471L1072.88 137.142C1072.34 139.853 1071.34 141.813 1069.88 143.023C1068.44 144.253 1066.42 144.868 1063.81 144.868C1062.33 144.868 1061 144.639 1059.81 144.18C1058.64 143.721 1057.68 143.075 1056.93 142.241L1057.68 141.49C1058.31 142.282 1059.16 142.887 1060.25 143.304C1061.33 143.721 1062.54 143.93 1063.88 143.93C1066.15 143.93 1067.92 143.387 1069.19 142.303C1070.49 141.24 1071.36 139.571 1071.82 137.298L1072.45 134.233C1071.65 135.442 1070.61 136.402 1069.32 137.111C1068.03 137.799 1066.58 138.143 1064.97 138.143C1062.8 138.143 1061.08 137.569 1059.81 136.422C1058.54 135.275 1057.9 133.722 1057.9 131.762C1057.9 129.989 1058.3 128.383 1059.09 126.945C1059.88 125.506 1060.98 124.38 1062.37 123.566C1063.79 122.753 1065.39 122.346 1067.16 122.346C1069 122.346 1070.5 122.763 1071.66 123.598C1072.83 124.432 1073.56 125.61 1073.85 127.132L1074.79 122.471H1075.79ZM1065.1 137.204C1066.64 137.204 1068.04 136.84 1069.29 136.11C1070.54 135.38 1071.51 134.379 1072.2 133.107C1072.91 131.835 1073.26 130.406 1073.26 128.821C1073.26 127.07 1072.72 125.714 1071.63 124.755C1070.57 123.796 1069.06 123.316 1067.1 123.316C1065.55 123.316 1064.16 123.681 1062.91 124.411C1061.68 125.141 1060.71 126.142 1060 127.414C1059.29 128.686 1058.93 130.114 1058.93 131.699C1058.93 133.451 1059.48 134.806 1060.56 135.766C1061.64 136.725 1063.16 137.204 1065.1 137.204Z" fill="black"/>
<path d="M1090.02 122.346C1091.87 122.346 1093.29 122.805 1094.27 123.723C1095.25 124.619 1095.74 125.86 1095.74 127.445C1095.74 127.987 1095.68 128.571 1095.55 129.197L1093.64 138.706H1092.61L1094.52 129.197C1094.62 128.717 1094.68 128.185 1094.68 127.601C1094.68 126.225 1094.26 125.172 1093.43 124.442C1092.61 123.691 1091.4 123.316 1089.8 123.316C1087.82 123.316 1086.17 123.869 1084.85 124.974C1083.54 126.079 1082.68 127.674 1082.26 129.76L1080.48 138.706H1079.44L1084.07 115.496H1085.11L1083.01 125.944C1083.78 124.734 1084.76 123.837 1085.95 123.253C1087.16 122.649 1088.51 122.346 1090.02 122.346Z" fill="black"/>
<path d="M1102.62 134.202C1102.51 134.723 1102.46 135.14 1102.46 135.453C1102.46 137.079 1103.35 137.893 1105.12 137.893C1106.14 137.893 1107.06 137.569 1107.87 136.923L1108.28 137.674C1107.82 138.049 1107.3 138.331 1106.72 138.518C1106.13 138.706 1105.54 138.8 1104.93 138.8C1103.81 138.8 1102.94 138.518 1102.34 137.955C1101.73 137.392 1101.43 136.6 1101.43 135.578C1101.43 135.14 1101.47 134.723 1101.56 134.327L1103.74 123.379H1100.68L1100.84 122.471H1103.9L1104.62 118.906H1105.65L1104.93 122.471H1110.28L1110.13 123.379H1104.78L1102.62 134.202Z" fill="black"/>
<path d="M1125.47 116.81H1126.53L1122.15 138.706H1121.09L1125.47 116.81Z" fill="black"/>
<path d="M1131.85 134.202C1131.75 134.723 1131.69 135.14 1131.69 135.453C1131.69 137.079 1132.58 137.893 1134.35 137.893C1135.38 137.893 1136.29 137.569 1137.11 136.923L1137.51 137.674C1137.05 138.049 1136.53 138.331 1135.95 138.518C1135.36 138.706 1134.77 138.8 1134.17 138.8C1133.04 138.8 1132.17 138.518 1131.57 137.955C1130.96 137.392 1130.66 136.6 1130.66 135.578C1130.66 135.14 1130.7 134.723 1130.79 134.327L1132.98 123.379H1129.91L1130.07 122.471H1133.13L1133.85 118.906H1134.89L1134.17 122.471H1139.51L1139.36 123.379H1134.01L1131.85 134.202Z" fill="black"/>
<path d="M1158.63 122.471L1155.41 138.706H1154.37L1155.12 135.015C1154.33 136.203 1153.31 137.131 1152.06 137.799C1150.81 138.466 1149.41 138.8 1147.87 138.8C1145.74 138.8 1144.04 138.205 1142.77 137.017C1141.52 135.807 1140.89 134.181 1140.89 132.137C1140.89 130.281 1141.29 128.613 1142.08 127.132C1142.87 125.652 1143.97 124.484 1145.37 123.629C1146.76 122.774 1148.34 122.346 1150.09 122.346C1151.9 122.346 1153.37 122.763 1154.5 123.598C1155.63 124.432 1156.34 125.61 1156.66 127.132L1157.6 122.471H1158.63ZM1148.06 137.861C1149.6 137.861 1150.98 137.486 1152.18 136.735C1153.41 135.985 1154.37 134.942 1155.06 133.607C1155.77 132.252 1156.13 130.74 1156.13 129.072C1156.13 127.236 1155.58 125.818 1154.5 124.817C1153.44 123.817 1151.94 123.316 1150.03 123.316C1148.48 123.316 1147.1 123.702 1145.87 124.473C1144.64 125.224 1143.67 126.267 1142.96 127.601C1142.27 128.936 1141.93 130.437 1141.93 132.106C1141.93 133.941 1142.46 135.359 1143.52 136.36C1144.6 137.361 1146.12 137.861 1148.06 137.861Z" fill="black"/>
<path d="M1166.94 115.496H1167.98L1163.35 138.706H1162.31L1166.94 115.496Z" fill="black"/>
<path d="M1173.51 122.471H1174.54L1171.32 138.706H1170.29L1173.51 122.471ZM1175.01 118.217C1174.74 118.217 1174.51 118.124 1174.32 117.936C1174.15 117.748 1174.07 117.529 1174.07 117.279C1174.07 116.987 1174.18 116.737 1174.38 116.528C1174.59 116.299 1174.84 116.184 1175.13 116.184C1175.41 116.184 1175.64 116.278 1175.82 116.466C1176.01 116.653 1176.1 116.872 1176.1 117.123C1176.1 117.415 1175.99 117.675 1175.76 117.905C1175.55 118.113 1175.3 118.217 1175.01 118.217Z" fill="black"/>
<path d="M1185.08 138.8C1182.85 138.8 1181.08 138.205 1179.79 137.017C1178.52 135.828 1177.88 134.202 1177.88 132.137C1177.88 130.281 1178.28 128.613 1179.07 127.132C1179.86 125.631 1180.96 124.463 1182.36 123.629C1183.77 122.774 1185.37 122.346 1187.14 122.346C1188.54 122.346 1189.75 122.597 1190.77 123.097C1191.79 123.577 1192.57 124.286 1193.12 125.224L1192.3 125.787C1191.26 124.14 1189.52 123.316 1187.08 123.316C1185.54 123.316 1184.14 123.702 1182.89 124.473C1181.64 125.224 1180.66 126.267 1179.95 127.601C1179.26 128.936 1178.92 130.437 1178.92 132.106C1178.92 133.941 1179.46 135.359 1180.54 136.36C1181.63 137.361 1183.17 137.861 1185.17 137.861C1186.3 137.861 1187.35 137.653 1188.33 137.236C1189.31 136.819 1190.12 136.224 1190.77 135.453L1191.46 136.078C1190.77 136.933 1189.85 137.601 1188.71 138.08C1187.58 138.56 1186.37 138.8 1185.08 138.8Z" fill="black"/>
<path d="M952.847 155.308H954.443V175.766H967.048V177.205H952.847V155.308Z" fill="black"/>
<path d="M970.644 160.876H972.208V177.205H970.644V160.876ZM971.426 156.904C971.071 156.904 970.769 156.789 970.519 156.56C970.268 156.309 970.143 156.007 970.143 155.653C970.143 155.298 970.268 154.996 970.519 154.745C970.769 154.495 971.071 154.37 971.426 154.37C971.78 154.37 972.083 154.495 972.333 154.745C972.583 154.975 972.708 155.267 972.708 155.621C972.708 155.976 972.583 156.278 972.333 156.528C972.083 156.779 971.78 156.904 971.426 156.904Z" fill="black"/>
<path d="M993.5 160.876V175.453C993.5 178.164 992.844 180.166 991.53 181.459C990.216 182.752 988.235 183.398 985.587 183.398C984.086 183.398 982.668 183.169 981.333 182.71C979.998 182.251 978.925 181.615 978.111 180.802L978.956 179.613C979.769 180.364 980.749 180.948 981.896 181.365C983.043 181.782 984.263 181.99 985.556 181.99C987.724 181.99 989.33 181.469 990.373 180.426C991.415 179.405 991.937 177.809 991.937 175.641V172.888C991.269 174.077 990.341 174.994 989.153 175.641C987.964 176.287 986.63 176.61 985.149 176.61C983.627 176.61 982.24 176.277 980.989 175.609C979.759 174.921 978.789 173.972 978.08 172.763C977.371 171.553 977.017 170.187 977.017 168.665C977.017 167.143 977.371 165.777 978.08 164.567C978.789 163.358 979.759 162.419 980.989 161.752C982.24 161.085 983.627 160.751 985.149 160.751C986.65 160.751 988.006 161.085 989.215 161.752C990.425 162.419 991.353 163.358 991.999 164.567V160.876H993.5ZM985.274 175.203C986.546 175.203 987.693 174.932 988.715 174.389C989.737 173.826 990.529 173.055 991.092 172.075C991.676 171.074 991.968 169.937 991.968 168.665C991.968 167.393 991.676 166.267 991.092 165.287C990.529 164.307 989.737 163.546 988.715 163.003C987.693 162.44 986.546 162.159 985.274 162.159C984.002 162.159 982.855 162.44 981.833 163.003C980.833 163.546 980.04 164.307 979.456 165.287C978.893 166.267 978.612 167.393 978.612 168.665C978.612 169.937 978.893 171.074 979.456 172.075C980.04 173.055 980.833 173.826 981.833 174.389C982.855 174.932 984.002 175.203 985.274 175.203Z" fill="black"/>
<path d="M1008.1 160.751C1010.14 160.751 1011.76 161.346 1012.94 162.534C1014.13 163.723 1014.73 165.433 1014.73 167.664V177.205H1013.16V167.789C1013.16 165.954 1012.69 164.557 1011.76 163.598C1010.84 162.638 1009.55 162.159 1007.88 162.159C1005.96 162.159 1004.45 162.732 1003.34 163.879C1002.24 165.026 1001.68 166.569 1001.68 168.509V177.205H1000.12V153.995H1001.68V164.286C1002.25 163.16 1003.08 162.294 1004.19 161.69C1005.29 161.064 1006.6 160.751 1008.1 160.751Z" fill="black"/>
<path d="M1029.27 176.172C1028.87 176.548 1028.37 176.84 1027.77 177.048C1027.18 177.236 1026.57 177.33 1025.92 177.33C1024.5 177.33 1023.41 176.944 1022.64 176.172C1021.86 175.38 1021.48 174.285 1021.48 172.888V162.221H1018.48V160.876H1021.48V157.31H1023.04V160.876H1028.24V162.221H1023.04V172.731C1023.04 173.795 1023.29 174.608 1023.79 175.171C1024.32 175.714 1025.08 175.985 1026.08 175.985C1027.1 175.985 1027.94 175.682 1028.61 175.077L1029.27 176.172Z" fill="black"/>
<path d="M955.6 193.807H957.195L953.098 214.264H965.703L965.39 215.703H951.221L955.6 193.807Z" fill="black"/>
<path d="M972.239 199.375H973.803L970.55 215.703H968.986L972.239 199.375ZM973.991 195.402C973.657 195.402 973.375 195.288 973.146 195.058C972.917 194.829 972.802 194.558 972.802 194.245C972.802 193.87 972.927 193.546 973.177 193.275C973.448 193.004 973.782 192.869 974.178 192.869C974.512 192.869 974.793 192.983 975.023 193.213C975.273 193.442 975.398 193.713 975.398 194.026C975.398 194.422 975.263 194.756 974.991 195.027C974.72 195.277 974.387 195.402 973.991 195.402Z" fill="black"/>
<path d="M995.158 199.375L992.249 213.952C991.707 216.725 990.685 218.737 989.184 219.989C987.683 221.261 985.608 221.897 982.96 221.897C981.458 221.897 980.103 221.667 978.893 221.209C977.684 220.771 976.683 220.145 975.89 219.332L976.891 218.174C977.559 218.904 978.424 219.467 979.488 219.863C980.551 220.281 981.75 220.489 983.085 220.489C985.253 220.489 986.953 219.978 988.183 218.956C989.413 217.935 990.237 216.35 990.654 214.202L991.155 211.762C990.341 212.825 989.33 213.649 988.121 214.233C986.911 214.817 985.566 215.109 984.086 215.109C981.896 215.109 980.155 214.525 978.862 213.357C977.59 212.189 976.954 210.605 976.954 208.603C976.954 206.851 977.35 205.266 978.143 203.848C978.935 202.409 980.04 201.283 981.458 200.47C982.876 199.656 984.471 199.25 986.244 199.25C987.954 199.25 989.382 199.615 990.529 200.345C991.676 201.075 992.447 202.138 992.844 203.535L993.657 199.375H995.158ZM984.367 213.701C985.848 213.701 987.172 213.368 988.339 212.7C989.507 212.012 990.425 211.074 991.092 209.885C991.759 208.676 992.093 207.32 992.093 205.819C992.093 204.192 991.572 202.93 990.529 202.034C989.507 201.116 988.079 200.657 986.244 200.657C984.763 200.657 983.439 201.002 982.271 201.69C981.104 202.357 980.186 203.295 979.519 204.505C978.852 205.694 978.518 207.039 978.518 208.54C978.518 210.167 979.029 211.439 980.051 212.356C981.093 213.253 982.532 213.701 984.367 213.701Z" fill="black"/>
<path d="M1009.38 199.25C1011.23 199.25 1012.66 199.719 1013.66 200.657C1014.66 201.575 1015.17 202.847 1015.17 204.474C1015.17 205.037 1015.1 205.631 1014.98 206.257L1013.1 215.703H1011.54L1013.41 206.257C1013.52 205.777 1013.57 205.256 1013.57 204.693C1013.57 203.4 1013.17 202.409 1012.38 201.721C1011.61 201.012 1010.47 200.657 1008.97 200.657C1007.1 200.657 1005.53 201.189 1004.28 202.253C1003.03 203.295 1002.21 204.818 1001.81 206.82L1000.03 215.703H998.463L1003.09 192.493H1004.66L1002.69 202.409C1004.23 200.303 1006.46 199.25 1009.38 199.25Z" fill="black"/>
<path d="M1022.35 210.98C1022.27 211.376 1022.23 211.762 1022.23 212.137C1022.23 213.701 1023.06 214.483 1024.73 214.483C1025.73 214.483 1026.62 214.181 1027.39 213.576L1027.86 214.734C1026.96 215.463 1025.8 215.828 1024.36 215.828C1023.19 215.828 1022.27 215.526 1021.6 214.921C1020.96 214.296 1020.63 213.441 1020.63 212.356C1020.63 211.918 1020.68 211.501 1020.76 211.105L1022.86 200.72H1019.82L1020.07 199.375H1023.11L1023.83 195.809H1025.39L1024.67 199.375H1029.86L1029.61 200.72H1024.42L1022.35 210.98Z" fill="black"/>
<path d="M1044.92 193.807H1046.51L1042.13 215.703H1040.54L1044.92 193.807Z" fill="black"/>
<path d="M1052.08 210.98C1051.99 211.376 1051.95 211.762 1051.95 212.137C1051.95 213.701 1052.78 214.483 1054.45 214.483C1055.45 214.483 1056.34 214.181 1057.11 213.576L1057.58 214.734C1056.68 215.463 1055.52 215.828 1054.08 215.828C1052.91 215.828 1051.99 215.526 1051.33 214.921C1050.68 214.296 1050.36 213.441 1050.36 212.356C1050.36 211.918 1050.4 211.501 1050.48 211.105L1052.58 200.72H1049.54L1049.79 199.375H1052.83L1053.55 195.809H1055.11L1054.39 199.375H1059.58L1059.33 200.72H1054.14L1052.08 210.98Z" fill="black"/>
<path d="M1078.91 199.375L1075.66 215.703H1074.16L1074.78 212.513C1073.99 213.555 1073 214.369 1071.81 214.952C1070.64 215.536 1069.34 215.828 1067.9 215.828C1065.77 215.828 1064.06 215.224 1062.77 214.014C1061.5 212.784 1060.86 211.126 1060.86 209.041C1060.86 207.185 1061.26 205.516 1062.05 204.036C1062.84 202.534 1063.94 201.366 1065.33 200.532C1066.75 199.677 1068.34 199.25 1070.09 199.25C1071.78 199.25 1073.18 199.615 1074.28 200.345C1075.39 201.075 1076.14 202.107 1076.53 203.441L1077.35 199.375H1078.91ZM1068.21 214.421C1069.67 214.421 1070.98 214.066 1072.12 213.357C1073.29 212.648 1074.21 211.668 1074.87 210.417C1075.54 209.145 1075.88 207.716 1075.88 206.131C1075.88 204.401 1075.36 203.056 1074.34 202.096C1073.34 201.137 1071.92 200.657 1070.09 200.657C1068.63 200.657 1067.32 201.022 1066.15 201.752C1065 202.461 1064.09 203.452 1063.43 204.724C1062.76 205.975 1062.43 207.383 1062.43 208.947C1062.43 210.678 1062.93 212.023 1063.93 212.982C1064.95 213.941 1066.38 214.421 1068.21 214.421Z" fill="black"/>
<path d="M1086.85 192.493H1088.41L1083.78 215.703H1082.22L1086.85 192.493Z" fill="black"/>
<path d="M1093.63 199.375H1095.19L1091.94 215.703H1090.37L1093.63 199.375ZM1095.38 195.402C1095.05 195.402 1094.76 195.288 1094.53 195.058C1094.31 194.829 1094.19 194.558 1094.19 194.245C1094.19 193.87 1094.32 193.546 1094.57 193.275C1094.84 193.004 1095.17 192.869 1095.57 192.869C1095.9 192.869 1096.18 192.983 1096.41 193.213C1096.66 193.442 1096.79 193.713 1096.79 194.026C1096.79 194.422 1096.65 194.756 1096.38 195.027C1096.11 195.277 1095.78 195.402 1095.38 195.402Z" fill="black"/>
<path d="M1105.63 215.828C1103.38 215.828 1101.59 215.213 1100.25 213.983C1098.94 212.752 1098.28 211.105 1098.28 209.041C1098.28 207.185 1098.68 205.516 1099.47 204.036C1100.28 202.534 1101.4 201.366 1102.82 200.532C1104.25 199.677 1105.87 199.25 1107.66 199.25C1109.12 199.25 1110.37 199.511 1111.42 200.032C1112.46 200.532 1113.27 201.293 1113.86 202.315L1112.57 203.097C1111.59 201.471 1109.93 200.657 1107.57 200.657C1106.09 200.657 1104.77 201.022 1103.6 201.752C1102.43 202.461 1101.51 203.441 1100.84 204.693C1100.18 205.944 1099.84 207.362 1099.84 208.947C1099.84 210.678 1100.35 212.023 1101.38 212.982C1102.4 213.941 1103.86 214.421 1105.76 214.421C1106.84 214.421 1107.85 214.212 1108.79 213.795C1109.75 213.378 1110.54 212.794 1111.17 212.043L1112.26 212.919C1111.55 213.837 1110.6 214.556 1109.42 215.078C1108.25 215.578 1106.99 215.828 1105.63 215.828Z" fill="black"/>
<path d="M967.548 254.202L962.544 247.164C961.981 247.226 961.397 247.258 960.792 247.258H954.912V254.202H952.597V232.306H960.792C963.586 232.306 965.776 232.973 967.361 234.308C968.945 235.642 969.738 237.477 969.738 239.813C969.738 241.523 969.3 242.972 968.424 244.161C967.569 245.329 966.339 246.173 964.733 246.695L970.082 254.202H967.548ZM960.73 245.287C962.898 245.287 964.556 244.807 965.703 243.848C966.85 242.889 967.423 241.544 967.423 239.813C967.423 238.04 966.85 236.685 965.703 235.747C964.556 234.787 962.898 234.308 960.73 234.308H954.912V245.287H960.73Z" fill="black"/>
<path d="M989.057 246.663H975.295C975.42 248.373 976.077 249.76 977.265 250.824C978.454 251.866 979.955 252.388 981.769 252.388C982.791 252.388 983.73 252.21 984.585 251.856C985.439 251.481 986.18 250.938 986.805 250.229L988.056 251.668C987.327 252.544 986.409 253.211 985.304 253.67C984.22 254.129 983.021 254.358 981.707 254.358C980.018 254.358 978.516 254.004 977.203 253.295C975.91 252.565 974.899 251.564 974.169 250.292C973.439 249.02 973.074 247.581 973.074 245.975C973.074 244.369 973.418 242.931 974.106 241.659C974.815 240.386 975.774 239.396 976.984 238.687C978.214 237.978 979.59 237.623 981.113 237.623C982.635 237.623 984.001 237.978 985.21 238.687C986.42 239.396 987.368 240.386 988.056 241.659C988.745 242.91 989.089 244.349 989.089 245.975L989.057 246.663ZM981.113 239.531C979.528 239.531 978.193 240.042 977.109 241.064C976.045 242.065 975.441 243.379 975.295 245.005H986.962C986.816 243.379 986.201 242.065 985.116 241.064C984.053 240.042 982.718 239.531 981.113 239.531Z" fill="black"/>
<path d="M1008.84 237.748V252.2C1008.84 254.994 1008.15 257.059 1006.78 258.393C1005.42 259.749 1003.37 260.427 1000.62 260.427C999.093 260.427 997.644 260.197 996.268 259.738C994.912 259.301 993.807 258.685 992.952 257.893L994.078 256.204C994.871 256.913 995.83 257.465 996.956 257.862C998.103 258.258 999.302 258.456 1000.55 258.456C1002.64 258.456 1004.17 257.966 1005.15 256.986C1006.13 256.027 1006.62 254.525 1006.62 252.481V250.386C1005.93 251.428 1005.03 252.221 1003.9 252.763C1002.79 253.305 1001.56 253.576 1000.21 253.576C998.666 253.576 997.258 253.243 995.986 252.575C994.735 251.887 993.745 250.938 993.015 249.729C992.306 248.498 991.951 247.112 991.951 245.569C991.951 244.025 992.306 242.649 993.015 241.44C993.745 240.23 994.735 239.292 995.986 238.624C997.237 237.957 998.645 237.623 1000.21 237.623C1001.61 237.623 1002.87 237.905 1003.99 238.468C1005.12 239.031 1006.03 239.844 1006.71 240.908V237.748H1008.84ZM1000.43 251.606C1001.62 251.606 1002.69 251.355 1003.65 250.855C1004.61 250.334 1005.35 249.614 1005.87 248.697C1006.41 247.779 1006.68 246.736 1006.68 245.569C1006.68 244.401 1006.41 243.369 1005.87 242.472C1005.35 241.554 1004.61 240.845 1003.65 240.345C1002.71 239.823 1001.64 239.563 1000.43 239.563C999.239 239.563 998.165 239.813 997.206 240.313C996.268 240.814 995.527 241.523 994.985 242.441C994.464 243.358 994.203 244.401 994.203 245.569C994.203 246.736 994.464 247.779 994.985 248.697C995.527 249.614 996.268 250.334 997.206 250.855C998.165 251.355 999.239 251.606 1000.43 251.606Z" fill="black"/>
<path d="M1029.88 237.748V254.202H1027.75V251.199C1027.17 252.2 1026.36 252.982 1025.34 253.545C1024.32 254.087 1023.15 254.358 1021.84 254.358C1019.69 254.358 1017.99 253.764 1016.74 252.575C1015.51 251.366 1014.9 249.604 1014.9 247.289V237.748H1017.12V247.07C1017.12 248.801 1017.54 250.115 1018.4 251.011C1019.25 251.908 1020.47 252.356 1022.06 252.356C1023.79 252.356 1025.16 251.835 1026.16 250.792C1027.16 249.729 1027.66 248.259 1027.66 246.382V237.748H1029.88Z" fill="black"/>
<path d="M1036.1 230.992H1038.32V254.202H1036.1V230.992Z" fill="black"/>
<path d="M1050.25 237.623C1052.4 237.623 1054.05 238.166 1055.2 239.25C1056.34 240.313 1056.92 241.898 1056.92 244.005V254.202H1054.79V251.637C1054.29 252.492 1053.55 253.159 1052.57 253.639C1051.61 254.118 1050.46 254.358 1049.13 254.358C1047.29 254.358 1045.83 253.92 1044.75 253.045C1043.66 252.169 1043.12 251.011 1043.12 249.572C1043.12 248.175 1043.62 247.049 1044.62 246.194C1045.65 245.339 1047.26 244.912 1049.47 244.912H1054.7V243.911C1054.7 242.493 1054.3 241.419 1053.51 240.689C1052.71 239.938 1051.56 239.563 1050.03 239.563C1048.99 239.563 1047.99 239.74 1047.03 240.095C1046.07 240.428 1045.25 240.897 1044.56 241.502L1043.56 239.844C1044.39 239.135 1045.39 238.593 1046.56 238.218C1047.73 237.821 1048.96 237.623 1050.25 237.623ZM1049.47 252.607C1050.72 252.607 1051.8 252.325 1052.69 251.762C1053.59 251.178 1054.26 250.344 1054.7 249.26V246.57H1049.53C1046.72 246.57 1045.31 247.55 1045.31 249.51C1045.31 250.469 1045.68 251.23 1046.41 251.793C1047.14 252.335 1048.16 252.607 1049.47 252.607Z" fill="black"/>
<path d="M1065.07 240.97C1065.6 239.865 1066.37 239.031 1067.39 238.468C1068.43 237.905 1069.71 237.623 1071.24 237.623V239.782L1070.7 239.75C1068.97 239.75 1067.62 240.282 1066.64 241.346C1065.66 242.409 1065.17 243.9 1065.17 245.819V254.202H1062.95V237.748H1065.07V240.97Z" fill="black"/>
<path d="M955.35 270.804H957.633L953.254 292.701H950.971L955.35 270.804Z" fill="black"/>
<path d="M963.506 287.727C963.422 288.227 963.381 288.572 963.381 288.759C963.381 290.219 964.173 290.949 965.758 290.949C966.696 290.949 967.541 290.667 968.291 290.104L968.823 291.793C967.885 292.502 966.665 292.857 965.164 292.857C963.933 292.857 962.953 292.523 962.223 291.856C961.514 291.189 961.16 290.271 961.16 289.103C961.16 288.645 961.202 288.217 961.285 287.821L963.193 278.124H960.284L960.628 276.247H963.568L964.288 272.65H966.509L965.789 276.247H970.794L970.418 278.124H965.414L963.506 287.727Z" fill="black"/>
<path d="M990.365 276.247L987.08 292.701H984.954L985.485 290.104C984.693 290.98 983.755 291.658 982.67 292.137C981.586 292.617 980.387 292.857 979.073 292.857C977.676 292.857 976.435 292.575 975.351 292.012C974.267 291.449 973.422 290.646 972.817 289.604C972.213 288.54 971.91 287.299 971.91 285.881C971.91 284.025 972.306 282.357 973.099 280.877C973.912 279.396 975.028 278.239 976.446 277.405C977.864 276.55 979.448 276.122 981.2 276.122C982.764 276.122 984.078 276.435 985.141 277.06C986.205 277.665 986.976 278.541 987.456 279.688L988.144 276.247H990.365ZM979.542 290.886C980.898 290.886 982.118 290.563 983.202 289.917C984.286 289.249 985.131 288.332 985.736 287.164C986.361 285.975 986.674 284.651 986.674 283.191C986.674 281.586 986.194 280.334 985.235 279.438C984.297 278.52 982.973 278.061 981.263 278.061C979.907 278.061 978.687 278.395 977.603 279.062C976.519 279.73 975.664 280.658 975.038 281.846C974.433 283.014 974.131 284.328 974.131 285.788C974.131 287.393 974.6 288.645 975.539 289.541C976.498 290.438 977.832 290.886 979.542 290.886Z" fill="black"/>
<path d="M997.895 269.491H1000.12L995.486 292.701H993.265L997.895 269.491Z" fill="black"/>
<path d="M1004.92 276.247H1007.14L1003.89 292.701H1001.67L1004.92 276.247ZM1006.98 272.65C1006.54 272.65 1006.18 272.504 1005.89 272.212C1005.62 271.92 1005.48 271.576 1005.48 271.18C1005.48 270.7 1005.64 270.304 1005.95 269.991C1006.28 269.657 1006.7 269.491 1007.2 269.491C1007.64 269.491 1008 269.637 1008.3 269.929C1008.59 270.2 1008.73 270.523 1008.73 270.898C1008.73 271.399 1008.57 271.816 1008.23 272.149C1007.9 272.483 1007.48 272.65 1006.98 272.65Z" fill="black"/>
<path d="M1017.51 292.857C1015.97 292.857 1014.62 292.575 1013.47 292.012C1012.33 291.428 1011.44 290.615 1010.82 289.573C1010.21 288.509 1009.91 287.279 1009.91 285.881C1009.91 284.025 1010.32 282.357 1011.13 280.877C1011.94 279.396 1013.08 278.239 1014.54 277.405C1016 276.55 1017.65 276.122 1019.48 276.122C1021 276.122 1022.31 276.404 1023.39 276.967C1024.5 277.509 1025.35 278.322 1025.96 279.406L1024.08 280.501C1023.14 278.875 1021.54 278.061 1019.29 278.061C1017.94 278.061 1016.71 278.395 1015.6 279.062C1014.52 279.73 1013.66 280.647 1013.04 281.815C1012.43 282.983 1012.13 284.307 1012.13 285.788C1012.13 287.393 1012.6 288.645 1013.54 289.541C1014.5 290.438 1015.85 290.886 1017.6 290.886C1018.67 290.886 1019.65 290.688 1020.54 290.292C1021.46 289.875 1022.21 289.281 1022.8 288.509L1024.39 289.729C1023.66 290.709 1022.68 291.481 1021.45 292.044C1020.24 292.586 1018.93 292.857 1017.51 292.857Z" fill="black"/>
<path d="M972.616 331.199L972.584 315.246L964.671 328.54H963.232L955.318 315.34V331.199H952.316V309.303H954.88L964.014 324.693L973.022 309.303H975.587L975.618 331.199H972.616Z" fill="black"/>
<path d="M996.734 323.004C996.734 323.233 996.713 323.536 996.671 323.911H983.221C983.409 325.371 984.045 326.549 985.129 327.446C986.235 328.321 987.6 328.759 989.227 328.759C991.208 328.759 992.803 328.092 994.013 326.757L995.67 328.697C994.92 329.573 993.981 330.24 992.855 330.699C991.75 331.158 990.509 331.387 989.133 331.387C987.382 331.387 985.828 331.032 984.473 330.323C983.117 329.593 982.064 328.582 981.313 327.289C980.584 325.996 980.219 324.537 980.219 322.91C980.219 321.304 980.573 319.855 981.282 318.562C982.012 317.269 983.003 316.268 984.254 315.559C985.526 314.829 986.954 314.464 988.539 314.464C990.124 314.464 991.531 314.829 992.762 315.559C994.013 316.268 994.982 317.269 995.67 318.562C996.379 319.855 996.734 321.336 996.734 323.004ZM988.539 316.998C987.1 316.998 985.891 317.436 984.911 318.312C983.951 319.188 983.388 320.335 983.221 321.753H993.856C993.689 320.355 993.116 319.219 992.136 318.343C991.177 317.446 989.978 316.998 988.539 316.998Z" fill="black"/>
<path d="M1016.54 307.989V331.199H1013.67V328.572C1013 329.489 1012.15 330.188 1011.13 330.667C1010.11 331.147 1008.98 331.387 1007.75 331.387C1006.15 331.387 1004.71 331.032 1003.44 330.323C1002.17 329.614 1001.16 328.624 1000.43 327.352C999.725 326.059 999.371 324.578 999.371 322.91C999.371 321.242 999.725 319.772 1000.43 318.499C1001.16 317.227 1002.17 316.237 1003.44 315.528C1004.71 314.819 1006.15 314.464 1007.75 314.464C1008.94 314.464 1010.04 314.694 1011.04 315.152C1012.04 315.59 1012.87 316.247 1013.54 317.123V307.989H1016.54ZM1008 328.759C1009.05 328.759 1010 328.52 1010.85 328.04C1011.71 327.539 1012.37 326.851 1012.85 325.975C1013.33 325.079 1013.57 324.057 1013.57 322.91C1013.57 321.763 1013.33 320.752 1012.85 319.876C1012.37 318.979 1011.71 318.291 1010.85 317.811C1010 317.332 1009.05 317.092 1008 317.092C1006.94 317.092 1005.98 317.332 1005.13 317.811C1004.29 318.291 1003.62 318.979 1003.12 319.876C1002.64 320.752 1002.4 321.763 1002.4 322.91C1002.4 324.057 1002.64 325.079 1003.12 325.975C1003.62 326.851 1004.29 327.539 1005.13 328.04C1005.98 328.52 1006.94 328.759 1008 328.759Z" fill="black"/>
<path d="M1022.22 314.621H1025.23V331.199H1022.22V314.621ZM1023.73 311.43C1023.14 311.43 1022.65 311.242 1022.26 310.867C1021.88 310.492 1021.69 310.033 1021.69 309.491C1021.69 308.949 1021.88 308.49 1022.26 308.114C1022.65 307.718 1023.14 307.52 1023.73 307.52C1024.31 307.52 1024.79 307.708 1025.16 308.083C1025.56 308.438 1025.76 308.886 1025.76 309.428C1025.76 309.991 1025.56 310.471 1025.16 310.867C1024.79 311.242 1024.31 311.43 1023.73 311.43Z" fill="black"/>
<path d="M1046.41 314.621V331.199H1043.57V328.697C1042.96 329.552 1042.16 330.219 1041.16 330.699C1040.18 331.158 1039.1 331.387 1037.94 331.387C1035.73 331.387 1033.98 330.782 1032.71 329.573C1031.44 328.342 1030.8 326.538 1030.8 324.161V314.621H1033.81V323.817C1033.81 325.423 1034.19 326.643 1034.96 327.477C1035.74 328.29 1036.84 328.697 1038.28 328.697C1039.86 328.697 1041.12 328.217 1042.03 327.258C1042.95 326.299 1043.41 324.943 1043.41 323.191V314.621H1046.41Z" fill="black"/>
<path d="M1072.87 314.464C1074.95 314.464 1076.6 315.069 1077.81 316.279C1079.04 317.488 1079.65 319.281 1079.65 321.659V331.199H1076.65V322.003C1076.65 320.397 1076.28 319.188 1075.53 318.374C1074.8 317.561 1073.74 317.154 1072.37 317.154C1070.84 317.154 1069.63 317.634 1068.74 318.593C1067.84 319.532 1067.39 320.887 1067.39 322.66V331.199H1064.39V322.003C1064.39 320.397 1064.01 319.188 1063.26 318.374C1062.53 317.561 1061.48 317.154 1060.1 317.154C1058.58 317.154 1057.37 317.634 1056.48 318.593C1055.58 319.532 1055.13 320.887 1055.13 322.66V331.199H1052.13V314.621H1055.01V317.092C1055.61 316.237 1056.4 315.59 1057.38 315.152C1058.36 314.694 1059.48 314.464 1060.73 314.464C1062.02 314.464 1063.17 314.725 1064.17 315.246C1065.17 315.768 1065.94 316.529 1066.49 317.53C1067.11 316.57 1067.98 315.82 1069.08 315.278C1070.21 314.735 1071.47 314.464 1072.87 314.464Z" fill="black"/>
<path d="M978.34 347.802L973.96 369.698H970.958L974.148 353.87L963.795 367.039H962.356L956.882 353.557L953.661 369.698H950.658L955.037 347.802H957.57L963.67 363.223L975.65 347.802H978.34Z" fill="black"/>
<path d="M983.034 362.347V362.535C983.034 364.078 983.472 365.256 984.348 366.069C985.223 366.862 986.537 367.258 988.289 367.258C989.31 367.258 990.27 367.091 991.166 366.758C992.063 366.403 992.814 365.934 993.418 365.35L994.701 367.508C993.888 368.259 992.897 368.843 991.729 369.26C990.562 369.677 989.331 369.886 988.038 369.886C986.412 369.886 985.004 369.594 983.816 369.01C982.627 368.426 981.71 367.592 981.063 366.507C980.417 365.423 980.094 364.151 980.094 362.691C980.094 360.835 980.49 359.167 981.282 357.686C982.095 356.206 983.211 355.048 984.629 354.214C986.068 353.38 987.673 352.963 989.446 352.963C991.698 352.963 993.491 353.609 994.826 354.902C996.181 356.174 996.859 357.916 996.859 360.126C996.859 360.793 996.786 361.534 996.64 362.347H983.034ZM989.321 355.465C987.84 355.465 986.568 355.882 985.505 356.717C984.441 357.551 983.722 358.698 983.347 360.157H994.044C994.127 358.677 993.731 357.53 992.855 356.717C992 355.882 990.822 355.465 989.321 355.465Z" fill="black"/>
<path d="M1019.48 346.488L1014.85 369.698H1011.98L1012.38 367.665C1011.63 368.374 1010.76 368.926 1009.76 369.323C1008.78 369.698 1007.7 369.886 1006.53 369.886C1005.12 369.886 1003.85 369.604 1002.75 369.041C1001.64 368.457 1000.78 367.623 1000.15 366.539C999.528 365.454 999.215 364.182 999.215 362.722C999.215 360.846 999.622 359.167 1000.44 357.686C1001.25 356.206 1002.36 355.048 1003.78 354.214C1005.22 353.38 1006.83 352.963 1008.6 352.963C1010.02 352.963 1011.24 353.224 1012.26 353.745C1013.3 354.245 1014.08 354.986 1014.6 355.966L1016.48 346.488H1019.48ZM1007.19 367.258C1008.42 367.258 1009.53 366.966 1010.51 366.382C1011.51 365.777 1012.28 364.943 1012.82 363.88C1013.38 362.816 1013.67 361.607 1013.67 360.251C1013.67 358.771 1013.24 357.624 1012.38 356.81C1011.53 355.997 1010.31 355.591 1008.72 355.591C1007.49 355.591 1006.39 355.893 1005.41 356.498C1004.43 357.082 1003.66 357.905 1003.09 358.969C1002.53 360.032 1002.25 361.242 1002.25 362.597C1002.25 364.057 1002.68 365.204 1003.53 366.038C1004.41 366.851 1005.63 367.258 1007.19 367.258Z" fill="black"/>
<path d="M1023.85 353.119H1026.85L1023.57 369.698H1020.57L1023.85 353.119ZM1026.23 349.929C1025.69 349.929 1025.24 349.752 1024.88 349.397C1024.53 349.043 1024.35 348.615 1024.35 348.115C1024.35 347.531 1024.55 347.041 1024.95 346.644C1025.36 346.227 1025.88 346.019 1026.51 346.019C1027.05 346.019 1027.5 346.196 1027.86 346.551C1028.23 346.884 1028.42 347.291 1028.42 347.77C1028.42 348.417 1028.21 348.938 1027.79 349.334C1027.4 349.731 1026.88 349.929 1026.23 349.929Z" fill="black"/>
<path d="M1048.04 353.119L1044.76 369.698H1041.88L1042.28 367.571C1041.53 368.342 1040.65 368.926 1039.63 369.323C1038.62 369.698 1037.53 369.886 1036.34 369.886C1034.51 369.886 1033.06 369.395 1031.99 368.415C1030.93 367.435 1030.4 366.069 1030.4 364.318C1030.4 363.734 1030.46 363.098 1030.59 362.41L1032.43 353.119H1035.43L1033.59 362.441C1033.48 363.004 1033.43 363.473 1033.43 363.848C1033.43 364.933 1033.75 365.767 1034.37 366.351C1035.02 366.914 1035.97 367.195 1037.22 367.195C1038.8 367.195 1040.12 366.747 1041.16 365.85C1042.22 364.954 1042.93 363.64 1043.29 361.909L1045.04 353.119H1048.04Z" fill="black"/>
<path d="M1074.06 352.963C1075.93 352.963 1077.39 353.443 1078.43 354.402C1079.5 355.34 1080.03 356.685 1080.03 358.437C1080.03 358.917 1079.96 359.574 1079.81 360.408L1077.97 369.698H1074.96L1076.81 360.408C1076.91 359.824 1076.96 359.344 1076.96 358.969C1076.96 357.884 1076.66 357.061 1076.06 356.498C1075.45 355.935 1074.54 355.653 1073.31 355.653C1071.76 355.653 1070.49 356.091 1069.49 356.967C1068.51 357.822 1067.84 359.115 1067.49 360.846L1065.7 369.698H1062.7L1064.58 360.408C1064.68 359.845 1064.73 359.375 1064.73 359C1064.73 357.916 1064.42 357.092 1063.8 356.529C1063.19 355.945 1062.27 355.653 1061.04 355.653C1059.5 355.653 1058.23 356.091 1057.23 356.967C1056.25 357.843 1055.58 359.167 1055.23 360.939L1053.47 369.698H1050.47L1053.76 353.119H1056.63L1056.23 355.184C1057.69 353.703 1059.61 352.963 1061.98 352.963C1063.28 352.963 1064.38 353.213 1065.3 353.714C1066.22 354.214 1066.88 354.944 1067.3 355.903C1068.99 353.943 1071.24 352.963 1074.06 352.963Z" fill="black"/>
<path d="M1096.71 347.802H1099.84L1095.46 369.698H1092.33L1096.71 347.802Z" fill="black"/>
<path d="M1106.05 364.412C1105.98 364.724 1105.95 365.016 1105.95 365.287C1105.95 365.955 1106.13 366.466 1106.48 366.82C1106.86 367.175 1107.41 367.352 1108.14 367.352C1109.02 367.352 1109.81 367.091 1110.52 366.57L1111.15 368.853C1110.14 369.541 1108.86 369.886 1107.3 369.886C1105.98 369.886 1104.92 369.521 1104.11 368.791C1103.32 368.04 1102.92 367.018 1102.92 365.725C1102.92 365.287 1102.96 364.87 1103.04 364.474L1104.83 355.591H1102.01L1102.48 353.119H1105.33L1106.05 349.491H1109.05L1108.33 353.119H1113.08L1112.58 355.591H1107.83L1106.05 364.412Z" fill="black"/>
<path d="M1132.9 353.119L1129.61 369.698H1126.74L1127.14 367.665C1126.39 368.374 1125.52 368.926 1124.52 369.323C1123.54 369.698 1122.46 369.886 1121.29 369.886C1119.88 369.886 1118.62 369.604 1117.51 369.041C1116.4 368.457 1115.54 367.623 1114.91 366.539C1114.29 365.454 1113.98 364.182 1113.98 362.722C1113.98 360.846 1114.38 359.167 1115.2 357.686C1116.01 356.206 1117.12 355.048 1118.54 354.214C1119.98 353.38 1121.59 352.963 1123.36 352.963C1124.78 352.963 1125.99 353.213 1126.99 353.714C1128.01 354.214 1128.79 354.954 1129.33 355.935L1129.9 353.119H1132.9ZM1121.95 367.258C1123.18 367.258 1124.29 366.966 1125.27 366.382C1126.27 365.777 1127.04 364.943 1127.58 363.88C1128.14 362.816 1128.43 361.607 1128.43 360.251C1128.43 358.771 1128 357.624 1127.14 356.81C1126.29 355.997 1125.07 355.591 1123.48 355.591C1122.25 355.591 1121.15 355.893 1120.17 356.498C1119.19 357.082 1118.42 357.905 1117.85 358.969C1117.29 360.032 1117.01 361.242 1117.01 362.597C1117.01 364.057 1117.44 365.204 1118.29 366.038C1119.17 366.851 1120.39 367.258 1121.95 367.258Z" fill="black"/>
<path d="M1139.96 346.488H1142.96L1138.33 369.698H1135.33L1139.96 346.488Z" fill="black"/>
<path d="M1147.35 353.119H1150.35L1147.07 369.698H1144.06L1147.35 353.119ZM1149.73 349.929C1149.18 349.929 1148.73 349.752 1148.38 349.397C1148.03 349.043 1147.85 348.615 1147.85 348.115C1147.85 347.531 1148.05 347.041 1148.44 346.644C1148.86 346.227 1149.38 346.019 1150.01 346.019C1150.55 346.019 1151 346.196 1151.35 346.551C1151.73 346.884 1151.91 347.291 1151.91 347.77C1151.91 348.417 1151.71 348.938 1151.29 349.334C1150.89 349.731 1150.37 349.929 1149.73 349.929Z" fill="black"/>
<path d="M1160.65 369.886C1159.07 369.886 1157.68 369.594 1156.49 369.01C1155.3 368.405 1154.38 367.571 1153.74 366.507C1153.09 365.423 1152.77 364.161 1152.77 362.722C1152.77 360.866 1153.19 359.198 1154.02 357.718C1154.85 356.237 1156.01 355.08 1157.49 354.245C1158.97 353.39 1160.65 352.963 1162.53 352.963C1165.8 352.963 1168.07 354.162 1169.35 356.56L1166.81 357.968C1165.94 356.383 1164.44 355.591 1162.31 355.591C1161.08 355.591 1159.96 355.893 1158.96 356.498C1157.98 357.082 1157.21 357.905 1156.65 358.969C1156.08 360.032 1155.8 361.242 1155.8 362.597C1155.8 364.057 1156.23 365.204 1157.09 366.038C1157.96 366.851 1159.19 367.258 1160.78 367.258C1161.78 367.258 1162.7 367.06 1163.56 366.664C1164.44 366.267 1165.15 365.684 1165.72 364.912L1167.91 366.476C1167.14 367.54 1166.1 368.374 1164.81 368.978C1163.52 369.583 1162.13 369.886 1160.65 369.886Z" fill="black"/>
<path d="M958.759 408.509C957.07 408.509 955.433 408.27 953.848 407.79C952.284 407.31 951.044 406.674 950.126 405.882L951.534 402.723C952.43 403.432 953.525 404.015 954.818 404.474C956.132 404.912 957.445 405.131 958.759 405.131C960.385 405.131 961.595 404.87 962.387 404.349C963.201 403.828 963.607 403.14 963.607 402.285C963.607 401.659 963.378 401.148 962.919 400.752C962.481 400.335 961.918 400.012 961.23 399.782C960.542 399.553 959.604 399.292 958.415 399C956.747 398.604 955.391 398.208 954.349 397.812C953.327 397.415 952.441 396.8 951.69 395.966C950.96 395.111 950.595 393.964 950.595 392.525C950.595 391.316 950.918 390.221 951.565 389.241C952.232 388.24 953.223 387.447 954.536 386.863C955.871 386.28 957.497 385.988 959.416 385.988C960.75 385.988 962.064 386.154 963.357 386.488C964.65 386.822 965.765 387.301 966.704 387.927L965.421 391.086C964.462 390.523 963.461 390.096 962.419 389.804C961.376 389.512 960.365 389.366 959.385 389.366C957.779 389.366 956.58 389.637 955.788 390.179C955.016 390.721 954.63 391.441 954.63 392.337C954.63 392.963 954.849 393.474 955.287 393.87C955.746 394.266 956.319 394.579 957.007 394.809C957.696 395.038 958.634 395.299 959.822 395.591C961.449 395.966 962.784 396.362 963.826 396.779C964.869 397.176 965.755 397.791 966.485 398.625C967.236 399.459 967.611 400.585 967.611 402.003C967.611 403.213 967.277 404.307 966.61 405.287C965.964 406.268 964.973 407.05 963.638 407.633C962.304 408.217 960.677 408.509 958.759 408.509Z" fill="black"/>
<path d="M986.97 399.939C986.97 400.21 986.949 400.595 986.907 401.096H973.801C974.031 402.326 974.625 403.306 975.584 404.036C976.564 404.745 977.774 405.1 979.212 405.1C981.047 405.1 982.559 404.495 983.748 403.286L985.844 405.694C985.093 406.591 984.144 407.269 982.997 407.727C981.85 408.186 980.557 408.415 979.119 408.415C977.284 408.415 975.667 408.051 974.27 407.321C972.873 406.591 971.789 405.579 971.017 404.286C970.267 402.973 969.891 401.492 969.891 399.845C969.891 398.218 970.256 396.758 970.986 395.466C971.737 394.152 972.769 393.13 974.083 392.4C975.396 391.67 976.877 391.305 978.524 391.305C980.151 391.305 981.6 391.67 982.872 392.4C984.165 393.109 985.166 394.12 985.875 395.434C986.605 396.727 986.97 398.229 986.97 399.939ZM978.524 394.433C977.273 394.433 976.21 394.809 975.334 395.559C974.479 396.289 973.958 397.269 973.77 398.5H983.247C983.081 397.29 982.57 396.31 981.715 395.559C980.86 394.809 979.796 394.433 978.524 394.433Z" fill="black"/>
<path d="M1011.81 391.305C1013.91 391.305 1015.58 391.92 1016.81 393.151C1018.04 394.36 1018.66 396.185 1018.66 398.625V408.197H1014.75V399.125C1014.75 397.666 1014.42 396.571 1013.78 395.841C1013.13 395.09 1012.2 394.715 1010.99 394.715C1009.68 394.715 1008.63 395.153 1007.83 396.029C1007.04 396.884 1006.65 398.114 1006.65 399.72V408.197H1002.74V399.125C1002.74 397.666 1002.41 396.571 1001.77 395.841C1001.12 395.09 1000.19 394.715 998.983 394.715C997.648 394.715 996.585 395.142 995.792 395.997C995.021 396.852 994.635 398.093 994.635 399.72V408.197H990.725V391.493H994.447V393.62C995.073 392.869 995.855 392.296 996.793 391.9C997.732 391.503 998.774 391.305 999.921 391.305C1001.17 391.305 1002.28 391.545 1003.24 392.025C1004.22 392.483 1004.99 393.172 1005.55 394.089C1006.24 393.213 1007.13 392.536 1008.21 392.056C1009.29 391.555 1010.49 391.305 1011.81 391.305Z" fill="black"/>
<path d="M1023.65 391.493H1027.56V408.197H1023.65V391.493ZM1025.62 388.74C1024.92 388.74 1024.32 388.521 1023.84 388.083C1023.36 387.625 1023.12 387.062 1023.12 386.394C1023.12 385.727 1023.36 385.174 1023.84 384.736C1024.32 384.278 1024.92 384.048 1025.62 384.048C1026.33 384.048 1026.93 384.267 1027.41 384.705C1027.89 385.122 1028.13 385.654 1028.13 386.3C1028.13 386.989 1027.89 387.572 1027.41 388.052C1026.95 388.511 1026.35 388.74 1025.62 388.74Z" fill="black"/>
<path d="M1048.58 396.811C1049.79 397.207 1050.75 397.874 1051.46 398.812C1052.17 399.73 1052.53 400.877 1052.53 402.253C1052.53 404.151 1051.8 405.621 1050.34 406.664C1048.88 407.686 1046.75 408.197 1043.96 408.197H1033.07V386.3H1043.33C1045.92 386.3 1047.91 386.811 1049.3 387.833C1050.7 388.834 1051.4 390.221 1051.4 391.993C1051.4 393.078 1051.15 394.037 1050.65 394.871C1050.15 395.705 1049.46 396.352 1048.58 396.811ZM1037.14 389.491V395.528H1042.89C1044.31 395.528 1045.39 395.278 1046.14 394.777C1046.92 394.256 1047.3 393.505 1047.3 392.525C1047.3 391.524 1046.92 390.773 1046.14 390.273C1045.39 389.752 1044.31 389.491 1042.89 389.491H1037.14ZM1043.71 405.006C1046.85 405.006 1048.43 403.953 1048.43 401.847C1048.43 399.74 1046.85 398.687 1043.71 398.687H1037.14V405.006H1043.71Z" fill="black"/>
<path d="M1064 408.415C1062.31 408.415 1060.79 408.051 1059.43 407.321C1058.07 406.591 1057.01 405.579 1056.24 404.286C1055.49 402.973 1055.11 401.492 1055.11 399.845C1055.11 398.197 1055.49 396.727 1056.24 395.434C1057.01 394.141 1058.07 393.13 1059.43 392.4C1060.79 391.67 1062.31 391.305 1064 391.305C1065.71 391.305 1067.24 391.67 1068.6 392.4C1069.95 393.13 1071 394.141 1071.75 395.434C1072.53 396.727 1072.91 398.197 1072.91 399.845C1072.91 401.492 1072.53 402.973 1071.75 404.286C1071 405.579 1069.95 406.591 1068.6 407.321C1067.24 408.051 1065.71 408.415 1064 408.415ZM1064 405.068C1065.44 405.068 1066.62 404.589 1067.56 403.63C1068.5 402.67 1068.97 401.409 1068.97 399.845C1068.97 398.281 1068.5 397.019 1067.56 396.06C1066.62 395.101 1065.44 394.621 1064 394.621C1062.56 394.621 1061.37 395.101 1060.43 396.06C1059.51 397.019 1059.05 398.281 1059.05 399.845C1059.05 401.409 1059.51 402.67 1060.43 403.63C1061.37 404.589 1062.56 405.068 1064 405.068Z" fill="black"/>
<path d="M1076.65 384.987H1080.56V408.197H1076.65V384.987Z" fill="black"/>
<path d="M1102.05 384.987V408.197H1098.3V406.038C1097.65 406.831 1096.85 407.425 1095.89 407.821C1094.95 408.217 1093.91 408.415 1092.76 408.415C1091.16 408.415 1089.71 408.061 1088.41 407.352C1087.14 406.643 1086.14 405.642 1085.41 404.349C1084.68 403.035 1084.32 401.534 1084.32 399.845C1084.32 398.156 1084.68 396.665 1085.41 395.372C1086.14 394.079 1087.14 393.078 1088.41 392.369C1089.71 391.66 1091.16 391.305 1092.76 391.305C1093.87 391.305 1094.88 391.493 1095.79 391.868C1096.71 392.244 1097.49 392.807 1098.14 393.557V384.987H1102.05ZM1093.23 405.068C1094.17 405.068 1095.01 404.86 1095.76 404.443C1096.51 404.005 1097.11 403.39 1097.55 402.597C1097.98 401.805 1098.2 400.887 1098.2 399.845C1098.2 398.802 1097.98 397.885 1097.55 397.092C1097.11 396.3 1096.51 395.695 1095.76 395.278C1095.01 394.84 1094.17 394.621 1093.23 394.621C1092.29 394.621 1091.45 394.84 1090.7 395.278C1089.95 395.695 1089.35 396.3 1088.91 397.092C1088.48 397.885 1088.26 398.802 1088.26 399.845C1088.26 400.887 1088.48 401.805 1088.91 402.597C1089.35 403.39 1089.95 404.005 1090.7 404.443C1091.45 404.86 1092.29 405.068 1093.23 405.068Z" fill="black"/>
<path d="M957.477 447.008C955.788 447.008 954.171 446.768 952.628 446.289C951.085 445.809 949.876 445.194 949 444.443L950.72 441.252C951.638 441.982 952.722 442.566 953.973 443.004C955.245 443.421 956.538 443.63 957.852 443.63C959.458 443.63 960.73 443.359 961.668 442.816C962.627 442.253 963.107 441.492 963.107 440.533C963.107 439.991 962.909 439.542 962.512 439.188C962.137 438.813 961.657 438.51 961.074 438.281C960.511 438.051 959.718 437.791 958.696 437.499C957.278 437.082 956.132 436.686 955.256 436.31C954.38 435.914 953.629 435.33 953.004 434.558C952.378 433.787 952.065 432.786 952.065 431.556C952.065 430.138 952.462 428.897 953.254 427.833C954.067 426.77 955.193 425.946 956.632 425.362C958.071 424.778 959.729 424.486 961.605 424.486C963.023 424.486 964.368 424.653 965.64 424.987C966.912 425.3 968.007 425.748 968.925 426.332L967.329 429.554C966.516 429.011 965.599 428.594 964.577 428.302C963.555 428.011 962.492 427.865 961.386 427.865C959.76 427.865 958.467 428.167 957.508 428.772C956.569 429.356 956.1 430.138 956.1 431.118C956.1 431.681 956.298 432.15 956.695 432.525C957.091 432.901 957.57 433.203 958.133 433.432C958.696 433.641 959.52 433.912 960.604 434.246C961.981 434.642 963.107 435.028 963.983 435.403C964.858 435.778 965.599 436.331 966.203 437.061C966.829 437.791 967.142 438.74 967.142 439.907C967.142 441.346 966.735 442.597 965.922 443.661C965.129 444.725 963.993 445.548 962.512 446.132C961.053 446.716 959.374 447.008 957.477 447.008Z" fill="black"/>
<path d="M987.095 437.123C987.095 437.937 987.011 438.729 986.844 439.501H973.582C973.645 442.233 975.25 443.598 978.399 443.598C979.358 443.598 980.255 443.453 981.089 443.161C981.923 442.848 982.632 442.42 983.216 441.878L984.843 444.599C983.988 445.371 982.955 445.955 981.746 446.351C980.557 446.726 979.306 446.914 977.993 446.914C976.324 446.914 974.865 446.612 973.613 446.007C972.383 445.402 971.434 444.547 970.767 443.442C970.1 442.316 969.766 441.023 969.766 439.563C969.766 437.707 970.173 436.039 970.986 434.558C971.82 433.057 972.967 431.889 974.427 431.055C975.907 430.221 977.565 429.804 979.4 429.804C981.736 429.804 983.602 430.461 984.999 431.775C986.396 433.067 987.095 434.85 987.095 437.123ZM979.212 432.932C977.899 432.932 976.773 433.286 975.834 433.995C974.917 434.704 974.281 435.674 973.926 436.904H983.498C983.518 435.653 983.133 434.684 982.34 433.995C981.569 433.286 980.526 432.932 979.212 432.932Z" fill="black"/>
<path d="M1012.94 429.804C1014.81 429.804 1016.28 430.284 1017.35 431.243C1018.43 432.202 1018.97 433.578 1018.97 435.372C1018.97 436.039 1018.9 436.727 1018.75 437.436L1016.91 446.695H1013L1014.84 437.53C1014.93 437.113 1014.97 436.675 1014.97 436.216C1014.97 434.214 1013.91 433.213 1011.78 433.213C1009 433.213 1007.29 434.809 1006.65 437.999L1004.9 446.695H1000.99L1002.83 437.53C1002.92 437.113 1002.96 436.675 1002.96 436.216C1002.96 434.214 1001.89 433.213 999.767 433.213C996.994 433.213 995.284 434.819 994.637 438.031L992.886 446.695H988.976L992.291 429.992H996.014L995.669 431.806C997.087 430.471 998.912 429.804 1001.14 429.804C1002.35 429.804 1003.41 430.044 1004.3 430.523C1005.2 430.982 1005.88 431.66 1006.34 432.557C1008.05 430.721 1010.25 429.804 1012.94 429.804Z" fill="black"/>
<path d="M1025.22 429.992H1029.13L1025.81 446.695H1021.9L1025.22 429.992ZM1028.07 427.239C1027.38 427.239 1026.81 427.03 1026.38 426.613C1025.94 426.175 1025.72 425.654 1025.72 425.049C1025.72 424.34 1025.96 423.746 1026.44 423.266C1026.94 422.787 1027.59 422.547 1028.38 422.547C1029.07 422.547 1029.63 422.755 1030.07 423.173C1030.51 423.569 1030.72 424.059 1030.72 424.643C1030.72 425.414 1030.47 426.04 1029.97 426.519C1029.49 426.999 1028.86 427.239 1028.07 427.239Z" fill="black"/>
<path d="M1049.02 435.372C1049.96 435.726 1050.69 436.279 1051.21 437.03C1051.74 437.78 1052 438.708 1052 439.814C1052 442.066 1051.12 443.776 1049.37 444.943C1047.62 446.111 1045.26 446.695 1042.3 446.695H1031.32L1035.7 424.799H1045.8C1048.08 424.799 1049.83 425.227 1051.06 426.082C1052.31 426.916 1052.93 428.125 1052.93 429.71C1052.93 431.066 1052.58 432.233 1051.87 433.213C1051.16 434.173 1050.21 434.892 1049.02 435.372ZM1039.11 427.99L1037.89 434.027H1043.68C1045.22 434.027 1046.44 433.724 1047.34 433.12C1048.23 432.494 1048.68 431.587 1048.68 430.398C1048.68 428.792 1047.42 427.99 1044.9 427.99H1039.11ZM1042.58 443.505C1044.29 443.505 1045.6 443.192 1046.52 442.566C1047.46 441.941 1047.93 441.023 1047.93 439.814C1047.93 438.875 1047.6 438.208 1046.93 437.812C1046.28 437.395 1045.3 437.186 1043.99 437.186H1037.26L1036.01 443.505H1042.58Z" fill="black"/>
<path d="M1063 446.914C1061.37 446.914 1059.94 446.612 1058.71 446.007C1057.5 445.381 1056.57 444.516 1055.9 443.411C1055.23 442.306 1054.9 441.023 1054.9 439.563C1054.9 437.707 1055.31 436.039 1056.15 434.558C1057 433.078 1058.18 431.921 1059.68 431.086C1061.21 430.231 1062.91 429.804 1064.81 429.804C1066.44 429.804 1067.87 430.106 1069.1 430.711C1070.33 431.316 1071.28 432.171 1071.94 433.276C1072.61 434.381 1072.94 435.664 1072.94 437.123C1072.94 438.979 1072.52 440.648 1071.66 442.128C1070.81 443.609 1069.62 444.777 1068.1 445.632C1066.6 446.487 1064.9 446.914 1063 446.914ZM1063.25 443.567C1064.35 443.567 1065.33 443.307 1066.19 442.785C1067.06 442.243 1067.75 441.503 1068.25 440.564C1068.75 439.605 1069 438.521 1069 437.311C1069 435.997 1068.62 434.976 1067.85 434.246C1067.07 433.495 1065.99 433.12 1064.59 433.12C1063.49 433.12 1062.5 433.391 1061.62 433.933C1060.77 434.454 1060.09 435.195 1059.59 436.154C1059.09 437.092 1058.84 438.166 1058.84 439.376C1058.84 440.689 1059.22 441.722 1060 442.472C1060.77 443.202 1061.85 443.567 1063.25 443.567Z" fill="black"/>
<path d="M1079.53 423.485H1083.44L1078.81 446.695H1074.9L1079.53 423.485Z" fill="black"/>
<path d="M1104.9 423.485L1100.27 446.695H1096.55L1096.89 444.975C1095.39 446.268 1093.59 446.914 1091.48 446.914C1090.1 446.914 1088.85 446.622 1087.73 446.038C1086.62 445.454 1085.75 444.61 1085.1 443.505C1084.45 442.379 1084.13 441.065 1084.13 439.563C1084.13 437.686 1084.54 436.008 1085.35 434.527C1086.16 433.047 1087.28 431.889 1088.7 431.055C1090.14 430.221 1091.74 429.804 1093.51 429.804C1094.83 429.804 1095.96 430.023 1096.92 430.461C1097.9 430.899 1098.66 431.545 1099.21 432.4L1100.99 423.485H1104.9ZM1092.48 443.567C1093.57 443.567 1094.55 443.307 1095.42 442.785C1096.3 442.243 1096.98 441.503 1097.45 440.564C1097.96 439.605 1098.21 438.521 1098.21 437.311C1098.21 435.997 1097.82 434.976 1097.05 434.246C1096.28 433.495 1095.19 433.12 1093.8 433.12C1092.71 433.12 1091.73 433.391 1090.86 433.933C1089.98 434.454 1089.29 435.195 1088.79 436.154C1088.31 437.092 1088.07 438.166 1088.07 439.376C1088.07 440.689 1088.46 441.722 1089.23 442.472C1090 443.202 1091.08 443.567 1092.48 443.567Z" fill="black"/>
<path d="M1118.81 424.799H1122.88L1118.5 446.695H1114.44L1118.81 424.799Z" fill="black"/>
<path d="M1129.55 441.096C1129.51 441.43 1129.49 441.67 1129.49 441.815C1129.49 443.067 1130.15 443.692 1131.46 443.692C1132.28 443.692 1133.01 443.473 1133.65 443.035L1134.34 445.913C1133.28 446.581 1131.93 446.914 1130.3 446.914C1128.87 446.914 1127.71 446.518 1126.83 445.726C1125.96 444.933 1125.52 443.838 1125.52 442.441C1125.52 441.982 1125.56 441.544 1125.64 441.127L1127.24 433.245H1124.52L1125.14 430.117H1127.86L1128.62 426.301H1132.53L1131.74 430.117H1136.25L1135.62 433.245H1131.12L1129.55 441.096Z" fill="black"/>
<path d="M1156.4 429.992L1153.08 446.695H1149.36L1149.71 444.975C1148.25 446.268 1146.43 446.914 1144.26 446.914C1142.89 446.914 1141.64 446.622 1140.51 446.038C1139.4 445.454 1138.53 444.61 1137.88 443.505C1137.24 442.379 1136.91 441.065 1136.91 439.563C1136.91 437.707 1137.32 436.039 1138.13 434.558C1138.97 433.057 1140.09 431.889 1141.51 431.055C1142.95 430.221 1144.55 429.804 1146.33 429.804C1149 429.804 1150.89 430.69 1152.02 432.463L1152.49 429.992H1156.4ZM1145.26 443.567C1146.37 443.567 1147.35 443.307 1148.2 442.785C1149.08 442.243 1149.77 441.503 1150.27 440.564C1150.77 439.605 1151.02 438.521 1151.02 437.311C1151.02 435.997 1150.63 434.976 1149.86 434.246C1149.09 433.495 1148.01 433.12 1146.61 433.12C1145.5 433.12 1144.51 433.391 1143.64 433.933C1142.78 434.454 1142.1 435.195 1141.6 436.154C1141.1 437.092 1140.85 438.166 1140.85 439.376C1140.85 440.689 1141.24 441.722 1142.01 442.472C1142.78 443.202 1143.87 443.567 1145.26 443.567Z" fill="black"/>
<path d="M1162.83 423.485H1166.74L1162.11 446.695H1158.2L1162.83 423.485Z" fill="black"/>
<path d="M1170.56 429.992H1174.47L1171.15 446.695H1167.24L1170.56 429.992ZM1173.4 427.239C1172.71 427.239 1172.15 427.03 1171.71 426.613C1171.28 426.175 1171.06 425.654 1171.06 425.049C1171.06 424.34 1171.3 423.746 1171.78 423.266C1172.28 422.787 1172.92 422.547 1173.72 422.547C1174.4 422.547 1174.97 422.755 1175.4 423.173C1175.84 423.569 1176.06 424.059 1176.06 424.643C1176.06 425.414 1175.81 426.04 1175.31 426.519C1174.83 426.999 1174.19 427.239 1173.4 427.239Z" fill="black"/>
<path d="M1184.63 446.914C1182.99 446.914 1181.54 446.612 1180.29 446.007C1179.06 445.381 1178.11 444.516 1177.44 443.411C1176.77 442.306 1176.44 441.023 1176.44 439.563C1176.44 437.707 1176.87 436.039 1177.72 434.558C1178.58 433.078 1179.75 431.921 1181.26 431.086C1182.78 430.231 1184.51 429.804 1186.45 429.804C1188.14 429.804 1189.59 430.138 1190.8 430.805C1192.03 431.451 1192.97 432.421 1193.64 433.714L1190.3 435.434C1189.52 433.891 1188.14 433.12 1186.13 433.12C1185.03 433.12 1184.04 433.391 1183.16 433.933C1182.31 434.454 1181.63 435.195 1181.13 436.154C1180.63 437.092 1180.38 438.166 1180.38 439.376C1180.38 440.689 1180.77 441.722 1181.54 442.472C1182.31 443.202 1183.4 443.567 1184.82 443.567C1185.78 443.567 1186.65 443.38 1187.42 443.004C1188.19 442.608 1188.85 442.024 1189.39 441.252L1192.27 443.192C1191.49 444.36 1190.43 445.277 1189.08 445.944C1187.72 446.591 1186.24 446.914 1184.63 446.914Z" fill="black"/>
<path d="M967.705 473.808C968.956 474.204 969.936 474.871 970.645 475.81C971.354 476.727 971.708 477.864 971.708 479.219C971.708 481.138 970.958 482.618 969.456 483.661C967.976 484.683 965.807 485.194 962.95 485.194H951.627V463.298H962.325C964.994 463.298 967.037 463.809 968.455 464.831C969.894 465.852 970.614 467.239 970.614 468.991C970.614 470.054 970.353 471.003 969.832 471.837C969.331 472.671 968.622 473.328 967.705 473.808ZM956.663 467.114V472.275H961.699C962.95 472.275 963.899 472.056 964.546 471.618C965.192 471.18 965.515 470.534 965.515 469.679C965.515 468.824 965.192 468.188 964.546 467.771C963.899 467.333 962.95 467.114 961.699 467.114H956.663ZM962.575 481.378C963.91 481.378 964.91 481.159 965.578 480.721C966.266 480.283 966.61 479.605 966.61 478.688C966.61 476.873 965.265 475.966 962.575 475.966H956.663V481.378H962.575Z" fill="black"/>
<path d="M983.208 485.444C981.436 485.444 979.84 485.079 978.422 484.349C977.025 483.599 975.93 482.566 975.138 481.253C974.346 479.939 973.949 478.448 973.949 476.779C973.949 475.111 974.346 473.62 975.138 472.306C975.93 470.993 977.025 469.971 978.422 469.241C979.84 468.49 981.436 468.115 983.208 468.115C984.98 468.115 986.565 468.49 987.962 469.241C989.36 469.971 990.454 470.993 991.247 472.306C992.039 473.62 992.435 475.111 992.435 476.779C992.435 478.448 992.039 479.939 991.247 481.253C990.454 482.566 989.36 483.599 987.962 484.349C986.565 485.079 984.98 485.444 983.208 485.444ZM983.208 481.44C984.459 481.44 985.481 481.023 986.273 480.189C987.087 479.334 987.493 478.198 987.493 476.779C987.493 475.361 987.087 474.235 986.273 473.401C985.481 472.546 984.459 472.119 983.208 472.119C981.957 472.119 980.925 472.546 980.111 473.401C979.298 474.235 978.892 475.361 978.892 476.779C978.892 478.198 979.298 479.334 980.111 480.189C980.925 481.023 981.957 481.44 983.208 481.44Z" fill="black"/>
<path d="M995.697 461.984H1000.58V485.194H995.697V461.984Z" fill="black"/>
<path d="M1022.25 461.984V485.194H1017.59V483.254C1016.38 484.714 1014.62 485.444 1012.33 485.444C1010.75 485.444 1009.31 485.09 1008.01 484.381C1006.74 483.672 1005.74 482.66 1005.01 481.346C1004.28 480.033 1003.92 478.51 1003.92 476.779C1003.92 475.049 1004.28 473.526 1005.01 472.213C1005.74 470.899 1006.74 469.887 1008.01 469.178C1009.31 468.469 1010.75 468.115 1012.33 468.115C1014.48 468.115 1016.16 468.793 1017.37 470.148V461.984H1022.25ZM1013.17 481.44C1014.41 481.44 1015.43 481.023 1016.24 480.189C1017.05 479.334 1017.46 478.198 1017.46 476.779C1017.46 475.361 1017.05 474.235 1016.24 473.401C1015.43 472.546 1014.41 472.119 1013.17 472.119C1011.92 472.119 1010.89 472.546 1010.08 473.401C1009.26 474.235 1008.86 475.361 1008.86 476.779C1008.86 478.198 1009.26 479.334 1010.08 480.189C1010.89 481.023 1011.92 481.44 1013.17 481.44Z" fill="black"/>
<path d="M968.33 512.4C969.269 512.776 969.988 513.339 970.489 514.089C971.01 514.819 971.271 515.716 971.271 516.78C971.271 519.053 970.374 520.773 968.581 521.941C966.787 523.109 964.4 523.693 961.418 523.693H949.938L954.317 501.796H964.89C967.246 501.796 969.06 502.234 970.332 503.11C971.604 503.965 972.24 505.196 972.24 506.801C972.24 508.136 971.886 509.283 971.177 510.242C970.489 511.18 969.54 511.9 968.33 512.4ZM958.571 505.613L957.539 510.774H962.7C964.035 510.774 965.067 510.513 965.797 509.992C966.547 509.45 966.923 508.678 966.923 507.677C966.923 506.301 965.849 505.613 963.701 505.613H958.571ZM961.73 519.876C963.148 519.876 964.254 519.605 965.046 519.063C965.838 518.521 966.235 517.739 966.235 516.717C966.235 515.216 965.14 514.465 962.95 514.465H956.82L955.756 519.876H961.73Z" fill="black"/>
<path d="M982.332 523.943C980.643 523.943 979.152 523.63 977.859 523.004C976.587 522.379 975.597 521.503 974.888 520.377C974.2 519.23 973.856 517.906 973.856 516.404C973.856 514.548 974.294 512.88 975.169 511.399C976.045 509.919 977.255 508.751 978.798 507.896C980.341 507.041 982.082 506.614 984.021 506.614C985.731 506.614 987.222 506.926 988.494 507.552C989.766 508.178 990.746 509.064 991.434 510.211C992.143 511.337 992.498 512.651 992.498 514.152C992.498 516.008 992.06 517.676 991.184 519.157C990.329 520.637 989.12 521.805 987.556 522.66C986.013 523.515 984.272 523.943 982.332 523.943ZM982.645 519.908C983.583 519.908 984.428 519.678 985.179 519.219C985.929 518.74 986.513 518.083 986.93 517.249C987.347 516.415 987.556 515.455 987.556 514.371C987.556 513.224 987.222 512.317 986.555 511.65C985.888 510.982 984.949 510.649 983.74 510.649C982.781 510.649 981.926 510.889 981.175 511.368C980.424 511.827 979.84 512.473 979.423 513.307C979.006 514.142 978.798 515.101 978.798 516.185C978.798 517.332 979.131 518.239 979.799 518.907C980.487 519.574 981.436 519.908 982.645 519.908Z" fill="black"/>
<path d="M998.638 500.483H1003.52L998.888 523.693H994.009L998.638 500.483Z" fill="black"/>
<path d="M1025.16 500.483L1020.53 523.693H1015.9L1016.24 522.003C1014.82 523.296 1013.1 523.943 1011.08 523.943C1009.77 523.943 1008.56 523.64 1007.45 523.036C1006.35 522.431 1005.46 521.565 1004.79 520.439C1004.15 519.292 1003.82 517.947 1003.82 516.404C1003.82 514.548 1004.23 512.88 1005.04 511.399C1005.88 509.898 1007 508.73 1008.42 507.896C1009.84 507.041 1011.4 506.614 1013.11 506.614C1014.34 506.614 1015.42 506.822 1016.33 507.239C1017.27 507.656 1018.01 508.271 1018.56 509.085L1020.28 500.483H1025.16ZM1012.58 519.908C1013.54 519.908 1014.4 519.678 1015.15 519.219C1015.9 518.74 1016.48 518.083 1016.9 517.249C1017.31 516.415 1017.52 515.455 1017.52 514.371C1017.52 513.224 1017.18 512.317 1016.49 511.65C1015.82 510.982 1014.89 510.649 1013.68 510.649C1012.72 510.649 1011.86 510.889 1011.11 511.368C1010.36 511.827 1009.78 512.473 1009.36 513.307C1008.94 514.142 1008.73 515.101 1008.73 516.185C1008.73 517.332 1009.07 518.239 1009.73 518.907C1010.42 519.574 1011.37 519.908 1012.58 519.908Z" fill="black"/>
<path d="M1038.62 501.796H1043.72L1039.34 523.693H1034.24L1038.62 501.796Z" fill="black"/>
<path d="M1050.83 517.749C1050.78 517.916 1050.76 518.145 1050.76 518.437C1050.76 519.522 1051.36 520.064 1052.55 520.064C1053.19 520.064 1053.85 519.866 1054.52 519.47L1055.24 522.942C1054.15 523.609 1052.76 523.943 1051.05 523.943C1049.46 523.943 1048.19 523.526 1047.23 522.692C1046.27 521.857 1045.79 520.71 1045.79 519.251C1045.79 518.834 1045.84 518.344 1045.95 517.781L1047.29 510.993H1044.7L1045.45 507.239H1048.04L1048.86 503.141H1053.74L1052.92 507.239H1057.11L1056.36 510.993H1052.17L1050.83 517.749Z" fill="black"/>
<path d="M1077.69 506.864L1074.35 523.693H1069.72L1070.03 522.035C1068.63 523.307 1066.91 523.943 1064.87 523.943C1063.56 523.943 1062.35 523.64 1061.24 523.036C1060.14 522.431 1059.25 521.565 1058.58 520.439C1057.94 519.292 1057.61 517.947 1057.61 516.404C1057.61 514.548 1058.02 512.88 1058.83 511.399C1059.67 509.898 1060.79 508.73 1062.21 507.896C1063.63 507.041 1065.19 506.614 1066.9 506.614C1069.49 506.614 1071.31 507.458 1072.38 509.147L1072.81 506.864H1077.69ZM1066.37 519.908C1067.33 519.908 1068.18 519.678 1068.94 519.219C1069.69 518.74 1070.27 518.083 1070.69 517.249C1071.1 516.415 1071.31 515.455 1071.31 514.371C1071.31 513.224 1070.97 512.317 1070.28 511.65C1069.61 510.982 1068.68 510.649 1067.47 510.649C1066.51 510.649 1065.65 510.889 1064.9 511.368C1064.15 511.827 1063.57 512.473 1063.15 513.307C1062.73 514.142 1062.52 515.101 1062.52 516.185C1062.52 517.332 1062.86 518.239 1063.52 518.907C1064.21 519.574 1065.16 519.908 1066.37 519.908Z" fill="black"/>
<path d="M1083.49 500.483H1088.37L1083.74 523.693H1078.86L1083.49 500.483Z" fill="black"/>
<path d="M1091.62 506.864H1096.47L1093.12 523.693H1088.27L1091.62 506.864ZM1094.87 504.518C1094.04 504.518 1093.35 504.278 1092.81 503.798C1092.29 503.298 1092.03 502.693 1092.03 501.984C1092.03 501.15 1092.32 500.462 1092.9 499.92C1093.51 499.357 1094.29 499.075 1095.25 499.075C1096.1 499.075 1096.79 499.315 1097.31 499.794C1097.85 500.253 1098.13 500.827 1098.13 501.515C1098.13 502.412 1097.82 503.141 1097.22 503.704C1096.61 504.247 1095.83 504.518 1094.87 504.518Z" fill="black"/>
<path d="M1106.53 523.943C1104.8 523.943 1103.29 523.63 1102 523.004C1100.71 522.379 1099.7 521.503 1099 520.377C1098.31 519.23 1097.96 517.906 1097.96 516.404C1097.96 514.548 1098.4 512.88 1099.28 511.399C1100.15 509.919 1101.37 508.751 1102.94 507.896C1104.5 507.041 1106.26 506.614 1108.22 506.614C1110.02 506.614 1111.56 506.989 1112.85 507.74C1114.17 508.469 1115.15 509.512 1115.79 510.868L1111.66 512.932C1110.93 511.41 1109.68 510.649 1107.91 510.649C1106.95 510.649 1106.08 510.889 1105.31 511.368C1104.56 511.827 1103.97 512.473 1103.53 513.307C1103.11 514.142 1102.9 515.09 1102.9 516.154C1102.9 517.301 1103.25 518.219 1103.94 518.907C1104.63 519.574 1105.58 519.908 1106.81 519.908C1108.61 519.908 1109.98 519.157 1110.94 517.655L1114.54 519.908C1113.73 521.18 1112.61 522.17 1111.19 522.879C1109.8 523.588 1108.24 523.943 1106.53 523.943Z" fill="black"/>
<path d="M968.799 557.405V562.191H951.221V540.295H968.393V545.081H957.351V548.772H967.079V553.401H957.351V557.405H968.799Z" fill="black"/>
<path d="M982.623 562.191L979.589 557.749L976.336 562.191H969.893L976.336 553.714L970.08 545.237H976.774L979.777 549.523L982.905 545.237H989.192L982.936 553.495L989.411 562.191H982.623Z" fill="black"/>
<path d="M1002.93 561.503C1002.43 561.816 1001.81 562.056 1001.08 562.222C1000.37 562.389 999.612 562.473 998.799 562.473C996.588 562.473 994.889 561.931 993.7 560.846C992.512 559.762 991.917 558.146 991.917 555.998V550.305H989.446V545.863H991.917V541.452H997.86V545.863H1001.74V550.305H997.86V555.935C997.86 556.54 998.017 557.02 998.329 557.374C998.663 557.708 999.101 557.875 999.643 557.875C1000.33 557.875 1000.94 557.697 1001.46 557.343L1002.93 561.503Z" fill="black"/>
<path d="M1010.88 547.271C1011.49 546.499 1012.27 545.926 1013.23 545.55C1014.21 545.154 1015.32 544.956 1016.57 544.956V550.305C1016.03 550.242 1015.58 550.211 1015.23 550.211C1013.96 550.211 1012.96 550.555 1012.23 551.243C1011.52 551.931 1011.16 552.984 1011.16 554.402V562.191H1005.22V545.237H1010.88V547.271Z" fill="black"/>
<path d="M1026.13 544.956C1028.94 544.956 1031.09 545.602 1032.57 546.895C1034.05 548.167 1034.79 550.127 1034.79 552.776V562.191H1029.26V560.002C1028.4 561.649 1026.73 562.473 1024.25 562.473C1022.94 562.473 1021.8 562.243 1020.84 561.785C1019.88 561.326 1019.15 560.711 1018.65 559.939C1018.17 559.147 1017.93 558.25 1017.93 557.249C1017.93 555.643 1018.55 554.402 1019.78 553.527C1021.01 552.63 1022.91 552.182 1025.47 552.182H1028.85C1028.75 550.388 1027.55 549.491 1025.25 549.491C1024.44 549.491 1023.62 549.627 1022.78 549.898C1021.95 550.148 1021.24 550.503 1020.66 550.962L1018.65 546.927C1019.59 546.301 1020.73 545.821 1022.06 545.488C1023.42 545.133 1024.77 544.956 1026.13 544.956ZM1025.91 558.719C1026.6 558.719 1027.2 558.552 1027.72 558.219C1028.25 557.885 1028.62 557.395 1028.85 556.748V555.278H1026.29C1024.55 555.278 1023.69 555.852 1023.69 556.999C1023.69 557.52 1023.89 557.937 1024.28 558.25C1024.68 558.563 1025.22 558.719 1025.91 558.719Z" fill="black"/>
<path d="M1055.65 550.774C1056.91 551.212 1057.89 551.9 1058.59 552.838C1059.3 553.756 1059.66 554.872 1059.66 556.185C1059.66 558.104 1058.89 559.585 1057.34 560.627C1055.8 561.67 1053.57 562.191 1050.65 562.191H1038.83V540.295H1050.02C1052.82 540.295 1054.94 540.816 1056.4 541.859C1057.86 542.881 1058.59 544.268 1058.59 546.019C1058.59 547.062 1058.33 548 1057.81 548.835C1057.31 549.648 1056.59 550.294 1055.65 550.774ZM1044.96 544.768V548.991H1049.21C1051.3 548.991 1052.34 548.282 1052.34 546.864C1052.34 545.467 1051.3 544.768 1049.21 544.768H1044.96ZM1050.15 557.718C1052.32 557.718 1053.4 556.978 1053.4 555.497C1053.4 554.017 1052.32 553.276 1050.15 553.276H1044.96V557.718H1050.15Z" fill="black"/>
<path d="M1071.09 562.473C1069.28 562.473 1067.64 562.097 1066.18 561.347C1064.72 560.596 1063.57 559.553 1062.74 558.219C1061.93 556.884 1061.52 555.372 1061.52 553.683C1061.52 552.015 1061.93 550.513 1062.74 549.179C1063.57 547.844 1064.71 546.812 1066.15 546.082C1067.61 545.331 1069.26 544.956 1071.09 544.956C1072.93 544.956 1074.57 545.331 1076.03 546.082C1077.49 546.812 1078.63 547.844 1079.44 549.179C1080.26 550.492 1080.66 551.994 1080.66 553.683C1080.66 555.372 1080.26 556.884 1079.44 558.219C1078.63 559.553 1077.49 560.596 1076.03 561.347C1074.57 562.097 1072.93 562.473 1071.09 562.473ZM1071.09 557.749C1072.13 557.749 1072.99 557.395 1073.66 556.686C1074.32 555.956 1074.66 554.955 1074.66 553.683C1074.66 552.432 1074.32 551.452 1073.66 550.743C1072.99 550.034 1072.13 549.679 1071.09 549.679C1070.05 549.679 1069.19 550.034 1068.53 550.743C1067.86 551.452 1067.53 552.432 1067.53 553.683C1067.53 554.955 1067.86 555.956 1068.53 556.686C1069.19 557.395 1070.05 557.749 1071.09 557.749Z" fill="black"/>
<path d="M1083.42 538.981H1089.36V562.191H1083.42V538.981Z" fill="black"/>
<path d="M1111.24 538.981V562.191H1105.58V560.502C1104.47 561.816 1102.81 562.473 1100.6 562.473C1099.06 562.473 1097.65 562.118 1096.38 561.409C1095.11 560.679 1094.1 559.647 1093.35 558.312C1092.62 556.978 1092.25 555.435 1092.25 553.683C1092.25 551.931 1092.62 550.399 1093.35 549.085C1094.1 547.75 1095.11 546.728 1096.38 546.019C1097.65 545.31 1099.06 544.956 1100.6 544.956C1102.63 544.956 1104.19 545.54 1105.29 546.708V538.981H1111.24ZM1101.85 557.749C1102.88 557.749 1103.72 557.395 1104.39 556.686C1105.06 555.956 1105.39 554.955 1105.39 553.683C1105.39 552.432 1105.06 551.452 1104.39 550.743C1103.74 550.034 1102.9 549.679 1101.85 549.679C1100.81 549.679 1099.96 550.034 1099.29 550.743C1098.62 551.452 1098.29 552.432 1098.29 553.683C1098.29 554.955 1098.62 555.956 1099.29 556.686C1099.96 557.395 1100.81 557.749 1101.85 557.749Z" fill="black"/>
<path d="M959.04 583.58L958.321 587.271H968.049L967.142 591.9H957.383L956.601 595.904H968.08L967.079 600.69H949.532L953.911 578.794H971.052L970.082 583.58H959.04Z" fill="black"/>
<path d="M982.936 592.275L987.534 600.69H981.215L978.901 596.248L974.803 600.69H968.078L976.555 591.994L972.082 583.736H978.307L980.559 588.053L984.594 583.736H991.131L982.936 592.275Z" fill="black"/>
<path d="M997.422 594.371C997.381 594.663 997.36 594.851 997.36 594.934C997.36 595.894 997.881 596.373 998.924 596.373C999.487 596.373 1000.08 596.206 1000.71 595.873L1001.46 599.97C1000.29 600.638 998.819 600.971 997.047 600.971C995.295 600.971 993.898 600.533 992.856 599.658C991.834 598.782 991.323 597.562 991.323 595.998C991.323 595.393 991.375 594.861 991.479 594.403L992.605 588.803H990.103L991.01 584.362H993.481L994.357 579.951H1000.3L999.424 584.362H1003.27L1002.4 588.803H998.548L997.422 594.371Z" fill="black"/>
<path d="M1012.16 585.613C1013.58 584.174 1015.62 583.454 1018.29 583.454L1017.26 588.803C1016.74 588.741 1016.29 588.71 1015.92 588.71C1014.58 588.71 1013.51 589.033 1012.69 589.679C1011.9 590.305 1011.37 591.306 1011.1 592.682L1009.47 600.69H1003.53L1006.91 583.736H1012.54L1012.16 585.613Z" fill="black"/>
<path d="M1038.48 583.736L1035.11 600.69H1029.48L1029.82 599.095C1028.47 600.346 1026.83 600.971 1024.91 600.971C1023.66 600.971 1022.48 600.669 1021.38 600.064C1020.29 599.439 1019.42 598.542 1018.75 597.374C1018.08 596.206 1017.75 594.83 1017.75 593.245C1017.75 591.41 1018.15 589.752 1018.97 588.272C1019.8 586.77 1020.92 585.592 1022.31 584.737C1023.73 583.882 1025.27 583.454 1026.94 583.454C1029.4 583.454 1031.13 584.226 1032.14 585.769L1032.54 583.736H1038.48ZM1026.97 596.185C1028.16 596.185 1029.13 595.748 1029.88 594.872C1030.63 593.996 1031.01 592.859 1031.01 591.462C1031.01 590.461 1030.72 589.669 1030.13 589.085C1029.57 588.501 1028.79 588.209 1027.79 588.209C1026.6 588.209 1025.63 588.647 1024.88 589.523C1024.13 590.399 1023.75 591.546 1023.75 592.964C1023.75 593.965 1024.03 594.757 1024.6 595.341C1025.18 595.904 1025.97 596.185 1026.97 596.185Z" fill="black"/>
<path d="M1058.36 589.398C1059.29 589.815 1060.01 590.399 1060.51 591.149C1061.04 591.879 1061.3 592.745 1061.3 593.746C1061.3 596.019 1060.37 597.75 1058.51 598.938C1056.66 600.106 1054.24 600.69 1051.26 600.69H1039.21L1043.59 578.794H1054.67C1057.13 578.794 1059 579.242 1060.3 580.139C1061.61 581.015 1062.27 582.276 1062.27 583.924C1062.27 585.196 1061.92 586.301 1061.23 587.239C1060.55 588.157 1059.59 588.876 1058.36 589.398ZM1048.82 583.267L1047.97 587.49H1052.41C1053.52 587.49 1054.35 587.281 1054.92 586.864C1055.5 586.426 1055.79 585.801 1055.79 584.987C1055.79 583.84 1054.93 583.267 1053.2 583.267H1048.82ZM1051.6 596.217C1052.71 596.217 1053.57 595.998 1054.2 595.56C1054.82 595.122 1055.13 594.476 1055.13 593.621C1055.13 592.995 1054.91 592.536 1054.45 592.244C1053.99 591.931 1053.36 591.775 1052.57 591.775H1047.1L1046.22 596.217H1051.6Z" fill="black"/>
<path d="M1072.39 600.971C1070.59 600.971 1069.03 600.659 1067.7 600.033C1066.36 599.387 1065.33 598.479 1064.6 597.312C1063.87 596.144 1063.5 594.788 1063.5 593.245C1063.5 591.389 1063.95 589.721 1064.85 588.24C1065.75 586.76 1066.99 585.592 1068.57 584.737C1070.16 583.882 1071.94 583.454 1073.92 583.454C1075.71 583.454 1077.28 583.778 1078.61 584.424C1079.95 585.05 1080.98 585.946 1081.71 587.114C1082.44 588.261 1082.8 589.606 1082.8 591.149C1082.8 593.005 1082.35 594.684 1081.46 596.185C1080.56 597.666 1079.32 598.834 1077.74 599.689C1076.17 600.544 1074.39 600.971 1072.39 600.971ZM1072.73 596.185C1073.92 596.185 1074.89 595.748 1075.64 594.872C1076.39 593.996 1076.77 592.859 1076.77 591.462C1076.77 590.461 1076.48 589.669 1075.92 589.085C1075.36 588.501 1074.58 588.209 1073.58 588.209C1072.39 588.209 1071.42 588.647 1070.67 589.523C1069.92 590.399 1069.54 591.546 1069.54 592.964C1069.54 593.965 1069.82 594.757 1070.39 595.341C1070.95 595.904 1071.73 596.185 1072.73 596.185Z" fill="black"/>
<path d="M1088.4 577.48H1094.35L1089.72 600.69H1083.77L1088.4 577.48Z" fill="black"/>
<path d="M1116.22 577.48L1111.6 600.69H1105.97L1106.31 599.032C1104.95 600.325 1103.32 600.971 1101.4 600.971C1100.15 600.971 1098.97 600.669 1097.86 600.064C1096.78 599.439 1095.9 598.542 1095.24 597.374C1094.57 596.206 1094.24 594.83 1094.24 593.245C1094.24 591.41 1094.64 589.752 1095.46 588.272C1096.29 586.77 1097.42 585.592 1098.83 584.737C1100.25 583.882 1101.79 583.454 1103.46 583.454C1105.88 583.454 1107.6 584.205 1108.62 585.707L1110.28 577.48H1116.22ZM1103.46 596.185C1104.65 596.185 1105.62 595.748 1106.37 594.872C1107.12 593.996 1107.5 592.859 1107.5 591.462C1107.5 590.461 1107.22 589.669 1106.65 589.085C1106.09 588.501 1105.31 588.209 1104.31 588.209C1103.12 588.209 1102.15 588.647 1101.4 589.523C1100.65 590.399 1100.27 591.546 1100.27 592.964C1100.27 593.965 1100.55 594.757 1101.12 595.341C1101.68 595.904 1102.46 596.185 1103.46 596.185Z" fill="black"/>
<path d="M1129.18 578.794H1135.38L1131 600.69H1124.8L1129.18 578.794Z" fill="black"/>
<path d="M1143 594.371C1142.96 594.663 1142.94 594.851 1142.94 594.934C1142.94 595.894 1143.46 596.373 1144.5 596.373C1145.07 596.373 1145.66 596.206 1146.29 595.873L1147.04 599.97C1145.87 600.638 1144.4 600.971 1142.63 600.971C1140.88 600.971 1139.48 600.533 1138.44 599.658C1137.41 598.782 1136.9 597.562 1136.9 595.998C1136.9 595.393 1136.96 594.861 1137.06 594.403L1138.19 588.803H1135.68L1136.59 584.362H1139.06L1139.94 579.951H1145.88L1145.01 584.362H1148.85L1147.98 588.803H1144.13L1143 594.371Z" fill="black"/>
<path d="M1169.92 583.736L1166.54 600.69H1160.91L1161.26 599.095C1159.9 600.346 1158.27 600.971 1156.35 600.971C1155.1 600.971 1153.92 600.669 1152.81 600.064C1151.73 599.439 1150.85 598.542 1150.19 597.374C1149.52 596.206 1149.19 594.83 1149.19 593.245C1149.19 591.41 1149.59 589.752 1150.41 588.272C1151.24 586.77 1152.35 585.592 1153.75 584.737C1155.17 583.882 1156.71 583.454 1158.38 583.454C1160.84 583.454 1162.57 584.226 1163.57 585.769L1163.98 583.736H1169.92ZM1158.41 596.185C1159.6 596.185 1160.57 595.748 1161.32 594.872C1162.07 593.996 1162.45 592.859 1162.45 591.462C1162.45 590.461 1162.16 589.669 1161.57 589.085C1161.01 588.501 1160.23 588.209 1159.23 588.209C1158.04 588.209 1157.07 588.647 1156.32 589.523C1155.57 590.399 1155.19 591.546 1155.19 592.964C1155.19 593.965 1155.47 594.757 1156.04 595.341C1156.62 595.904 1157.41 596.185 1158.41 596.185Z" fill="black"/>
<path d="M1175 577.48H1180.94L1176.31 600.69H1170.37L1175 577.48Z" fill="black"/>
<path d="M1183.55 583.736H1189.47L1186.09 600.69H1180.18L1183.55 583.736ZM1187.34 581.859C1186.32 581.859 1185.49 581.578 1184.87 581.015C1184.24 580.452 1183.93 579.753 1183.93 578.919C1183.93 577.939 1184.27 577.136 1184.96 576.51C1185.67 575.864 1186.6 575.541 1187.75 575.541C1188.79 575.541 1189.62 575.812 1190.25 576.354C1190.87 576.875 1191.19 577.553 1191.19 578.387C1191.19 579.409 1190.83 580.243 1190.12 580.89C1189.41 581.536 1188.49 581.859 1187.34 581.859Z" fill="black"/>
<path d="M1199.4 600.971C1197.6 600.971 1196.03 600.659 1194.67 600.033C1193.34 599.387 1192.3 598.479 1191.55 597.312C1190.82 596.144 1190.45 594.788 1190.45 593.245C1190.45 591.389 1190.9 589.721 1191.8 588.24C1192.69 586.76 1193.94 585.592 1195.55 584.737C1197.16 583.882 1198.96 583.454 1200.96 583.454C1202.88 583.454 1204.54 583.861 1205.93 584.674C1207.33 585.467 1208.35 586.593 1209 588.053L1203.93 590.461C1203.31 588.96 1202.21 588.209 1200.65 588.209C1199.44 588.209 1198.44 588.647 1197.65 589.523C1196.87 590.399 1196.49 591.525 1196.49 592.901C1196.49 593.902 1196.77 594.705 1197.33 595.31C1197.92 595.894 1198.74 596.185 1199.8 596.185C1200.6 596.185 1201.29 596.008 1201.9 595.654C1202.5 595.299 1203.03 594.736 1203.46 593.965L1207.81 596.592C1207 597.968 1205.85 599.042 1204.37 599.814C1202.91 600.586 1201.25 600.971 1199.4 600.971Z" fill="black"/>
<path d="M968.33 627.74C969.623 628.22 970.624 628.918 971.333 629.836C972.042 630.753 972.397 631.859 972.397 633.151C972.397 635.07 971.604 636.561 970.019 637.625C968.435 638.667 966.141 639.189 963.138 639.189H950.814V617.292H962.512C965.432 617.292 967.632 617.814 969.112 618.856C970.614 619.899 971.364 621.286 971.364 623.017C971.364 624.038 971.104 624.956 970.582 625.769C970.082 626.583 969.331 627.24 968.33 627.74ZM958.071 622.454V625.707H961.512C963.117 625.707 963.92 625.165 963.92 624.08C963.92 622.996 963.117 622.454 961.512 622.454H958.071ZM962.512 634.027C964.139 634.027 964.952 633.454 964.952 632.307C964.952 631.16 964.139 630.586 962.512 630.586H958.071V634.027H962.512Z" fill="black"/>
<path d="M974.787 615.979H981.856V639.189H974.787V615.979Z" fill="black"/>
<path d="M992.653 621.765C995.656 621.765 997.95 622.443 999.534 623.799C1001.12 625.133 1001.91 627.198 1001.91 629.992V639.189H995.343V636.936C994.53 638.646 992.914 639.501 990.495 639.501C989.139 639.501 987.982 639.272 987.023 638.813C986.084 638.334 985.365 637.698 984.865 636.905C984.385 636.092 984.145 635.185 984.145 634.184C984.145 632.495 984.792 631.212 986.084 630.336C987.377 629.46 989.337 629.022 991.965 629.022H994.811C994.582 627.688 993.508 627.021 991.59 627.021C990.818 627.021 990.036 627.146 989.244 627.396C988.451 627.625 987.774 627.949 987.21 628.366L984.958 623.705C985.938 623.1 987.117 622.631 988.493 622.297C989.89 621.943 991.277 621.765 992.653 621.765ZM992.622 635.247C993.122 635.247 993.571 635.112 993.967 634.841C994.363 634.569 994.655 634.163 994.843 633.621V632.432H993.091C991.652 632.432 990.933 632.912 990.933 633.871C990.933 634.267 991.079 634.601 991.371 634.872C991.683 635.122 992.1 635.247 992.622 635.247Z" fill="black"/>
<path d="M1014.47 639.501C1012.53 639.501 1010.79 639.126 1009.24 638.375C1007.72 637.625 1006.52 636.571 1005.65 635.216C1004.79 633.86 1004.36 632.328 1004.36 630.618C1004.36 628.908 1004.79 627.385 1005.65 626.051C1006.52 624.695 1007.72 623.642 1009.24 622.892C1010.79 622.141 1012.53 621.765 1014.47 621.765C1016.55 621.765 1018.34 622.214 1019.82 623.111C1021.3 624.007 1022.32 625.248 1022.88 626.833L1017.41 629.523C1016.74 628.022 1015.75 627.271 1014.44 627.271C1013.6 627.271 1012.9 627.563 1012.34 628.147C1011.8 628.731 1011.53 629.554 1011.53 630.618C1011.53 631.702 1011.8 632.536 1012.34 633.12C1012.9 633.704 1013.6 633.996 1014.44 633.996C1015.75 633.996 1016.74 633.245 1017.41 631.744L1022.88 634.434C1022.32 636.019 1021.3 637.26 1019.82 638.156C1018.34 639.053 1016.55 639.501 1014.47 639.501Z" fill="black"/>
<path d="M1032.71 633.933L1031.58 635.153V639.189H1024.52V615.979H1031.58V627.052L1036.5 622.078H1044.85L1037.78 629.492L1045.41 639.189H1036.87L1032.71 633.933Z" fill="black"/>
<path d="M969.018 666.426C969.957 666.843 970.676 667.417 971.177 668.147C971.698 668.856 971.959 669.711 971.959 670.712C971.959 673.026 970.999 674.768 969.081 675.935C967.183 677.103 964.733 677.687 961.73 677.687H949.094L953.473 655.791H965.077C967.642 655.791 969.592 656.25 970.926 657.167C972.261 658.064 972.928 659.347 972.928 661.015C972.928 662.245 972.584 663.33 971.896 664.268C971.208 665.186 970.249 665.905 969.018 666.426ZM959.697 660.952L959.04 664.205H962.794C964.42 664.205 965.234 663.569 965.234 662.297C965.234 661.859 965.067 661.526 964.733 661.296C964.4 661.067 963.92 660.952 963.294 660.952H959.697ZM962.137 672.526C962.888 672.526 963.493 672.359 963.951 672.025C964.41 671.671 964.639 671.17 964.639 670.524C964.639 670.065 964.462 669.711 964.108 669.461C963.774 669.21 963.347 669.085 962.825 669.085H958.071L957.383 672.526H962.137Z" fill="black"/>
<path d="M977.696 654.477H984.765L980.136 677.687H973.067L977.696 654.477Z" fill="black"/>
<path d="M1005.48 660.577L1002.07 677.687H995.406L995.718 676.123C994.425 677.374 992.882 678 991.089 678C989.921 678 988.795 677.687 987.711 677.062C986.627 676.436 985.74 675.529 985.052 674.34C984.385 673.131 984.051 671.713 984.051 670.086C984.051 668.251 984.458 666.583 985.271 665.081C986.105 663.58 987.221 662.402 988.618 661.547C990.015 660.692 991.527 660.264 993.153 660.264C995.447 660.264 997.074 660.973 998.033 662.391L998.408 660.577H1005.48ZM991.214 669.742C991.214 670.555 991.433 671.212 991.871 671.713C992.33 672.192 992.955 672.432 993.748 672.432C994.665 672.432 995.406 672.078 995.969 671.369C996.552 670.66 996.844 669.711 996.844 668.522C996.844 667.709 996.615 667.062 996.156 666.583C995.718 666.082 995.103 665.832 994.311 665.832C993.393 665.832 992.643 666.186 992.059 666.896C991.496 667.605 991.214 668.553 991.214 669.742Z" fill="black"/>
<path d="M1015.24 678C1013.39 678 1011.75 677.677 1010.33 677.03C1008.93 676.363 1007.85 675.435 1007.08 674.246C1006.31 673.058 1005.92 671.671 1005.92 670.086C1005.92 668.23 1006.38 666.562 1007.3 665.081C1008.22 663.58 1009.5 662.402 1011.14 661.547C1012.79 660.692 1014.65 660.264 1016.71 660.264C1018.74 660.264 1020.5 660.712 1022 661.609C1023.52 662.506 1024.58 663.726 1025.19 665.269L1019.18 668.022C1018.64 666.562 1017.7 665.832 1016.37 665.832C1015.41 665.832 1014.62 666.186 1013.99 666.896C1013.39 667.605 1013.08 668.522 1013.08 669.648C1013.08 670.482 1013.31 671.16 1013.77 671.681C1014.25 672.182 1014.92 672.432 1015.77 672.432C1016.48 672.432 1017.09 672.265 1017.59 671.932C1018.11 671.577 1018.57 671.014 1018.96 670.243L1024.13 673.245C1023.27 674.768 1022.07 675.946 1020.53 676.78C1019.01 677.593 1017.24 678 1015.24 678Z" fill="black"/>
<path d="M1039.55 668.303L1045.15 677.687H1036.86L1033.92 672.714L1032.11 674.403L1031.45 677.687H1024.38L1029.01 654.477H1036.08L1033.89 665.457L1039.43 660.577H1048.12L1039.55 668.303Z" fill="black"/>
<path d="M1059.96 655.791H1067.34L1062.96 677.687H1055.58L1059.96 655.791Z" fill="black"/>
<path d="M1075.49 670.962C1075.45 671.212 1075.43 671.379 1075.43 671.462C1075.43 672.255 1075.86 672.651 1076.74 672.651C1077.2 672.651 1077.72 672.516 1078.3 672.244L1079.12 676.999C1077.91 677.666 1076.36 678 1074.49 678C1072.55 678 1071.02 677.541 1069.89 676.624C1068.78 675.685 1068.23 674.372 1068.23 672.682C1068.23 672.14 1068.29 671.577 1068.42 670.993L1069.3 666.677H1066.92L1067.95 661.515H1070.3L1071.27 656.729H1078.33L1077.37 661.515H1080.87L1079.84 666.677H1076.33L1075.49 670.962Z" fill="black"/>
<path d="M1102.43 660.577L1099.02 677.687H1092.36L1092.67 676.123C1091.38 677.374 1089.83 678 1088.04 678C1086.87 678 1085.75 677.687 1084.66 677.062C1083.58 676.436 1082.69 675.529 1082 674.34C1081.34 673.131 1081 671.713 1081 670.086C1081 668.251 1081.41 666.583 1082.22 665.081C1083.06 663.58 1084.17 662.402 1085.57 661.547C1086.97 660.692 1088.48 660.264 1090.11 660.264C1092.4 660.264 1094.03 660.973 1094.99 662.391L1095.36 660.577H1102.43ZM1088.17 669.742C1088.17 670.555 1088.39 671.212 1088.82 671.713C1089.28 672.192 1089.91 672.432 1090.7 672.432C1091.62 672.432 1092.36 672.078 1092.92 671.369C1093.5 670.66 1093.8 669.711 1093.8 668.522C1093.8 667.709 1093.57 667.062 1093.11 666.583C1092.67 666.082 1092.06 665.832 1091.26 665.832C1090.35 665.832 1089.59 666.186 1089.01 666.896C1088.45 667.605 1088.17 668.553 1088.17 669.742Z" fill="black"/>
<path d="M1106.75 654.477H1113.82L1109.19 677.687H1102.12L1106.75 654.477Z" fill="black"/>
<path d="M1115.73 660.577H1122.77L1119.36 677.687H1112.33L1115.73 660.577ZM1120.02 659.201C1118.81 659.201 1117.84 658.888 1117.11 658.262C1116.38 657.616 1116.02 656.813 1116.02 655.854C1116.02 654.748 1116.43 653.831 1117.27 653.101C1118.1 652.371 1119.19 652.006 1120.52 652.006C1121.73 652.006 1122.7 652.309 1123.43 652.913C1124.16 653.497 1124.52 654.269 1124.52 655.228C1124.52 656.417 1124.11 657.376 1123.27 658.106C1122.46 658.836 1121.38 659.201 1120.02 659.201Z" fill="black"/>
<path d="M1132.57 678C1130.71 678 1129.08 677.677 1127.66 677.03C1126.26 676.363 1125.18 675.435 1124.4 674.246C1123.63 673.058 1123.25 671.671 1123.25 670.086C1123.25 668.23 1123.71 666.562 1124.62 665.081C1125.54 663.58 1126.82 662.402 1128.47 661.547C1130.12 660.692 1131.97 660.264 1134.04 660.264C1136.06 660.264 1137.82 660.712 1139.32 661.609C1140.85 662.506 1141.91 663.726 1142.52 665.269L1136.51 668.022C1135.97 666.562 1135.03 665.832 1133.69 665.832C1132.74 665.832 1131.94 666.186 1131.32 666.896C1130.71 667.605 1130.41 668.522 1130.41 669.648C1130.41 670.482 1130.64 671.16 1131.1 671.681C1131.58 672.182 1132.25 672.432 1133.1 672.432C1133.81 672.432 1134.41 672.265 1134.91 671.932C1135.44 671.577 1135.89 671.014 1136.29 670.243L1141.45 673.245C1140.6 674.768 1139.4 675.946 1137.85 676.78C1136.33 677.593 1134.57 678 1132.57 678Z" fill="black"/>
<path d="M958 24H-85.1101L-86 25" stroke="black" stroke-width="0.6"/>
<path fill-rule="evenodd" clip-rule="evenodd" d="M-91 62L955.665 62.0001L956 62.0001L-91 62Z" fill="black" stroke="black" stroke-width="0.6"/>
<path d="M954 99.7187L-60 99.7188" stroke="black" stroke-width="0.8"/>
<path fill-rule="evenodd" clip-rule="evenodd" d="M-50 137.688H952V138.688H-50V137.688Z" fill="black"/>
<path fill-rule="evenodd" clip-rule="evenodd" d="M-50 175.935L953 176L953 177.199L-50 176.866V175.935Z" fill="black"/>
<path fill-rule="evenodd" clip-rule="evenodd" d="M-21 214.156H953V215.703H-21V214.156Z" fill="black"/>
<path fill-rule="evenodd" clip-rule="evenodd" d="M-9 251.844H954V254.203H-9V251.844Z" fill="black"/>
<path fill-rule="evenodd" clip-rule="evenodd" d="M-11.7188 290L953.281 290.297V293H-11.7188V290Z" fill="black"/>
<path fill-rule="evenodd" clip-rule="evenodd" d="M-16 328.188H955V331.188H-16V328.188Z" fill="black"/>
<path fill-rule="evenodd" clip-rule="evenodd" d="M-21 367H954L953.5 369.688L-21 370.188V367Z" fill="black"/>
<path fill-rule="evenodd" clip-rule="evenodd" d="M-16 405.219H959V408.5H-16V405.219Z" fill="black"/>
<path fill-rule="evenodd" clip-rule="evenodd" d="M-31 443L955.5 443.5L958 447H-31V443Z" fill="black"/>
<path fill-rule="evenodd" clip-rule="evenodd" d="M-25 479H956V485.219H-25V479Z" fill="black"/>
<path fill-rule="evenodd" clip-rule="evenodd" d="M-25 517.75H955V523.75H-25V517.75Z" fill="black"/>
<path fill-rule="evenodd" clip-rule="evenodd" d="M-7 554.688H956V562.188H-7V554.688Z" fill="black"/>
<path fill-rule="evenodd" clip-rule="evenodd" d="M-3 592.656H955V600.656H-3V592.656Z" fill="black"/>
<path fill-rule="evenodd" clip-rule="evenodd" d="M-7 630.188H956V639.188H-7V630.188Z" fill="black"/>
<path fill-rule="evenodd" clip-rule="evenodd" d="M-12 668.688H956V677.688H-12V668.688Z" fill="black"/>
</svg>
