<svg width="1280" height="590" viewBox="0 0 1280 590" fill="none" xmlns="http://www.w3.org/2000/svg">
<path d="M572.5 587.5H1392" stroke="#1612E3" stroke-width="5"/>
<path d="M-50 587L72 587.5" stroke="#1612E3" stroke-width="5"/>
<path d="M203.003 550.055L206.003 550.055V559.57H203L203.003 550.055Z" fill="#1612E3"/>
<path fill-rule="evenodd" clip-rule="evenodd" d="M420.034 261.236L424.266 258.706L431.265 254.523C433.161 253.389 433.779 250.933 432.646 249.037L287.935 6.94904C286.802 5.05286 284.346 4.43454 282.45 5.56801L210.873 48.3536C208.977 49.487 208.359 51.943 209.492 53.8392L239.885 104.684L243.134 110.12L237.094 112.019C141.397 142.116 72 231.542 72 337.163C72 430.956 126.72 511.977 206 550.027V550.304L203.895 559.562H88C79.1634 559.562 72 566.726 72 575.562V584V584.923V589.923H67V584.923V575.562C67 563.964 76.402 554.562 88 554.562H192.805H203.895C200.572 552.969 197.292 551.302 194.056 549.562C118.422 508.912 67 429.043 67 337.163C67 231.098 135.526 141.038 230.719 108.84C232.336 108.293 233.961 107.763 235.594 107.25L232.958 102.84L205.2 56.4046C202.65 52.1382 204.041 46.6122 208.308 44.0619L279.884 1.27631C284.151 -1.27399 289.677 0.11721 292.227 4.38364L436.937 246.472C439.488 250.738 438.097 256.264 433.83 258.814L426.832 262.998L432.986 273.627C434.369 276.017 433.554 279.076 431.164 280.459L381.827 309.024C379.438 310.407 376.379 309.592 374.995 307.202L371.815 301.71L369.31 297.382L365.018 299.948L362.254 301.6C357.987 304.15 352.461 302.759 349.911 298.493L266.275 158.577C185.104 177.455 124.624 250.246 124.624 337.163C124.624 438.424 206.712 520.512 307.973 520.512C344.779 520.512 379.053 509.666 407.772 490.997V440.386V435.386H402.772H359.119C356.91 435.386 355.119 433.595 355.119 431.386V397.477C355.119 395.268 356.91 393.477 359.119 393.477H573.757C575.966 393.477 577.757 395.268 577.757 397.477V431.386C577.757 433.595 575.966 435.386 573.757 435.386H492.152H487.152V440.386V549.562V554.562H492.152H556.757C568.355 554.562 577.757 563.964 577.757 575.562V584.923V589.923H573V584H572.757V575.562C572.757 566.726 565.593 559.562 556.757 559.562H487.152H482.152V554.562V435.386V430.386H487.152H572.757V398.477H360.119V430.386H407.772H412.772V435.386V490.997V493.71L410.497 495.189C380.992 514.37 345.776 525.512 307.973 525.512C203.95 525.512 119.624 441.185 119.624 337.163C119.624 247.869 181.757 173.1 265.142 153.707L268.695 152.881L270.567 156.012L354.203 295.927C355.336 297.823 357.792 298.442 359.688 297.308L366.744 293.09L371.096 290.489L373.637 294.877L379.322 304.697L428.659 276.132L422.505 265.503L420.034 261.236Z" fill="#1612E3"/>
</svg>
